<svg width="16" height="20" viewBox="0 0 16 20" fill="none" xmlns="http://www.w3.org/2000/svg">
<path d="M7.99756 0C6.4159 0.000833653 4.86995 0.470391 3.55501 1.34936C2.24006 2.22833 1.2151 3.47728 0.609588 4.93846C0.00407818 6.39963 -0.154816 8.00748 0.152974 9.55891C0.460765 11.1103 1.22143 12.5358 2.3389 13.6551C3.78779 15.104 7.19756 17.2 7.39934 19.4018C7.42956 19.7307 7.66867 20 7.99756 20C8.32645 20 8.56645 19.7307 8.59579 19.4018C8.79756 17.2 12.2047 15.1076 13.6527 13.6596C14.7714 12.5407 15.5334 11.1152 15.8422 9.56332C16.1509 8.01146 15.9927 6.40289 15.3875 4.94095C14.7822 3.47901 13.7571 2.22932 12.4418 1.34987C11.1264 0.470408 9.57984 0.000659081 7.99756 0Z" fill="#FF4433"/>
<path d="M8.17946 10.981C7.81188 10.981 7.4479 10.9086 7.1083 10.7679C6.76869 10.6273 6.46013 10.4211 6.20021 10.1612C5.94029 9.90124 5.73411 9.59267 5.59344 9.25307C5.45277 8.91347 5.38037 8.54949 5.38037 8.1819C5.38037 7.81432 5.45277 7.45034 5.59344 7.11074C5.73411 6.77114 5.94029 6.46257 6.20021 6.20265C6.46013 5.94273 6.76869 5.73655 7.1083 5.59588C7.4479 5.45521 7.81188 5.38281 8.17946 5.38281C8.92183 5.38281 9.63379 5.67772 10.1587 6.20265C10.6837 6.72758 10.9786 7.43954 10.9786 8.1819C10.9786 8.92427 10.6837 9.63623 10.1587 10.1612C9.63379 10.6861 8.92183 10.981 8.17946 10.981Z" fill="white"/>
</svg>
