<svg width="10" height="10" viewBox="0 0 10 10" fill="none" xmlns="http://www.w3.org/2000/svg">
<path d="M1.03944 4.45199C0.842622 4.45254 0.649979 4.50881 0.483802 4.61428C0.317624 4.71975 0.184703 4.87011 0.100416 5.04797C0.0161296 5.22583 -0.0160781 5.42392 0.00751928 5.61932C0.0311167 5.81472 0.109555 5.99945 0.233759 6.15214L2.8815 9.39562C2.97591 9.51284 3.09692 9.60585 3.23449 9.66691C3.37206 9.72797 3.52221 9.75533 3.67247 9.74671C3.99385 9.72945 4.284 9.55753 4.46899 9.27486L9.96903 0.417059C9.96994 0.415579 9.97087 0.414117 9.97184 0.412673C10.0234 0.333436 10.0067 0.176409 9.90019 0.0777631C9.87093 0.0506736 9.83643 0.0298614 9.79882 0.0166081C9.76121 0.00335478 9.72129 -0.002059 9.68151 0.000700272C9.64173 0.00345954 9.60293 0.0143335 9.56751 0.0326522C9.53209 0.0509709 9.5008 0.0763466 9.47556 0.107217C9.47358 0.109644 9.47155 0.112034 9.46946 0.114388L3.9226 6.38151C3.90149 6.40536 3.87586 6.42478 3.84718 6.43864C3.81851 6.45249 3.78737 6.46052 3.75556 6.46224C3.72376 6.46396 3.69194 6.45934 3.66194 6.44866C3.63194 6.43797 3.60436 6.42143 3.5808 6.4L1.7399 4.72477C1.54871 4.54951 1.29881 4.45219 1.03944 4.45199Z" fill="white"/>
</svg>
