<svg width="733" height="512" viewBox="0 0 733 512" fill="none" xmlns="http://www.w3.org/2000/svg">
<path d="M76.698 141.822C68.0385 150.481 57.441 154.811 44.9054 154.811C32.3699 154.811 21.7311 150.481 12.9892 141.822C4.32973 133.08 0 122.441 0 109.905C0 97.3699 4.32973 86.7723 12.9892 78.1129C21.7311 69.371 32.3699 65 44.9054 65C57.441 65 68.0385 69.371 76.698 78.1129C85.4399 86.7723 89.8109 97.3699 89.8109 109.905C89.8109 122.441 85.4399 133.08 76.698 141.822ZM23.0094 132.173C29.0298 138.028 36.3285 140.956 44.9054 140.956C53.5649 140.956 60.8223 138.028 66.6778 132.173C72.6157 126.235 75.5846 118.812 75.5846 109.905C75.5846 100.999 72.6157 93.6174 66.6778 87.762C60.8223 81.8241 53.5649 78.8551 44.9054 78.8551C36.246 78.8551 28.9473 81.8241 23.0094 87.762C17.154 93.6174 14.2262 100.999 14.2262 109.905C14.2262 118.73 17.154 126.152 23.0094 132.173Z" fill="#07689F"/>
<path d="M131.859 108.792L168.105 153.203H151.157L117.014 112.008V153.203H102.787V66.6082H117.014V105.452L149.92 66.6082H166.867L131.859 108.792Z" fill="#07689F"/>
<path d="M228.664 102.112V66.6082H242.89V153.203H228.664V115.72H191.552V153.203H177.325V66.6082H191.552V102.112H228.664Z" fill="#07689F"/>
<path d="M331.949 153.203H316.609L310.548 135.76H273.683L267.622 153.203H252.158L283.58 66.6082H300.651L331.949 153.203ZM292.115 83.3086L278.384 122.4H305.847L292.115 83.3086Z" fill="#07689F"/>
<path fill-rule="evenodd" clip-rule="evenodd" d="M230.986 202.105C230.986 194.611 234.87 192.688 240.95 194.069V215.833H230.986V202.105ZM203.498 192.06V270.41C203.498 271.181 203.737 271.414 204.529 271.414H230.986V231.904H240.95V271.414H268.439V176.992H215.524C210.977 176.992 208.381 178.875 206.511 181.603C204.745 184.179 203.498 187.932 203.498 192.06ZM27.9169 215.498V193.399C33.3052 193.399 35.2564 192.561 36.5875 197.673C38.3392 204.401 38.4207 217.882 27.9169 215.498ZM0.428711 270.41C0.428711 271.181 0.667826 271.414 1.45958 271.414H27.9169V231.904C31.7834 231.904 37.8814 229.654 37.8814 239.271V270.745H65.7132V232.574C65.7132 227.86 63.297 223.588 58.4976 223.199C59.819 222.304 65.0259 220.314 65.0259 215.163V193.399C65.0259 189.154 62.6307 184.333 60.4792 182.093C57.8062 179.31 54.6006 176.992 49.2203 176.992H0.428711V270.41ZM128.936 271.414H156.424V231.904H166.389V271.414H192.846C193.638 271.414 193.877 271.181 193.877 270.41V176.992H166.389V215.833H156.424V176.992H128.936V271.414ZM278.059 251.659C278.059 258.869 280.176 266.066 286.892 269.169C295.3 273.053 325.764 273.191 334.304 269.302C340.258 266.591 343 260.362 343 251.994V176.992H315.512V248.646C315.512 254.76 313.436 256.012 309.671 256.012C306.619 256.012 305.548 251.752 305.548 248.646V176.992H278.06L278.059 251.659ZM74.9905 271.414L120.346 271.079V255.008H102.479V231.904H120.346V215.833H102.479V193.064H120.346V176.992H74.9905V271.414Z" fill="#07689F"/>
<path d="M553 0C453.7 0 373 81.7 373 181C373 216.398 383.2 250.602 402.7 280L553 512L703.3 280C722.8 250.602 733 216.398 733 181C733 81.7 652.3 0 553 0ZM553 271C503.5 271 463 230.5 463 181C463 131.5 503.5 90 553 90C602.5 90 643 131.5 643 181C643 230.5 602.5 271 553 271Z" fill="#07689F"/>
<path d="M733 181C733 216.398 722.8 250.602 703.3 280L553 512V271C602.5 271 643 230.5 643 181C643 131.5 602.5 90 553 90V0C652.3 0 733 81.7 733 181Z" fill="#085885"/>
</svg>
