<svg width="120" height="42" viewBox="0 0 120 42" fill="none" xmlns="http://www.w3.org/2000/svg">
<path d="M67.528 15.57C65.8218 17.2763 63.7337 18.1294 61.2637 18.1294C58.7937 18.1294 56.6974 17.2763 54.9749 15.57C53.2687 13.8475 52.4155 11.7513 52.4155 9.28126C52.4155 6.81126 53.2687 4.72314 54.9749 3.01689C56.6974 1.29439 58.7937 0.433136 61.2637 0.433136C63.7337 0.433136 65.8218 1.29439 67.528 3.01689C69.2505 4.72314 70.1118 6.81126 70.1118 9.28126C70.1118 11.7513 69.2505 13.8475 67.528 15.57ZM56.9493 13.6688C58.1355 14.8225 59.5737 15.3994 61.2637 15.3994C62.9699 15.3994 64.3999 14.8225 65.5537 13.6688C66.7237 12.4988 67.3087 11.0363 67.3087 9.28126C67.3087 7.52626 66.7237 6.07189 65.5537 4.91814C64.3999 3.74814 62.9699 3.16314 61.2637 3.16314C59.5574 3.16314 58.1193 3.74814 56.9493 4.91814C55.7955 6.07189 55.2187 7.52626 55.2187 9.28126C55.2187 11.02 55.7955 12.4825 56.9493 13.6688Z" fill="#1F3F50"/>
<path d="M78.3968 9.06189L85.5387 17.8125H82.1993L75.4718 9.69564V17.8125H72.6687V0.750011H75.4718V8.40376L81.9556 0.750011H85.2949L78.3968 9.06189Z" fill="#1F3F50"/>
<path d="M97.4712 7.74564V0.750011H100.274V17.8125H97.4712V10.4269H90.1587V17.8125H87.3556V0.750011H90.1587V7.74564H97.4712Z" fill="#1F3F50"/>
<path d="M117.822 17.8125H114.8L113.606 14.3756H106.342L105.147 17.8125H102.101L108.292 0.750011H111.656L117.822 17.8125ZM109.974 4.04064L107.268 11.7431H112.679L109.974 4.04064Z" fill="#1F3F50"/>
<path d="M45.1457 0H17.4031C16.0185 0 14.7622 0.757839 14.1468 1.94512C13.5314 3.1324 13.2381 4.6875 13.2381 4.6875L14.0625 4.21875H15L15.5693 4.35843L15.9672 3.05662C16.2236 2.39983 16.8646 1.94512 17.5826 1.94512H42.4535C43.274 1.94512 43.8381 2.75348 43.556 3.51132L30.8129 37.2099C30.3257 38.4982 29.095 39.3319 27.7104 39.3319H0.0190818C-0.134759 40.3171 0.660084 41.277 1.73697 41.277H29.5822C31.1206 41.277 32.4795 40.3423 33.0179 38.9277L46.838 2.37457C47.2482 1.21255 46.4021 0 45.1457 0Z" fill="#1F3F50"/>
<path fill-rule="evenodd" clip-rule="evenodd" d="M19.4245 21.8525H5.44674L0.0868535 35.3978C-0.254707 36.2893 0.454688 37.2302 1.4531 37.2302H13.3552L19.4245 21.8525ZM16.6687 23.7275H6.72125L2.12015 35.3552H12.0795L16.6687 23.7275Z" fill="#1F3F50"/>
<path fill-rule="evenodd" clip-rule="evenodd" d="M20.3202 21.9267L14.5684 37.2302H24.5966C25.797 37.2302 26.8473 36.5133 27.2725 35.4007L32.3741 21.8773V21.8525H20.3452L20.3202 21.9267ZM29.6721 23.7275H21.6464L17.2761 35.3552H24.5966C25.029 35.3552 25.3753 35.1094 25.5199 34.7341C25.5203 34.7332 25.5206 34.7323 25.521 34.7314L29.6721 23.7275Z" fill="#1F3F50"/>
<path fill-rule="evenodd" clip-rule="evenodd" d="M12.6097 5.81968L8.34279 17.5495H17.9026L22.4151 5.11243H13.5726C13.1827 5.11243 12.7855 5.36229 12.6097 5.81968ZM13.5726 3.23743C12.3522 3.23743 11.2844 4.01941 10.8522 5.16632L5.66553 19.4245H19.2169L25.09 3.23743H13.5726Z" fill="#1F3F50"/>
<path fill-rule="evenodd" clip-rule="evenodd" d="M36.7516 5.11243H28.3292L23.7347 17.5495H32.162L36.7516 5.11243ZM33.4687 19.4245H21.0432L27.023 3.23743H37.4552C38.4389 3.23743 39.112 4.20187 38.7495 5.11419L33.4687 19.4245Z" fill="#1F3F50"/>
<path fill-rule="evenodd" clip-rule="evenodd" d="M97.9288 27.4481C97.9288 25.9716 98.6941 25.5927 99.8922 25.8647V30.153H97.9288V27.4481ZM92.5125 25.4688V40.9068C92.5125 41.0589 92.5597 41.1048 92.7156 41.1048H97.9288V33.3198H99.8922V41.1048H105.308V22.5H94.8821C93.9862 22.5 93.4748 22.871 93.1063 23.4085C92.7583 23.9161 92.5125 24.6555 92.5125 25.4688ZM57.9162 30.087V25.7327C58.978 25.7327 59.3624 25.5677 59.6247 26.575C59.9698 27.9006 59.9859 30.5569 57.9162 30.087ZM52.5 40.9068C52.5 41.0589 52.5471 41.1048 52.7031 41.1048H57.9162V33.3198C58.6781 33.3198 59.8796 32.8764 59.8796 34.7712V40.9728H65.3636V33.4517C65.3636 32.5229 64.8875 31.6812 63.9418 31.6045C64.2022 31.4282 65.2282 31.036 65.2282 30.0211V25.7327C65.2282 24.8963 64.7562 23.9464 64.3323 23.505C63.8056 22.9566 63.174 22.5 62.1138 22.5H52.5V40.9068ZM77.821 41.1048H83.2372V33.3198H85.2006V41.1048H90.4137C90.5697 41.1048 90.6168 41.0589 90.6168 40.9068V22.5H85.2006V30.153H83.2372V22.5H77.821V41.1048ZM107.204 37.2123C107.204 38.6329 107.621 40.0509 108.945 40.6623C110.601 41.4277 116.604 41.4548 118.287 40.6886C119.46 40.1544 120 38.927 120 37.2783V22.5H114.584V36.6185C114.584 37.8233 114.175 38.07 113.433 38.07C112.831 38.07 112.62 37.2306 112.62 36.6185V22.5H107.204L107.204 37.2123ZM67.1916 41.1048L76.1284 41.0388V37.872H72.6078V33.3198H76.1284V30.153H72.6078V25.6668H76.1284V22.5H67.1916V41.1048Z" fill="#1F3F50"/>
</svg>
