<svg width="234" height="55" viewBox="0 0 234 55" fill="none" xmlns="http://www.w3.org/2000/svg">
<path fill-rule="evenodd" clip-rule="evenodd" d="M43.3884 52.2122L57.6131 46.7522L57.634 46.7442C73.9542 40.1948 74.2101 14.688 57.6163 8.27515L43.3868 2.83926C37.9709 0.772883 33.3597 0 27.5736 0C12.4927 0 0.0288086 12.4417 0.0288086 27.4992C0.0288086 42.5584 12.4911 54.9984 27.5736 54.9984C33.4209 54.9984 37.9081 54.3171 43.3884 52.2122ZM57.0983 9.60716C72.4882 15.5556 72.2162 39.3511 57.1015 45.4201L42.8737 50.8785C37.461 52.9561 33.2908 53.5699 27.5723 53.5699C13.28 53.5699 1.45994 41.7678 1.45994 27.4992C1.45994 13.2306 13.28 1.42842 27.5723 1.42842C33.2232 1.42842 37.535 2.13542 42.8737 4.17448L57.0983 9.60716ZM22.6263 32.6523C21.8023 34.2077 20.9203 35.7325 19.953 37.2028C20.8841 37.1431 21.8342 37.0602 22.7934 36.9766C29.2427 36.4142 36.1031 35.816 40.3484 41.9735C41.5925 38.5172 43.371 35.4417 45.6854 32.7487C38.1901 30.8896 30.2939 31.783 22.6537 32.649L22.6263 32.6523ZM33.4389 30.2388C35.198 30.1713 36.9652 30.1713 38.7212 30.2742C38.2039 29.499 37.6569 28.719 37.1047 27.9314C33.3927 22.6376 29.4432 17.005 32.6615 10.2547C29.1045 10.7882 25.5491 10.7882 21.9938 10.2547C24.1241 17.6616 28.8474 24.0391 33.4171 30.2092L33.4211 30.2147L33.4389 30.2388ZM25.9483 22.0826C25.0132 20.5946 24.1296 19.0682 23.3377 17.4967C22.9237 18.332 22.5203 19.1955 22.113 20.0672C19.3771 25.9233 16.4662 32.1538 9.002 32.7455C11.4468 35.5992 13.2687 38.6602 14.3358 41.9718C19.697 36.4219 22.8693 29.1478 25.9386 22.1099L25.9386 22.1099L25.9483 22.0826ZM6.0003 19.6579C1.64825 31.5468 7.80937 44.7902 19.7164 49.1351C31.625 53.4815 44.8887 47.329 49.2424 35.4401C53.5961 23.5512 47.4333 10.311 35.5264 5.96449C23.6161 1.61802 10.354 7.76895 6.0003 19.6579ZM8.09264 20.4227C4.16066 31.1611 9.72627 43.1207 20.4841 47.0462C31.2387 50.9717 43.2181 45.4153 47.1501 34.6769C51.0821 23.9384 45.5164 11.9788 34.7602 8.05336C25.3496 4.61797 15.0006 8.44221 9.92584 16.6483C9.20318 17.818 8.58514 19.081 8.09264 20.4227ZM56.3467 12.109L44.5765 7.6629C50.4077 12.2681 54.1707 19.3799 54.1964 27.3497C54.2238 35.4963 50.3417 42.7753 44.319 47.4077L56.4465 42.7062C61.5437 40.7314 65.8459 34.7813 65.8234 27.3658C65.796 19.9519 61.4552 14.042 56.3467 12.109Z" fill="#324158"/>
<path fill-rule="evenodd" clip-rule="evenodd" d="M223.136 8.65433H224.438V3.633H226.227V2.65283H221.348V3.633H223.136V8.65433ZM226.817 8.65433H228.026V3.50927L229.632 8.65433H230.698L232.338 3.50927V8.65433H233.622V2.65283H231.572L230.199 7.01697L228.924 2.65283H226.817V8.65433Z" fill="#324158"/>
<path fill-rule="evenodd" clip-rule="evenodd" d="M80.2637 37.936V9.51123H93.2458C95.2094 9.51123 97.0699 9.87759 98.8372 10.5991C100.598 11.3205 102.14 12.328 103.468 13.6151C104.797 14.9037 105.835 16.419 106.584 18.1592C107.332 19.8994 107.71 21.7552 107.71 23.7204C107.71 26.3218 107.06 28.7112 105.753 30.8917C104.446 33.0721 102.682 34.7946 100.46 36.0496C98.2384 37.3061 95.8339 37.936 93.2458 37.936H80.2637ZM87.6657 15.7714V31.6758H91.8117C93.3279 31.6758 94.7056 31.3914 95.9465 30.821C97.1923 30.2489 98.1773 29.3652 98.9112 28.1681C99.6451 26.9774 100.007 25.4927 100.007 23.7204C100.007 21.2186 99.2572 19.2711 97.7652 17.8699C96.2749 16.4688 94.3097 15.7714 91.881 15.7714H87.6657Z" fill="#324158"/>
<path fill-rule="evenodd" clip-rule="evenodd" d="M127.61 32.9965H117.419L115.455 37.9358H107.599L118.547 9.5127H126.633L137.359 37.9358H129.466L127.61 32.9965ZM125.606 27.3404L122.591 18.2924H122.522L119.458 27.3404H125.606Z" fill="#324158"/>
<path fill-rule="evenodd" clip-rule="evenodd" d="M139.362 37.9358V9.5127H146.764L160.308 26.8873H160.39V9.5127H167.792V37.9358H160.39L146.84 20.5211H146.764V37.9358H139.362Z" fill="#324158"/>
<path fill-rule="evenodd" clip-rule="evenodd" d="M178.434 21.2248L187.385 9.5127H196.557L185.226 22.965L197.582 37.9358H187.984L178.434 25.6115H178.359V37.9358H170.96V9.5127H178.359V21.2248H178.434Z" fill="#324158"/>
<path fill-rule="evenodd" clip-rule="evenodd" d="M206.497 15.7729V20.5211H218.913V26.7796H206.497V31.6756H219.367V37.9358H199.097V9.5127H219.367V15.7729H206.497Z" fill="#324158"/>
<path fill-rule="evenodd" clip-rule="evenodd" d="M82.803 52.0164H80.8877V44.6667H82.803V52.0164ZM84.7778 52.0164V44.6683H86.6915L90.1938 49.161H90.2147V44.6683H92.1284V52.0164H90.2147L86.7108 47.5156H86.6915V52.0164H84.7778ZM94.108 52.0164V44.6683H96.0217L99.524 49.161H99.5449V44.6683H101.46V52.0164H99.5449L96.041 47.5156H96.0217V52.0164H94.108ZM107.142 44.4209C107.668 44.4209 108.178 44.5157 108.667 44.6989C109.16 44.8821 109.596 45.1456 109.979 45.4862C110.361 45.8269 110.662 46.2302 110.882 46.693C111.101 47.1573 111.212 47.6603 111.212 48.2018C111.212 48.785 111.112 49.3265 110.913 49.8295C110.713 50.3276 110.43 50.7598 110.064 51.1246C109.696 51.4893 109.263 51.7689 108.766 51.9633C108.268 52.161 107.726 52.2574 107.142 52.2574C106.556 52.2574 106.015 52.161 105.518 51.9633C105.02 51.7689 104.589 51.4861 104.219 51.1214C103.85 50.755 103.564 50.3228 103.366 49.8247C103.166 49.3249 103.068 48.785 103.068 48.2018C103.068 47.6603 103.177 47.1573 103.398 46.693C103.618 46.2302 103.919 45.8269 104.301 45.4862C104.684 45.1456 105.12 44.8821 105.613 44.6989C106.107 44.5157 106.615 44.4209 107.142 44.4209ZM107.142 46.2736C106.77 46.2736 106.425 46.3668 106.105 46.5451C105.786 46.7267 105.532 46.9661 105.344 47.265C105.156 47.5638 105.061 47.8804 105.061 48.2162C105.061 48.6292 105.154 49.0036 105.339 49.3378C105.527 49.672 105.778 49.9339 106.099 50.1235C106.417 50.3115 106.763 50.4063 107.142 50.4063C107.518 50.4063 107.868 50.3115 108.185 50.1219C108.503 49.9323 108.754 49.6688 108.941 49.3362C109.126 49.002 109.22 48.6292 109.22 48.2162C109.22 47.8804 109.125 47.5638 108.938 47.265C108.751 46.9661 108.497 46.7267 108.178 46.5451C107.859 46.3668 107.512 46.2736 107.142 46.2736ZM114.133 44.6683L115.91 49.1321L117.7 44.6683H119.778L116.634 52.0164H115.15L112.057 44.6683H114.133ZM125.493 50.7389H122.858L122.351 52.0164H120.32L123.15 44.6683H125.242L128.015 52.0164H125.974L125.493 50.7389ZM124.976 49.2767L124.196 46.9372H124.178L123.388 49.2767H124.976ZM132.266 46.2848V52.0164H130.352V46.2848H128.772V44.6683H133.848V46.2848H132.266ZM137.181 52.0164H135.267V44.6667H137.181V52.0164ZM142.859 44.4209C143.387 44.4209 143.896 44.5157 144.387 44.6989C144.878 44.8821 145.314 45.1456 145.697 45.4862C146.078 45.8269 146.381 46.2302 146.6 46.693C146.82 47.1573 146.93 47.6603 146.93 48.2018C146.93 48.785 146.832 49.3265 146.632 49.8295C146.432 50.3276 146.151 50.7598 145.781 51.1246C145.415 51.4893 144.984 51.7689 144.483 51.9633C143.988 52.161 143.444 52.2574 142.859 52.2574C142.274 52.2574 141.734 52.161 141.235 51.9633C140.74 51.7689 140.307 51.4861 139.937 51.1214C139.568 50.755 139.285 50.3228 139.084 49.8247C138.886 49.3249 138.787 48.785 138.787 48.2018C138.787 47.6603 138.897 47.1573 139.117 46.693C139.336 46.2302 139.637 45.8269 140.022 45.4862C140.402 45.1456 140.838 44.8821 141.332 44.6989C141.826 44.5157 142.335 44.4209 142.859 44.4209ZM142.859 46.2736C142.489 46.2736 142.143 46.3668 141.825 46.5451C141.504 46.7267 141.248 46.9661 141.062 47.265C140.873 47.5638 140.778 47.8804 140.778 48.2162C140.778 48.6292 140.872 49.0036 141.058 49.3378C141.245 49.672 141.499 49.9339 141.816 50.1235C142.135 50.3115 142.483 50.4063 142.859 50.4063C143.238 50.4063 143.585 50.3115 143.902 50.1219C144.223 49.9323 144.472 49.6688 144.66 49.3362C144.847 49.002 144.939 48.6292 144.939 48.2162C144.939 47.8804 144.844 47.5638 144.659 47.265C144.469 46.9661 144.216 46.7267 143.896 46.5451C143.577 46.3668 143.233 46.2736 142.859 46.2736ZM148.546 52.0164V44.6683H150.461L153.963 49.161H153.983V44.6683H155.896V52.0164H153.983L150.479 47.5156H150.461V52.0164H148.546ZM162.758 52.0164V44.6683H165.688C166.226 44.6683 166.696 44.7535 167.098 44.927C167.499 45.099 167.811 45.3641 168.032 45.7256C168.252 46.0872 168.363 46.5403 168.363 47.085C168.363 47.5156 168.307 47.8868 168.194 48.2002C168.078 48.5151 167.911 48.7722 167.689 48.9762C167.468 49.1787 167.196 49.3298 166.873 49.4294C166.551 49.529 166.178 49.5788 165.758 49.5788H164.673V52.0164H162.758ZM164.673 46.2093V48.0379H164.995C165.3 48.0379 165.545 48.0234 165.729 47.9929C165.912 47.9639 166.063 47.882 166.187 47.7535C166.31 47.6217 166.371 47.4192 166.371 47.1413C166.371 46.852 166.313 46.6415 166.194 46.505C166.075 46.37 165.925 46.2864 165.746 46.2543C165.568 46.2238 165.315 46.2093 164.995 46.2093H164.673ZM173.747 49.0036L176.06 52.0164H173.678L171.87 49.1884H171.853V52.0164H169.937V44.6683H172.799C173.296 44.6683 173.737 44.7487 174.124 44.9094C174.508 45.0717 174.809 45.3239 175.03 45.6646C175.247 46.0036 175.357 46.4246 175.357 46.9292C175.357 47.2698 175.295 47.588 175.17 47.882C175.046 48.1744 174.862 48.4219 174.621 48.6163C174.381 48.8124 174.09 48.9409 173.747 49.0036ZM171.853 46.129V47.9623H172.036C172.287 47.9623 172.508 47.9382 172.699 47.89C172.889 47.845 173.049 47.7551 173.176 47.6185C173.301 47.4835 173.364 47.2939 173.364 47.0432C173.364 46.7974 173.301 46.6046 173.176 46.4712C173.049 46.3362 172.891 46.2446 172.699 46.198C172.509 46.1514 172.289 46.129 172.036 46.129H171.853ZM181.006 44.4209C181.535 44.4209 182.042 44.5157 182.533 44.6989C183.024 44.8821 183.46 45.1456 183.843 45.4862C184.225 45.8269 184.526 46.2302 184.746 46.693C184.965 47.1573 185.076 47.6603 185.076 48.2018C185.076 48.785 184.978 49.3265 184.779 49.8295C184.579 50.3276 184.296 50.7598 183.927 51.1246C183.562 51.4893 183.13 51.7689 182.63 51.9633C182.133 52.161 181.59 52.2574 181.006 52.2574C180.42 52.2574 179.879 52.161 179.382 51.9633C178.886 51.7689 178.453 51.4861 178.085 51.1214C177.714 50.755 177.428 50.3228 177.23 49.8247C177.032 49.3249 176.934 48.785 176.934 48.2018C176.934 47.6603 177.043 47.1573 177.262 46.693C177.483 46.2302 177.784 45.8269 178.167 45.4862C178.548 45.1456 178.984 44.8821 179.478 44.6989C179.973 44.5157 180.481 44.4209 181.006 44.4209ZM181.006 46.2736C180.636 46.2736 180.29 46.3668 179.969 46.5451C179.651 46.7267 179.395 46.9661 179.208 47.265C179.02 47.5638 178.925 47.8804 178.925 48.2162C178.925 48.6292 179.017 49.0036 179.205 49.3378C179.392 49.672 179.646 49.9339 179.963 50.1235C180.282 50.3115 180.629 50.4063 181.006 50.4063C181.384 50.4063 181.732 50.3115 182.05 50.1219C182.369 49.9323 182.619 49.6688 182.807 49.3362C182.994 49.002 183.084 48.6292 183.084 48.2162C183.084 47.8804 182.99 47.5638 182.805 47.265C182.617 46.9661 182.363 46.7267 182.042 46.5451C181.724 46.3668 181.379 46.2736 181.006 46.2736ZM186.691 52.0164V44.6683H189.406C189.914 44.6683 190.394 44.7615 190.851 44.9479C191.307 45.1343 191.706 45.3946 192.049 45.7272C192.393 46.0615 192.662 46.4519 192.855 46.9018C193.048 47.3534 193.146 47.8322 193.146 48.3399C193.146 49.0132 192.977 49.6302 192.639 50.1942C192.301 50.7582 191.846 51.2033 191.271 51.5279C190.697 51.8525 190.075 52.0164 189.406 52.0164H186.691ZM188.607 46.2848V50.3967H189.037C189.427 50.3967 189.784 50.326 190.104 50.1765C190.428 50.0287 190.681 49.7989 190.87 49.4904C191.062 49.1819 191.154 48.8011 191.154 48.3399C191.154 47.694 190.961 47.1911 190.574 46.8295C190.19 46.4664 189.681 46.2848 189.055 46.2848H188.607ZM199.235 44.6683H201.147V48.8011C201.147 49.1851 201.133 49.521 201.102 49.8102C201.071 50.0914 200.999 50.3742 200.886 50.6473C200.772 50.9253 200.601 51.1712 200.374 51.3913C200.173 51.5873 199.942 51.7464 199.676 51.8669C199.41 51.9874 199.129 52.0742 198.833 52.1272C198.535 52.1835 198.235 52.2108 197.933 52.2108C197.466 52.2108 197.014 52.1465 196.578 52.0148C196.145 51.8846 195.781 51.6757 195.493 51.3913C195.264 51.1712 195.094 50.9253 194.983 50.6522C194.868 50.3774 194.796 50.0962 194.767 49.8102C194.736 49.521 194.722 49.1851 194.722 48.8011V44.6683H196.636V48.536C196.636 48.9393 196.661 49.2799 196.713 49.5579C196.764 49.8343 196.887 50.0673 197.075 50.2537C197.265 50.4401 197.553 50.5333 197.933 50.5333C198.314 50.5333 198.602 50.4401 198.792 50.2537C198.982 50.0673 199.105 49.8343 199.154 49.5579C199.208 49.2799 199.235 48.9393 199.235 48.536V44.6683ZM208.348 44.8387V47.1316C208.155 46.8713 207.91 46.6737 207.612 46.5323C207.315 46.3925 206.998 46.3218 206.668 46.3218C206.288 46.3218 205.948 46.4118 205.647 46.5917C205.348 46.7749 205.116 47.0175 204.952 47.3293C204.788 47.641 204.706 47.9848 204.706 48.3592C204.706 48.7433 204.788 49.0887 204.955 49.3924C205.122 49.6961 205.357 49.9323 205.66 50.1026C205.964 50.2762 206.309 50.3581 206.697 50.3581C207.007 50.3581 207.308 50.289 207.603 50.1492C207.894 50.0094 208.145 49.8198 208.348 49.5788V51.8701C207.921 52.0003 207.599 52.0871 207.377 52.1369C207.157 52.1867 206.919 52.2108 206.658 52.2108C206.148 52.2108 205.655 52.116 205.182 51.9296C204.71 51.7432 204.282 51.4749 203.894 51.1294C203.107 50.4176 202.713 49.4904 202.713 48.3496C202.713 47.845 202.806 47.3614 202.995 46.8986C203.18 46.4326 203.449 46.0197 203.796 45.6582C204.042 45.4107 204.316 45.1986 204.617 45.0186C204.92 44.8419 205.243 44.7053 205.581 44.6121C205.921 44.5173 206.259 44.4707 206.6 44.4707C207.168 44.4707 207.751 44.5944 208.348 44.8387ZM213.183 46.2848V52.0164H211.269V46.2848H209.69V44.6683H214.765V46.2848H213.183ZM220.989 45.0749L220.227 46.5564C219.836 46.2318 219.411 46.0695 218.958 46.0695C218.758 46.0695 218.57 46.1241 218.398 46.2334C218.224 46.3427 218.137 46.4937 218.137 46.6833C218.137 46.8713 218.214 47.0143 218.369 47.1107C218.523 47.2071 218.727 47.2987 218.987 47.3855L219.476 47.5333C220.049 47.7004 220.495 47.9382 220.815 48.2484C221.132 48.5585 221.291 48.9907 221.291 49.5419C221.291 50.4304 221.039 51.0876 220.532 51.5182C219.984 51.9794 219.288 52.2108 218.439 52.2108C217.512 52.2108 216.65 51.9312 215.853 51.372L216.672 49.8311C217.248 50.3388 217.816 50.5927 218.372 50.5927C218.62 50.5927 218.834 50.53 219.02 50.4031C219.207 50.2778 219.299 50.093 219.299 49.8536C219.299 49.619 219.194 49.4487 218.982 49.3346C218.773 49.2237 218.491 49.116 218.137 49.0132C217.675 48.8831 217.306 48.7497 217.029 48.6099C216.754 48.4733 216.537 48.2709 216.379 48.0089C216.223 47.7438 216.146 47.3871 216.146 46.9372C216.146 46.4471 216.252 46.0165 216.471 45.6453C216.685 45.2693 216.986 44.9801 217.374 44.776C217.76 44.5719 218.198 44.4707 218.686 44.4707C219.064 44.4707 219.458 44.5237 219.875 44.633C220.292 44.7423 220.664 44.8901 220.989 45.0749Z" fill="#324158"/>
</svg>
