<svg width="202" height="55" viewBox="0 0 202 55" fill="none" xmlns="http://www.w3.org/2000/svg">
<path d="M100.785 28.7417C95.742 28.7417 91.6226 32.8579 91.6226 37.8966C91.6226 42.9354 95.742 47.0515 100.785 47.0515C105.828 47.0515 109.947 42.9354 109.947 37.8966C109.947 32.8579 105.828 28.7417 100.785 28.7417ZM100.785 43.0773C97.8728 43.0773 95.4579 40.7353 95.4579 37.7547C95.4579 34.774 97.8017 32.432 100.785 32.432C103.697 32.432 106.112 34.774 106.112 37.7547C106.112 40.7353 103.697 43.0773 100.785 43.0773Z" fill="#292F70"/>
<path d="M100.785 48.0456C95.2446 47.9747 90.7701 43.5037 90.8411 37.9681C90.9121 32.4326 95.3867 27.9616 100.927 28.0326C106.396 28.1035 110.87 32.5745 110.87 38.0391C110.87 43.5746 106.396 48.0456 100.856 48.0456M100.856 29.8068C96.31 29.8068 92.6167 33.4971 92.6167 38.0391C92.6167 42.5811 96.31 46.2714 100.856 46.2714C105.401 46.2714 109.095 42.5811 109.095 38.0391C109.095 33.4971 105.401 29.8068 100.856 29.8068ZM100.856 44.1424C97.4464 44.1424 94.6764 41.3746 94.6764 37.9681C94.6764 34.5617 97.4464 31.7939 100.856 31.7939C104.265 31.7939 107.035 34.5617 107.035 37.9681C107.035 41.3746 104.265 44.1424 100.856 44.1424ZM100.856 33.4971C98.4408 33.4971 96.4521 35.4842 96.4521 37.8972C96.4521 40.3101 98.4408 42.2972 100.856 42.2972C103.27 42.2972 105.259 40.3101 105.259 37.8972C105.33 35.4842 103.341 33.4971 100.856 33.4971ZM63.3544 28.7423C58.5957 28.6003 54.6183 32.2197 54.2632 36.9746V53.865H58.0985V45.4908C62.147 48.5424 67.829 47.8327 70.9541 43.7875C74.0081 39.7423 73.2979 34.0649 69.2495 30.9423C67.5449 29.6648 65.4851 29.0261 63.4254 29.0971M63.3544 43.4327C60.4424 43.4327 58.0275 41.0907 58.0275 38.1101C58.0275 35.2004 60.3713 32.7874 63.3544 32.7874C66.3374 32.7874 68.6813 35.1294 68.6813 38.1101C68.6102 41.0907 66.2664 43.4327 63.3544 43.4327Z" fill="#292F70"/>
<path d="M58.9506 54.9998H53.4106V36.3352C53.6947 34.1352 54.7601 32.1481 56.3937 30.6577C58.3114 28.9545 60.7972 28.0319 63.3541 27.9609C68.8941 27.9609 73.3687 32.4319 73.3687 37.9675C73.3687 43.503 68.8941 48.045 63.3541 48.045C61.8626 48.045 60.3001 47.6901 58.9506 47.0514V54.9998ZM55.1152 53.3676H57.175V43.7869L58.5955 44.7804C62.3598 47.3353 67.4736 46.4127 70.0305 42.6514C72.5874 38.89 71.6641 33.7803 67.8998 31.2255C66.5503 30.3029 64.9877 29.8061 63.3541 29.8061C61.2234 29.8061 59.1637 30.5868 57.6011 32.0061C56.0386 33.2836 55.1863 35.1997 55.1152 37.1868V38.1094V53.3676ZM63.3541 44.2836C59.9449 44.1417 57.317 41.232 57.4591 37.8255C57.6011 34.419 60.5131 31.7932 63.9224 31.9352C67.1895 32.0771 69.7464 34.7029 69.8174 37.9675C69.8174 41.3739 67.0475 44.1417 63.6383 44.1417M63.6383 33.4965C61.2234 33.4965 59.2347 35.4836 59.2347 37.8965C59.2347 40.3094 61.2234 42.2965 63.6383 42.2965C66.0531 42.2965 68.0418 40.3094 68.0418 37.8965C68.0418 35.4836 66.0531 33.4965 63.6383 33.4965ZM172.875 38.0384C172.875 43.0772 176.994 47.1933 182.037 47.1224C183.955 47.1224 185.73 46.5546 187.293 45.4191V47.1224H191.128V38.961V37.3287C190.489 32.29 185.872 28.8126 180.901 29.4513C176.497 30.019 173.088 33.7094 172.946 38.1804M176.71 38.1804C176.71 35.2707 179.054 32.8577 182.037 32.8577C184.949 32.8577 187.364 35.1997 187.364 38.1804C187.364 41.161 185.02 43.503 182.037 43.503C179.125 43.574 176.71 41.232 176.639 38.3223V37.9675" fill="#292F70"/>
<path d="M192.052 48.0458H186.441V47.0523C185.092 47.691 183.6 48.0458 182.038 48.0458C176.498 48.0458 172.023 43.5748 172.023 38.0393C172.023 32.5038 176.498 28.0328 182.038 28.0328C187.152 28.0328 191.413 31.8651 191.981 36.9038V48.0458H192.052ZM188.217 46.2716H190.277V38.749V37.2587C189.851 32.7167 185.802 29.4522 181.328 29.878C176.782 30.3038 173.515 34.349 173.941 38.82C174.367 43.3619 178.416 46.6265 182.89 46.2007C184.311 46.0587 185.66 45.562 186.797 44.7103L188.217 43.7168V46.2716ZM181.967 44.1426C178.558 44.1426 175.788 41.3748 175.788 37.9683C175.788 34.5619 178.558 31.7941 181.967 31.7941C185.376 31.7941 188.146 34.5619 188.146 37.9683C188.217 41.3748 185.447 44.1426 181.967 44.1426ZM181.967 33.4973C179.552 33.4973 177.563 35.4845 177.563 37.8974C177.563 40.3103 179.552 42.2974 181.967 42.2974C184.382 42.2974 186.37 40.3103 186.37 37.8974C186.441 35.4845 184.453 33.4973 181.967 33.4973ZM161.156 47.1942C165.844 47.1942 169.822 43.6458 170.248 38.9619V22.0005H166.412V30.5876C162.364 27.536 156.682 28.2457 153.557 32.2909C150.503 36.3361 151.213 42.0135 155.261 45.1361C156.966 46.4136 159.026 47.0523 161.085 46.9813M161.156 32.6457C164.068 32.6457 166.483 34.9877 166.483 37.9683C166.483 40.878 164.14 43.291 161.156 43.291C158.173 43.291 155.83 40.949 155.83 37.9683C155.901 35.1296 158.244 32.8586 161.014 32.8586" fill="#292F70"/>
<path d="M161.156 48.0454C155.616 48.0454 151.141 43.5744 151.141 38.0389C151.141 32.5034 155.616 28.0324 161.156 28.0324C162.718 28.0324 164.21 28.3872 165.63 29.0259V21.1484H171.241V39.7421C170.389 44.497 166.198 47.9744 161.369 47.9744M161.227 29.7356C156.681 29.7356 153.059 33.4259 153.059 37.9679C153.059 42.5099 156.752 46.1293 161.298 46.1293C165.488 46.1293 169.039 42.9357 169.394 38.7486V22.9226H167.335V32.3614L165.914 31.3679C164.494 30.3743 162.86 29.8775 161.156 29.8775M161.227 44.3551C157.817 44.3551 155.047 41.5873 155.047 38.1808C155.047 34.7743 157.817 32.0066 161.227 32.0066C164.636 32.0066 167.406 34.7743 167.406 38.1808C167.406 41.5873 164.636 44.3551 161.227 44.3551ZM161.227 33.7098C158.812 33.7098 156.823 35.6969 156.823 38.1099C156.823 40.5228 158.812 42.5099 161.227 42.5099C163.641 42.5099 165.63 40.5228 165.63 38.1099C165.63 35.6969 163.641 33.7098 161.227 33.7098ZM126.069 28.884L119.961 42.9357L113.711 28.742H109.875L117.972 47.2648H121.879L129.905 28.884H126.069Z" fill="#292F70"/>
<path d="M122.447 48.1163H117.404L108.526 27.8193H114.279L119.89 40.6646L125.501 27.8903H131.467L122.447 48.1163ZM118.541 46.3421H121.24L128.555 29.7355H126.638L119.89 45.1356L113.143 29.5935H111.225L118.541 46.3421Z" fill="#292F70"/>
<path fill-rule="evenodd" clip-rule="evenodd" d="M88.5678 33.0715C87.2894 29.5231 83.312 27.6779 79.7607 28.9553C77.2748 29.8779 75.4992 32.0779 75.2861 34.7037V47.4071H79.4056V36.9747C79.4056 35.2715 79.4056 33.4973 81.3943 32.8586C83.383 32.2199 84.9455 33.7102 85.1586 35.9102H89.2781C89.207 34.9876 89.065 34.065 88.7809 33.1424" fill="#292F70"/>
<path d="M79.1928 48.329H74.292V47.4774V42.5096V39.1741V38.4644C74.221 37.187 74.221 35.9806 74.292 34.7031C74.7182 30.445 78.4825 27.2515 82.744 27.6773C85.7981 27.9611 88.426 30.0192 89.4204 32.9289C89.7045 33.9225 89.8465 34.916 89.9886 35.9806V36.9031H84.0935V36.1225C84.0935 35.2709 83.7384 34.4902 83.0991 33.9225C82.602 33.6386 82.0338 33.6386 81.4656 33.9225C80.2581 34.3483 80.1161 35.1999 80.1161 37.116V36.9031V48.1871L79.1928 48.329ZM76.0677 46.5548H78.3405V36.9031C78.3405 35.1999 78.3405 32.787 80.8974 32.0063C81.8917 31.5805 83.0281 31.7225 83.9514 32.2192C84.8748 32.858 85.514 33.8515 85.656 34.916H88.1419C88.0709 34.3483 87.9288 33.7805 87.7868 33.2838C86.6504 30.1612 83.1702 28.5289 80.0451 29.7353C77.9143 30.516 76.3518 32.4321 76.1387 34.7031C76.0677 35.9096 76.0677 37.116 76.1387 38.2515V46.5548M144.465 40.4516C146.738 40.4516 148.655 38.8193 149.081 36.6193C149.508 34.3483 148.584 32.0063 146.667 30.587C142.831 27.8902 137.717 27.8902 133.953 30.587C130.331 33.4257 129.194 38.4644 131.396 42.5096C133.811 47.1226 137.575 47.5484 142.192 47.5484H148.655V43.4322H138.996C136.581 43.1483 134.805 41.0193 134.876 38.5354C134.308 36.0515 135.8 33.5676 138.286 32.9289C138.357 32.9289 138.428 32.9289 138.428 32.858C140.345 32.4321 143.612 32.1483 144.039 34.6322C144.465 37.116 141.553 36.6902 140.487 36.6902H138.286V40.3096H144.465" fill="#292F70"/>
<path d="M149.508 48.3297H142.263C137.647 48.3297 133.385 47.9039 130.757 42.8651C128.414 38.4651 129.55 33.0005 133.527 29.8779C137.647 26.8973 143.258 26.8973 147.377 29.8779C149.508 31.4392 150.502 34.136 150.076 36.7618C149.579 39.3877 147.306 41.3038 144.678 41.3748H137.505V35.9102H140.701C141.269 35.9102 142.761 35.9102 143.187 35.4844C143.613 35.0586 143.187 35.4844 143.187 34.9167C143.116 34.5618 142.974 34.207 142.619 33.9941C141.269 33.4973 139.849 33.4973 138.499 33.9941C136.581 34.4199 135.303 36.2651 135.587 38.2522C135.445 40.3812 137.008 42.1554 139.138 42.3683C141.127 42.5812 146.951 42.3683 148.656 42.3683H149.65L149.508 48.3297ZM140.488 29.3811C138.357 29.3102 136.297 29.9489 134.593 31.2263C131.255 33.7812 130.331 38.3231 132.32 42.0135C134.522 46.1297 137.789 46.5555 142.334 46.5555H147.945V44.1425H138.996C136.013 43.9296 133.811 41.3748 133.882 38.3941C133.456 35.4134 135.516 32.7167 138.428 32.2199C140.204 31.6521 142.121 31.7941 143.755 32.6457C144.465 33.1425 144.891 33.8521 145.033 34.7038C145.175 35.4134 145.033 36.1941 144.536 36.7618C143.4 37.6844 141.908 38.0393 140.417 37.7554H138.996V39.7425H144.181C146.028 39.6715 147.59 38.3941 148.016 36.5489C148.372 34.5618 147.59 32.5037 145.957 31.3683C144.323 30.0908 142.334 29.4521 140.275 29.5941M198.515 38.607V22.6392H194.396V40.949C194.325 43.4329 195.603 45.7038 197.734 46.9103C198.515 47.3361 199.439 47.691 200.291 47.9039V43.3619C198.515 42.3683 198.373 42.2264 198.373 38.4651" fill="#292F70"/>
<path d="M201.214 48.9681H200.22C199.225 48.7552 198.231 48.4004 197.308 47.8326C194.964 46.4133 193.543 43.8584 193.614 41.0906V32.2196V21.7163H199.296V38.5358C199.296 41.8713 199.296 41.8713 200.788 42.6519L201.214 42.8649V48.9681ZM195.39 33.0712V40.9487C195.319 43.0778 196.455 45.1358 198.302 46.2004C198.657 46.4133 199.083 46.6262 199.509 46.7681V43.9294C197.734 42.8649 197.592 42.1552 197.592 38.5358V33.0712V23.4905H195.39V33.2841" fill="#292F70"/>
<path d="M0 0H47.4447V47.4068H0V0Z" fill="#2A307B"/>
<path d="M41.834 33.71L32.8139 17.1744L34.5895 15.6131L27.9131 9.29688L25.6403 10.8582H22.4442L20.1004 9.29688L13.424 15.6131L14.9155 17.1744L6.25049 33.71L13.2109 29.3809L17.4014 33.0003L15.3417 41.2326L12.0745 44.1423L16.9753 43.3616L20.0293 35.0584L24.0067 38.4648L28.0552 35.0584L31.0382 43.3616L35.8679 44.1423L32.6718 41.3745L30.7541 32.8583L34.8736 29.3809L41.834 33.71Z" fill="white"/>
<path d="M28.481 25.1229L27.2025 20.6519H20.8103L19.6029 25.1229L21.7336 22.9938L23.9354 25.1229L24.0064 25.2648L24.1485 25.1229L26.2792 22.9938L28.481 25.1229ZM19.3188 13.2712L16.4067 15.6841L20.2421 19.3744L19.3188 13.2712ZM28.552 13.2002L31.5351 15.6131L27.7707 19.3035L28.552 13.2002Z" fill="#2A307B"/>
<path d="M27.1316 6.88335C27.1316 8.58658 25.7111 10.0059 24.0064 10.0059C22.3018 10.0059 20.8813 8.58658 20.8813 6.88335C20.8813 5.18011 22.3018 3.76074 24.0064 3.76074C25.7111 3.76074 27.1316 5.10914 27.1316 6.88335Z" fill="white"/>
</svg>
