<svg width="169" height="55" viewBox="0 0 169 55" fill="none" xmlns="http://www.w3.org/2000/svg">
<path d="M31.7772 6.72363H26.8877V11.6131H31.7772V6.72363Z" fill="#4E4E4E"/>
<path d="M31.7772 13.4443H26.8877V18.3338H31.7772V13.4443Z" fill="#4E4E4E"/>
<path d="M31.7772 20.1675H26.8877V25.0569H31.7772V20.1675Z" fill="#DC143C"/>
<path d="M25.0565 0H20.167V4.88947H25.0565V0Z" fill="#4E4E4E"/>
<path d="M25.0565 6.72363H20.167V11.6131H25.0565V6.72363Z" fill="#4E4E4E"/>
<path d="M25.0565 13.4443H20.167V18.3338H25.0565V13.4443Z" fill="#4E4E4E"/>
<path d="M25.0565 20.1675H20.167V25.0569H25.0565V20.1675Z" fill="#DC143C"/>
<path d="M25.0565 26.8906H20.167V31.7801H25.0565V26.8906Z" fill="#DC143C"/>
<path d="M18.3331 0H13.4436V4.88947H18.3331V0Z" fill="#58BCAF"/>
<path d="M18.3331 6.72363H13.4436V11.6131H18.3331V6.72363Z" fill="#58BCAF"/>
<path d="M18.3331 13.4443H13.4436V18.3338H18.3331V13.4443Z" fill="#58BCAF"/>
<path d="M18.3331 20.1675H13.4436V25.0569H18.3331V20.1675Z" fill="#DC143C"/>
<path d="M18.3331 26.8906H13.4436V31.7801H18.3331V26.8906Z" fill="#DC143C"/>
<path d="M11.6129 0H6.72339V4.88947H11.6129V0Z" fill="#58BCAF"/>
<path d="M11.6129 6.72363H6.72339V11.6131H11.6129V6.72363Z" fill="#58BCAF"/>
<path d="M11.6129 13.4443H6.72339V18.3338H11.6129V13.4443Z" fill="#58BCAF"/>
<path d="M4.88947 6.72363H0V11.6131H4.88947V6.72363Z" fill="#58BCAF"/>
<path d="M4.88947 13.4443H0V18.3338H4.88947V13.4443Z" fill="#58BCAF"/>
<path d="M11.6129 20.1675H6.72339V25.0569H11.6129V20.1675Z" fill="#DC143C"/>
<path d="M108.471 36.6668C110.917 36.3622 112.446 33.6113 112.446 30.5644V18.3335H102.673V31.7774C102.673 33.3066 102.061 33.6113 100.839 33.6113H98.7007V18.3335H88.9275V30.5557C88.9275 33.6113 90.451 36.3622 92.8943 36.6668C90.451 36.9715 88.9275 39.7224 88.9275 42.778V54.9945H98.7007V41.5563C98.7007 40.0271 99.3101 39.7224 100.535 39.7224H102.673V54.9973H112.446V42.778C112.446 39.7224 110.917 36.9715 108.471 36.6668Z" fill="black"/>
<path d="M158.277 18.3335V37.5924H156.138C154.916 37.5924 154.304 37.2877 154.304 35.7585V18.3335H144.531V37.5781C144.531 40.6336 146.362 43.6892 150.03 43.6892H158.28V45.8278C158.28 47.0494 157.975 47.6617 156.446 47.6617H146.365V54.9973H162.56C166.227 54.9973 168.061 51.9418 168.061 48.8862V18.3335H158.277Z" fill="black"/>
<path d="M122.22 18.3335C118.552 18.3335 116.718 21.3891 116.718 24.4446V54.9973H126.491V39.7224H130.458V54.9973H140.231V18.3335H122.22ZM130.469 33.6113H126.5V26.2785C126.5 24.7493 127.112 24.4532 128.334 24.4532H130.472L130.469 33.6113Z" fill="black"/>
<path d="M58.0556 18.3335H41.2515V54.9973H51.0247V45.2241H58.0556C61.7234 45.2241 63.5545 42.1686 63.5545 39.113V24.4532C63.5545 21.3891 61.7234 18.3335 58.0556 18.3335ZM55 37.2791C55 38.8055 54.3878 39.1101 53.1661 39.1101H51.0275V24.4504H53.169C54.3907 24.4504 55.0029 24.7551 55.0029 26.2843L55 37.2791Z" fill="black"/>
<path d="M77.6105 25.6663H84.6386V18.3335L67.8345 18.3421V55.0002H84.6386V47.6674L77.6105 47.6502V39.7224H83.7159V33.6113H77.6105V25.6663Z" fill="black"/>
</svg>
