<svg width="228" height="55" viewBox="0 0 228 55" fill="none" xmlns="http://www.w3.org/2000/svg">
<path d="M1.1377 50.2208V36.0347H2.65493V40.4347C3.52734 40.0933 4.55148 39.8278 5.57562 39.8278C8.30664 39.8278 9.86181 41.6105 9.86181 44.8347C9.86181 49.2346 7.43423 50.714 4.817 50.714C2.50321 50.7519 1.6308 50.3726 1.1377 50.2208ZM2.65493 41.6484V49.2346C3.14803 49.3484 3.717 49.5002 4.85493 49.5002C7.16872 49.5002 8.30664 47.5657 8.30664 45.214C8.30664 43.0519 7.81354 41.1174 5.3101 41.1174C4.39975 41.0795 3.37562 41.3829 2.65493 41.6484Z" fill="#231815"/>
<path d="M15.0587 40.0552H16.5759V41.4587C17.069 40.6621 18.0932 39.8276 19.5725 39.8276C20.1794 39.8276 20.5966 39.9414 20.7863 40.0173L20.5207 41.3069C20.1794 41.2311 19.8759 41.1552 19.269 41.1552C17.9794 41.1552 17.0311 42.0656 16.538 42.8242V50.5621H15.0208V40.0552H15.0587Z" fill="#231815"/>
<path d="M25.0347 48.6655V40.0552H26.5519V48.2862C26.5519 49.0828 26.8933 49.5 27.576 49.5C27.7278 49.5 27.8795 49.5 28.0312 49.4621L28.0691 50.6759C27.6898 50.7517 27.3105 50.7897 26.8933 50.7897C25.7554 50.7517 25.0347 50.069 25.0347 48.6655ZM25.0726 35.8828H26.5519V37.6656H25.0726V35.8828Z" fill="#231815"/>
<path d="M32.8101 40.0551H34.3273V41.2689C35.4273 40.4723 36.4514 39.7896 38.0825 39.7896C41.079 39.7896 41.2687 42.0275 41.2687 43.8102V50.5999H39.7894V44.1137C39.7894 42.293 39.4859 41.1551 37.7032 41.1551C36.3376 41.1551 35.2756 41.7999 34.3273 42.4447V50.5999H32.8101V40.0551Z" fill="#231815"/>
<path d="M47.1862 54.4312L47.4896 53.0657C48.4 53.3692 49.4621 53.6347 50.5621 53.6347C52.1172 53.6347 53.4448 53.1416 53.4448 50.8657V49.8037C52.6862 50.4106 52.0793 50.6761 50.8655 50.6761C48.8931 50.6761 46.3896 49.9175 46.3896 45.5175C46.3896 41.4209 48.5896 39.752 51.5862 39.752C52.5724 39.752 53.862 39.9416 54.9241 40.2071V51.2071C54.9241 53.7864 53.1793 55.0002 50.4483 55.0002C49.3103 55.0002 47.9827 54.7726 47.1862 54.4312ZM53.4069 48.514V41.383C53.1414 41.3071 52.4207 41.0795 51.4724 41.0795C48.7414 41.0795 47.869 42.9002 47.869 45.4037C47.869 48.2864 49.0827 49.4243 51.0172 49.4243C52.1931 49.4623 52.8379 48.9692 53.4069 48.514Z" fill="#231815"/>
<path d="M59.855 50.3347L60.1205 49.045C61.0308 49.3106 62.017 49.5002 62.9274 49.5002C64.4826 49.5002 65.4688 48.8933 65.4688 47.8692C65.4688 45.5175 60.1584 46.2002 60.1584 42.7106C60.1584 40.7761 61.7515 39.752 63.7239 39.752C64.5584 39.752 65.6205 39.9416 66.3791 40.2451L66.0377 41.4588C65.355 41.1933 64.4826 41.0037 63.7239 41.0037C62.2826 41.0037 61.6757 41.6864 61.6757 42.5589C61.6757 44.9864 66.9481 44.2657 66.9481 47.7554C66.9481 49.9933 64.7101 50.7899 62.8515 50.7899C61.8274 50.7899 60.6515 50.6002 59.855 50.3347Z" fill="#231815"/>
<path d="M78.593 50.3347L78.8585 49.045C79.7689 49.3106 80.7551 49.5002 81.6654 49.5002C83.2206 49.5002 84.2068 48.8933 84.2068 47.8692C84.2068 45.5175 78.8965 46.2002 78.8965 42.7106C78.8965 40.7761 80.4896 39.752 82.462 39.752C83.2965 39.752 84.3585 39.9416 85.1171 40.2451L84.7758 41.4588C84.093 41.1933 83.2206 41.0037 82.462 41.0037C81.0206 41.0037 80.4137 41.6864 80.4137 42.5589C80.4137 44.9864 85.6861 44.2657 85.6861 47.7554C85.6861 49.9933 83.4482 50.7899 81.5896 50.7899C80.5654 50.7899 79.3516 50.6002 78.593 50.3347Z" fill="#231815"/>
<path d="M90.5792 40.0552H92.0964V40.9276C93.0068 40.2828 93.8792 39.8276 95.1688 39.8276C97.7102 39.8276 99.2654 41.7242 99.2654 45.138C99.2654 49.3862 96.8378 50.7897 94.0688 50.7897C93.3861 50.7897 92.5516 50.6759 92.0585 50.6V54.8104H90.5413V40.0552H90.5792ZM97.7481 45.2138C97.7481 43.2794 97.1412 41.1173 94.8654 41.1173C93.6137 41.1173 92.6275 41.7621 92.0964 42.1035V49.3104C92.3999 49.3483 93.2723 49.538 94.0688 49.538C96.7619 49.5 97.7481 47.7173 97.7481 45.2138Z" fill="#231815"/>
<path d="M103.665 47.7554C103.665 45.1381 105.979 44.6071 107.686 44.5692L110.189 44.5313V43.1657C110.189 41.4968 109.393 41.0795 107.724 41.0795C106.586 41.0795 105.751 41.2692 104.879 41.6106L104.538 40.3968C105.334 40.0554 106.51 39.752 107.951 39.752C110.265 39.752 111.669 40.5864 111.669 42.6726V48.514C111.669 49.3106 112.314 49.4623 112.807 49.4623L112.731 50.6381C112.617 50.6381 112.427 50.6761 112.314 50.6761C111.403 50.6761 110.417 50.2968 110.303 49.3485C109.772 49.7657 108.596 50.7519 106.776 50.7519C104.917 50.7519 103.665 49.6899 103.665 47.7554ZM110.227 48.3243V45.5933L107.686 45.7071C106.055 45.745 105.145 46.5037 105.145 47.7175C105.145 48.9312 106.017 49.5002 107.155 49.5002C108.331 49.5002 109.431 48.8933 110.227 48.3243Z" fill="#231815"/>
<path d="M117.321 45.5175C117.321 41.7244 119.255 39.752 122.327 39.752C123.655 39.752 124.603 40.0933 125.134 40.3968L124.679 41.6106C124.262 41.4209 123.39 41.0795 122.365 41.0795C120.165 41.0795 118.914 42.483 118.914 45.4037C118.914 48.0209 119.862 49.4623 122.745 49.4623C123.655 49.4623 124.224 49.3106 124.869 49.1209L125.096 50.3347C124.452 50.5623 123.731 50.7519 122.555 50.7519C119.027 50.7899 117.321 49.1209 117.321 45.5175Z" fill="#231815"/>
<path d="M129.269 45.5175C129.269 41.4209 131.279 39.752 133.858 39.752C136.551 39.752 137.765 41.4968 137.765 45.0244V45.5933H130.824C130.862 48.8554 132.531 49.5002 134.541 49.5002C135.565 49.5002 136.362 49.3106 137.348 49.0071L137.613 50.2209C136.817 50.5623 135.641 50.7899 134.275 50.7899C131.203 50.7899 129.269 49.5381 129.269 45.5175ZM136.172 44.4554C136.172 42.3313 135.413 40.9657 133.706 40.9657C132.189 40.9657 131.013 42.1037 130.824 44.4554H136.172Z" fill="#231815"/>
<path d="M142.279 50.3347L142.545 49.045C143.455 49.3106 144.441 49.5002 145.351 49.5002C146.907 49.5002 147.893 48.8933 147.893 47.8692C147.893 45.5175 142.583 46.2002 142.583 42.7106C142.583 40.7761 144.176 39.752 146.148 39.752C146.982 39.752 148.045 39.9416 148.803 40.2451L148.462 41.4588C147.779 41.1933 146.907 41.0037 146.148 41.0037C144.707 41.0037 144.1 41.6864 144.1 42.5589C144.1 44.9864 149.372 44.2657 149.372 47.7554C149.372 49.9933 147.134 50.7899 145.276 50.7899C144.251 50.7899 143.038 50.6002 142.279 50.3347Z" fill="#231815"/>
<path d="M162.193 47.6413V41.3448H160.637V40.0551H162.193V37.8931H163.672V40.0551H166.972V41.3448H163.71V47.6034C163.71 49.0827 164.393 49.4999 165.606 49.4999C166.175 49.4999 166.934 49.3482 167.389 49.1965L167.655 50.4482C167.124 50.6379 166.137 50.8275 165.417 50.8275C163.444 50.7896 162.193 50.1068 162.193 47.6413Z" fill="#231815"/>
<path d="M171.144 45.4037C171.144 41.7623 173.117 39.752 176.037 39.752C179.034 39.752 180.627 41.7623 180.627 45.214C180.627 49.0071 178.579 50.7519 175.81 50.7519C172.927 50.7899 171.144 48.8554 171.144 45.4037ZM179.072 45.3278C179.072 43.3554 178.503 41.0037 175.924 41.0037C173.344 41.0037 172.699 43.3175 172.699 45.3278C172.699 47.4899 173.458 49.5381 175.924 49.5381C178.465 49.5381 179.072 47.414 179.072 45.3278Z" fill="#231815"/>
<path d="M193.031 48.6657V36.0347H194.548V48.2484C194.548 49.045 194.889 49.4622 195.572 49.4622C195.724 49.4622 195.875 49.4622 196.027 49.4243L196.103 50.6381C195.724 50.7139 195.344 50.7519 194.927 50.7519C193.751 50.7519 193.031 50.0691 193.031 48.6657Z" fill="#231815"/>
<path d="M200.807 48.6655V40.0552H202.324V48.2862C202.324 49.0828 202.665 49.5 203.348 49.5C203.5 49.5 203.651 49.5 203.803 49.4621L203.879 50.6759C203.5 50.7517 203.12 50.7897 202.703 50.7897C201.527 50.7517 200.807 50.069 200.807 48.6655ZM200.845 35.8828H202.324V37.6656H200.845V35.8828Z" fill="#231815"/>
<path d="M209.114 41.269H207.558V40.0173H209.114V39.2966C209.114 36.7173 210.631 35.769 212.527 35.769C213.248 35.769 213.741 35.8449 214.158 35.9966L213.893 37.2104C213.589 37.1346 213.286 37.0587 212.565 37.0587C211.238 37.0587 210.669 37.6656 210.669 39.2587V39.9794H212.945V41.2311H210.669V50.5242H209.151V41.269H209.114Z" fill="#231815"/>
<path d="M216.851 45.5175C216.851 41.4209 218.861 39.752 221.441 39.752C224.134 39.752 225.348 41.4968 225.348 45.0244V45.5933H218.406C218.444 48.8554 220.113 49.5002 222.123 49.5002C223.148 49.5002 223.944 49.3106 224.93 49.0071L225.196 50.2209C224.399 50.5623 223.223 50.7899 221.858 50.7899C218.748 50.7899 216.851 49.5381 216.851 45.5175ZM223.755 44.4554C223.755 42.3313 222.996 40.9657 221.289 40.9657C219.772 40.9657 218.596 42.1037 218.406 44.4554H223.755Z" fill="#231815"/>
<path d="M140.837 0.683105C141.293 0.683105 141.672 0.986553 141.786 1.44172L142.772 5.99344H127.827C127.296 5.99344 126.879 6.41068 126.879 6.94171V10.1279H141.368V14.7934H126.841V17.9796C126.841 18.5107 127.258 18.9279 127.789 18.9279H142.772L141.786 23.4796C141.672 23.8968 141.293 24.2382 140.837 24.2382H118.344C116.22 24.2382 114.475 22.4934 114.475 20.3693V4.55206C114.475 2.42793 116.22 0.683105 118.344 0.683105H140.837Z" fill="#2778BD"/>
<path d="M74.5722 0.683105C75.0274 0.683105 75.4067 0.986553 75.4826 1.44172L76.4688 5.99344H61.5619C61.0309 5.99344 60.5757 6.41068 60.5757 6.94171V10.1279H75.0653V14.7934H60.5757V17.9796C60.5757 18.5107 60.9929 18.9279 61.5619 18.9279H76.5067L75.5205 23.4796C75.4446 23.8968 75.0653 24.2382 74.6101 24.2382H52.0792C49.955 24.2382 48.2102 22.4934 48.2102 20.3693V4.55206C48.2102 2.42793 49.955 0.683105 52.0792 0.683105H74.5722Z" fill="#2778BD"/>
<path d="M204.903 5.80378L201.11 14.7934H208.999L204.903 5.80378ZM202.324 0.683105H214.537C214.955 0.683105 215.258 0.948619 215.448 1.29L226.144 24.2762H213.286L211.086 19.4589H199.137L197.089 24.2762H191.589L201.413 1.29C201.565 0.948619 201.906 0.683105 202.324 0.683105Z" fill="#2778BD"/>
<path d="M44.1516 0.683105H31.7861V24.2382H44.1516V0.683105Z" fill="#2778BD"/>
<path d="M27.9172 1.36552L27.2344 6.22067C24.3896 5.72757 21.2034 5.42413 17.7896 5.42413C12.4034 5.42413 11.1517 5.91723 11.1517 7.66205C11.1517 8.83791 12.1 9.40687 13.6931 9.5586L21.1275 10.2034C25.4517 10.5827 28.9792 12.5931 28.9792 17.0689C28.9792 21.3931 25.5655 23.5172 23.4034 24.0103C21.6206 24.4275 18.6241 24.7689 14.0344 24.7689C9.17929 24.7689 4.1724 24.3137 0.417237 23.5172L1.1 18.662C3.94482 19.1551 7.81377 19.4586 11.1896 19.4586C16.2344 19.4586 18.2448 19.1931 18.2448 16.9931C18.2448 15.7034 17.1069 15.2103 15.5517 15.0586L7.51033 14.3379C3.22413 13.9586 0 11.531 0 7.62412C0 2.04827 4.70344 0 14.7172 0C19.6482 0.113793 24.162 0.568967 27.9172 1.36552Z" fill="#2778BD"/>
<path d="M110.834 10.166V23.2521C106.851 24.1245 101.276 24.8452 95.4721 24.8452C80.7549 24.8452 78.5549 19.2315 78.5549 12.4418C78.5549 7.05562 80.6411 0.114258 95.4721 0.114258C100.327 0.114258 105.334 0.56943 109.089 1.36598L108.407 6.22114C105.562 5.72803 102.262 5.42459 98.848 5.42459C98.848 5.42459 90.3894 4.7039 90.3894 12.5935C90.3894 19.6487 94.5239 20.028 96.4963 20.028C97.4066 20.028 98.5066 19.8763 99.4549 19.7625V14.0349H96.4963V10.166H110.834Z" fill="#2778BD"/>
<path d="M189.655 0.683105H177.289V24.2382H189.655V0.683105Z" fill="#2778BD"/>
<path d="M173.231 0.683105V22.7589C173.231 23.5934 172.51 24.2762 171.676 24.2762H158.703L151.003 8.1555V24.2762H145.807V2.23827C145.807 1.40379 146.489 0.683105 147.362 0.683105H160.372L168.034 16.7658V0.683105H173.231Z" fill="#2778BD"/>
<path d="M227.662 3.26248C227.662 4.81765 226.41 6.06937 224.855 6.06937C223.3 6.06937 222.048 4.81765 222.048 3.26248C222.048 1.70731 223.3 0.493516 224.893 0.493516C226.448 0.455585 227.662 1.70731 227.662 3.26248ZM223.11 1.74524C222.769 2.16248 222.541 2.69351 222.541 3.22454C222.541 4.55213 223.565 5.57626 224.893 5.57626C226.182 5.57626 227.244 4.5142 227.244 3.22454C227.244 1.93489 226.182 0.872825 224.931 0.872825C224.172 0.910756 223.565 1.2142 223.11 1.74524ZM226.031 4.8935H225.462L224.627 3.67971V4.8935H224.172V1.66937H224.703C225.044 1.66937 225.234 1.7073 225.424 1.85903C225.651 2.01075 225.765 2.27627 225.765 2.61765C225.765 3.11075 225.5 3.4142 225.006 3.49006L226.031 4.8935ZM224.779 3.03489C225.12 3.03489 225.31 2.88317 225.31 2.57972C225.31 2.27627 225.12 2.12455 224.741 2.12455H224.627V3.07282H224.779V3.03489Z" fill="#231815"/>
</svg>
