<svg width="25" height="30" viewBox="0 0 25 30" fill="none" xmlns="http://www.w3.org/2000/svg">
<path d="M0.0150329 5.28003C0.0150329 6.05933 0.01099 6.81396 0.00712283 7.54357C-0.0204748 12.716 -0.042272 16.8014 1.46499 20.3379C2.25683 22.1958 3.44505 23.8375 5.09781 25.3569C6.81267 26.9336 9.07767 28.4272 12.0221 29.9237C12.1208 29.9739 12.23 30 12.3407 30C12.4514 30 12.5606 29.9739 12.6593 29.9237C15.6037 28.4274 17.8687 26.9336 19.5836 25.3569C21.2359 23.8375 22.4243 22.1958 23.2164 20.3379C24.7237 16.8015 24.7019 12.716 24.6743 7.54357C24.6704 6.81396 24.6664 6.05951 24.6664 5.28003C24.6664 5.13889 24.6239 5.00101 24.5445 4.88434C24.4651 4.76766 24.3524 4.67759 24.2211 4.62584L12.5983 0.0489017C12.4327 -0.0163006 12.2486 -0.0163006 12.083 0.0489017L0.460521 4.62584C0.329176 4.67756 0.216441 4.76762 0.136987 4.8843C0.0575323 5.00098 0.0150377 5.13887 0.0150329 5.28003ZM1.41331 7.55107C1.4164 6.9697 1.4189 6.37236 1.42081 5.75904L12.3405 1.45896L23.2601 5.75904C23.2613 6.37283 23.2638 6.97017 23.2676 7.55107C23.3216 17.6828 23.349 22.8164 12.3405 28.5068C1.33193 22.8164 1.35935 17.6828 1.41331 7.55107ZM6.98904 15.041C6.86993 14.9002 6.81092 14.7182 6.82474 14.5342C6.83857 14.3503 6.92411 14.1792 7.06294 14.0577C7.20176 13.9363 7.38275 13.8742 7.56688 13.885C7.75102 13.8958 7.92356 13.9784 8.0473 14.1152L11.0421 17.5379L18.0143 10.9383C18.1497 10.8101 18.3305 10.7409 18.5169 10.746C18.7033 10.7511 18.8801 10.8301 19.0083 10.9655C19.1365 11.1009 19.2057 11.2817 19.2005 11.4681C19.1954 11.6545 19.1165 11.8313 18.9811 11.9595L11.4778 19.0617C11.3473 19.1853 11.1743 19.2542 10.9945 19.2542C10.9836 19.2542 10.9725 19.2542 10.9615 19.2534C10.8669 19.249 10.7743 19.2255 10.6891 19.1843C10.6038 19.1432 10.5278 19.0853 10.4655 19.0141L6.98904 15.041Z" fill="#07689F"/>
</svg>
