<svg width="31" height="30" viewBox="0 0 31 30" fill="none" xmlns="http://www.w3.org/2000/svg">
<path d="M29.0095 16.9383C29.8632 16.0331 30.3378 14.8354 30.336 13.5912V10.5883C30.336 10.4323 30.274 10.2827 30.1637 10.1723C30.0534 10.062 29.9038 10 29.7478 10H17.9831C17.827 10 17.6774 10.062 17.5671 10.1723C17.4568 10.2827 17.3948 10.4323 17.3948 10.5883V13.5912C17.393 14.8354 17.8676 16.0331 18.7213 16.9383L21.4683 19.8794C21.497 19.9187 21.5125 19.9661 21.5125 20.0147C21.5125 20.0634 21.497 20.1108 21.4683 20.15L18.7213 23.0912C17.8746 23.989 17.4004 25.1748 17.3948 26.4089V29.4118C17.3948 29.5678 17.4568 29.7174 17.5671 29.8277C17.6774 29.9381 17.827 30 17.9831 30H29.7478C29.9038 30 30.0534 29.9381 30.1637 29.8277C30.274 29.7174 30.336 29.5678 30.336 29.4118V26.4089C30.3378 25.1646 29.8632 23.967 29.0095 23.0618L26.2625 20.1206C26.2338 20.0813 26.2183 20.034 26.2183 19.9853C26.2183 19.9367 26.2338 19.8893 26.2625 19.85L29.0095 16.9383ZM18.5713 28.8236V26.4883L29.1595 26.4706V28.8236H18.5713ZM25.3625 20.8824L25.3889 20.9118L28.1536 23.853C28.5348 24.2599 28.8193 24.7474 28.986 25.2794L18.7389 25.2971C18.9038 24.7578 19.1906 24.2636 19.5772 23.853L22.3419 20.9118L22.3683 20.8824C22.5758 20.6306 22.6893 20.3145 22.6893 19.9883C22.6893 19.662 22.5758 19.3459 22.3683 19.0942L22.3419 19.0647L19.5772 16.1236C18.9327 15.4377 18.5731 14.5324 18.5713 13.5912V11.1765H29.1595V13.5912C29.1599 14.5354 28.8002 15.4443 28.1536 16.1324L25.3889 19.0736L25.3625 19.103C25.155 19.3547 25.0415 19.6708 25.0415 19.9971C25.0415 20.3233 25.155 20.6394 25.3625 20.8912V20.8824ZM6.8066 14.7059C6.96236 14.7053 7.11149 14.6429 7.2213 14.5324L15.4566 6.29711C15.553 6.18458 15.6033 6.03983 15.5976 5.89178C15.5919 5.74374 15.5305 5.6033 15.4257 5.49854C15.321 5.39378 15.1805 5.33241 15.0325 5.32669C14.8845 5.32097 14.7397 5.37133 14.6272 5.4677L6.39189 13.703C6.31012 13.7852 6.25449 13.8898 6.232 14.0036C6.20951 14.1174 6.22115 14.2353 6.26547 14.3425C6.30979 14.4496 6.3848 14.5413 6.48108 14.606C6.57737 14.6707 6.69062 14.7054 6.8066 14.7059ZM10.336 7.05887C10.336 6.59351 10.198 6.13859 9.93946 5.75165C9.68092 5.36471 9.31344 5.06313 8.8835 4.88504C8.45355 4.70695 7.98046 4.66036 7.52403 4.75114C7.06761 4.84193 6.64835 5.06603 6.31929 5.39509C5.99022 5.72416 5.76613 6.14341 5.67534 6.59984C5.58455 7.05626 5.63115 7.52936 5.80923 7.9593C5.98732 8.38925 6.28891 8.75673 6.67584 9.01527C7.06278 9.27381 7.5177 9.41181 7.98307 9.41181C8.60711 9.41181 9.20558 9.16391 9.64685 8.72265C10.0881 8.28139 10.336 7.68291 10.336 7.05887ZM6.8066 7.05887C6.8066 6.82619 6.8756 6.59873 7.00487 6.40526C7.13414 6.21179 7.31788 6.061 7.53285 5.97196C7.74782 5.88291 7.98437 5.85961 8.21258 5.90501C8.4408 5.9504 8.65042 6.06245 8.81496 6.22698C8.97949 6.39152 9.09154 6.60114 9.13693 6.82936C9.18233 7.05757 9.15903 7.29412 9.06998 7.50909C8.98094 7.72406 8.83015 7.9078 8.63668 8.03707C8.44321 8.16634 8.21575 8.23534 7.98307 8.23534C7.67105 8.23534 7.37181 8.11139 7.15118 7.89076C6.93055 7.67013 6.8066 7.37089 6.8066 7.05887ZM13.8654 15.2942C14.3308 15.2942 14.7857 15.1562 15.1726 14.8976C15.5596 14.6391 15.8612 14.2716 16.0392 13.8417C16.2173 13.4117 16.2639 12.9386 16.1731 12.4822C16.0824 12.0258 15.8583 11.6065 15.5292 11.2774C15.2001 10.9484 14.7809 10.7243 14.3244 10.6335C13.868 10.5427 13.3949 10.5893 12.965 10.7674C12.535 10.9455 12.1676 11.2471 11.909 11.634C11.6505 12.0209 11.5125 12.4759 11.5125 12.9412C11.5125 13.5653 11.7604 14.1637 12.2016 14.605C12.6429 15.0463 13.2414 15.2942 13.8654 15.2942ZM13.8654 11.7648C14.0981 11.7648 14.3256 11.8337 14.519 11.963C14.7125 12.0923 14.8633 12.276 14.9523 12.491C15.0414 12.706 15.0647 12.9425 15.0193 13.1707C14.9739 13.399 14.8618 13.6086 14.6973 13.7731C14.5328 13.9376 14.3231 14.0497 14.0949 14.0951C13.8667 14.1405 13.6302 14.1172 13.4152 14.0281C13.2002 13.9391 13.0165 13.7883 12.8872 13.5948C12.7579 13.4014 12.6889 13.1739 12.6889 12.9412C12.6889 12.6292 12.8129 12.33 13.0335 12.1093C13.2542 11.8887 13.5534 11.7648 13.8654 11.7648Z" fill="#07689F"/>
<path d="M16.3739 16.9382C14.8232 18.1657 12.9017 18.8304 10.9239 18.8235C9.25541 18.8229 7.62126 18.3493 6.21106 17.4575C4.80085 16.5657 3.67241 15.2924 2.95664 13.7852C2.24087 12.278 1.96711 10.5987 2.16712 8.94226C2.36714 7.28577 3.03273 5.71995 4.08668 4.42645C5.14062 3.13296 6.53973 2.1648 8.12166 1.63432C9.7036 1.10383 11.4035 1.03275 13.0242 1.42933C14.6449 1.82591 16.12 2.67389 17.2782 3.8749C18.4365 5.0759 19.2304 6.58069 19.568 8.2147C19.5788 8.29454 19.606 8.3713 19.6477 8.44023C19.6894 8.50916 19.7448 8.56879 19.8105 8.61542C19.8762 8.66204 19.9508 8.69467 20.0297 8.71128C20.1085 8.72789 20.1899 8.72813 20.2688 8.71198C20.3478 8.69583 20.4226 8.66363 20.4885 8.61739C20.5545 8.57115 20.6103 8.51185 20.6524 8.44316C20.6945 8.37448 20.7221 8.29787 20.7334 8.2181C20.7447 8.13832 20.7394 8.05708 20.718 7.9794C20.3359 6.12718 19.4363 4.42129 18.1238 3.0597C16.8112 1.69811 15.1394 0.736652 13.3024 0.286892C11.4655 -0.162869 9.5386 -0.0824884 7.74547 0.518706C5.95233 1.1199 4.36644 2.21726 3.17183 3.68344C1.97722 5.14961 1.22287 6.9245 0.996327 8.80211C0.76978 10.6797 1.08032 12.5831 1.89192 14.2913C2.70351 15.9996 3.98289 17.4426 5.58157 18.4531C7.18025 19.4635 9.03269 19.9999 10.9239 20C13.1651 20.0081 15.3427 19.2553 17.1004 17.8647C17.2232 17.7683 17.3028 17.6272 17.3216 17.4722C17.3403 17.3172 17.2967 17.1611 17.2004 17.0382C17.104 16.9154 16.9629 16.8358 16.8079 16.817C16.6529 16.7983 16.4968 16.8419 16.3739 16.9382Z" fill="#07689F"/>
</svg>
