<svg width="35" height="30" viewBox="0 0 35 30" fill="none" xmlns="http://www.w3.org/2000/svg">
<path fill-rule="evenodd" clip-rule="evenodd" d="M4.18459 16.8534C4.10618 16.8534 4.02952 16.8302 3.9643 16.7867C3.89908 16.7432 3.84824 16.6813 3.8182 16.6089C3.78817 16.5365 3.78029 16.4568 3.79557 16.3799C3.81085 16.303 3.8486 16.2323 3.90404 16.1769C3.95948 16.1214 4.03012 16.0837 4.10702 16.0684C4.18393 16.0531 4.26363 16.061 4.33606 16.091C4.40848 16.1211 4.47037 16.1719 4.51389 16.2371C4.5574 16.3024 4.5806 16.379 4.58053 16.4574C4.58027 16.5624 4.53847 16.6629 4.46427 16.7371C4.39007 16.8113 4.28952 16.8531 4.18459 16.8534ZM4.18459 14.9907C3.89456 14.9906 3.61103 15.0766 3.36986 15.2377C3.12868 15.3987 2.94068 15.6277 2.82964 15.8957C2.7186 16.1636 2.68951 16.4584 2.74603 16.7429C2.80256 17.0273 2.94216 17.2887 3.1472 17.4938C3.35224 17.6989 3.61349 17.8386 3.89793 17.8953C4.18237 17.9519 4.47722 17.9229 4.74519 17.812C5.01317 17.7011 5.24223 17.5132 5.40341 17.2721C5.56459 17.0309 5.65066 16.7474 5.65072 16.4574C5.65023 16.0687 5.49562 15.696 5.22079 15.421C4.94596 15.1461 4.57333 14.9913 4.18459 14.9907ZM1.75152 14.3799V28.8207H10.4396V14.3799H1.75152ZM12.2669 14.9901C12.2868 14.9819 12.3064 14.9727 12.3256 14.9626C16.7059 12.5847 18.8238 7.95728 18.62 1.20799C18.618 1.18912 18.6207 1.17005 18.6278 1.15245C18.6349 1.13485 18.6462 1.11926 18.6607 1.10706C18.6734 1.09299 18.6895 1.08232 18.7074 1.07603C18.7253 1.06975 18.7445 1.06805 18.7632 1.07108C21.3462 1.26578 21.8084 2.56311 21.9273 3.52943C22.1495 6.88501 22.033 9.60868 21.5821 11.625C21.564 11.7062 21.565 11.7904 21.5851 11.8711C21.6051 11.9518 21.6437 12.0267 21.6978 12.0899C21.7519 12.1531 21.82 12.2028 21.8966 12.235C21.9733 12.2673 22.0564 12.2813 22.1394 12.2758C25.0914 12.0812 28.4076 11.8793 30.4374 11.9373C32.3377 12.3368 33.4921 12.9716 33.7776 13.7735C34.0284 14.4771 33.67 15.4302 32.7135 16.6073C32.6256 16.7151 32.5833 16.8529 32.5954 16.9914C32.6075 17.1298 32.6732 17.2582 32.7784 17.349C33.0382 17.5742 33.2356 17.8625 33.3516 18.1861C33.4675 18.5098 33.4981 18.8578 33.4404 19.1967C33.3827 19.5356 33.2385 19.8539 33.022 20.1209C32.8054 20.3879 32.5237 20.5946 32.2039 20.721C32.0765 20.7713 31.9731 20.8685 31.9152 20.9927C31.8574 21.1169 31.8493 21.2586 31.8928 21.3886C32.2799 22.5471 32.3187 23.4381 32.0086 24.0365C31.7871 24.464 31.3779 24.7621 30.7579 24.9489C30.6892 24.9698 30.6253 25.0042 30.5701 25.0502C30.5149 25.0962 30.4695 25.1529 30.4367 25.2168C30.4038 25.2807 30.3841 25.3505 30.3788 25.4222C30.3734 25.4938 30.3825 25.5658 30.4055 25.6339C30.6087 26.2337 30.5833 26.8874 30.3344 27.4698C30.0855 28.0521 29.6305 28.5221 29.0565 28.7898L14.4848 28.9289L11.5097 27.8944V15.2888L12.2669 14.9901ZM1.21646 29.8908H10.9747C11.1166 29.8908 11.2527 29.8345 11.353 29.7341C11.4534 29.6338 11.5097 29.4977 11.5097 29.3558V29.0273L14.2211 29.9704C14.2777 29.99 14.3372 30 14.3971 30H14.4015L29.176 29.8595C29.2449 29.859 29.3131 29.8449 29.3766 29.8182C30.1432 29.4959 30.7768 28.9214 31.1723 28.1899C31.5678 27.4583 31.7016 26.6136 31.5516 25.7957C32.1977 25.5108 32.6697 25.0861 32.9587 24.529C33.36 23.7551 33.3881 22.736 33.0442 21.4961C33.4239 21.2692 33.7501 20.9629 34.0004 20.5981C34.2507 20.2334 34.4192 19.8188 34.4943 19.3829C34.5694 18.9469 34.5494 18.4999 34.4356 18.0724C34.3218 17.6449 34.1169 17.2471 33.835 16.9062C34.8178 15.5752 35.1374 14.4021 34.7862 13.4149C34.3543 12.2019 32.9876 11.3724 30.6088 10.8801C30.5786 10.8738 30.5478 10.8702 30.517 10.8694C28.6022 10.8103 25.5792 10.9804 22.7646 11.1621C23.1234 9.13381 23.2 6.54203 22.994 3.44382C22.9934 3.43466 22.9928 3.42516 22.9915 3.41573C22.8202 1.98905 21.962 0.238791 18.844 0.00336337C18.6757 -0.00924219 18.5066 0.0136737 18.3476 0.0706251C18.1887 0.127577 18.0435 0.217292 17.9215 0.333955C17.7995 0.450618 17.7034 0.591623 17.6393 0.747829C17.5753 0.904034 17.5448 1.07195 17.5499 1.2407C17.7404 7.53765 15.8203 11.8331 11.8425 14.0065L11.5097 14.1384V13.845C11.5096 13.7031 11.4532 13.5671 11.3529 13.4667C11.2526 13.3664 11.1165 13.31 10.9747 13.3099H1.21646C1.07455 13.3099 0.938456 13.3663 0.838113 13.4666C0.737769 13.567 0.681396 13.7031 0.681396 13.845V29.3558C0.681396 29.4977 0.737769 29.6338 0.838113 29.7341C0.938456 29.8345 1.07455 29.8908 1.21646 29.8908Z" fill="#07689F"/>
</svg>
