<svg width="20" height="20" viewBox="0 0 20 20" fill="none" xmlns="http://www.w3.org/2000/svg">
<path d="M14.597 20.0001C17.581 20.0001 20.0001 17.581 20.0001 14.597C20.0001 11.6129 17.581 9.19385 14.597 9.19385C11.6129 9.19385 9.19385 11.6129 9.19385 14.597C9.19385 17.581 11.6129 20.0001 14.597 20.0001Z" fill="#97CF26"/>
<path d="M4.44034 17.1119C5.82935 17.1119 6.95538 15.9858 6.95538 14.5968C6.95538 13.2078 5.82935 12.0818 4.44034 12.0818C3.05132 12.0818 1.92529 13.2078 1.92529 14.5968C1.92529 15.9858 3.05132 17.1119 4.44034 17.1119Z" fill="#A169F7"/>
<path d="M14.5969 7.91837C16.5176 7.91837 18.0746 6.36133 18.0746 4.44063C18.0746 2.51993 16.5176 0.962891 14.5969 0.962891C12.6762 0.962891 11.1191 2.51993 11.1191 4.44063C11.1191 6.36133 12.6762 7.91837 14.5969 7.91837Z" fill="#FF6163"/>
<path d="M4.44043 8.88087C6.89282 8.88087 8.88087 6.89282 8.88087 4.44043C8.88087 1.98805 6.89282 0 4.44043 0C1.98805 0 0 1.98805 0 4.44043C0 6.89282 1.98805 8.88087 4.44043 8.88087Z" fill="#00AAFF"/>
</svg>
