<svg width="96" height="15" viewBox="0 0 96 15" fill="none" xmlns="http://www.w3.org/2000/svg">
<path fill-rule="evenodd" clip-rule="evenodd" d="M7.81982 12.2363L3.55945 14.8383C3.45322 14.9028 3.33024 14.9343 3.20608 14.9288C3.08193 14.9233 2.96221 14.8811 2.8621 14.8074C2.762 14.7338 2.68602 14.6321 2.64382 14.5152C2.60161 14.3983 2.59507 14.2715 2.62504 14.1509L3.86002 9.23187L0.27922 6.44433C0.179277 6.36705 0.104998 6.26139 0.0661065 6.14119C0.0272155 6.02099 0.0255253 5.89184 0.0612573 5.77067C0.0969893 5.64949 0.168478 5.54192 0.266365 5.46205C0.364251 5.38218 0.483973 5.33373 0.609857 5.32304L5.29627 4.93752L7.25133 0.380487C7.2997 0.267462 7.38022 0.171142 7.48288 0.103496C7.58553 0.0358506 7.7058 -0.000138828 7.82874 4.0245e-07C7.95168 0.000139633 8.07187 0.0364014 8.17438 0.10428C8.27688 0.172158 8.35718 0.26866 8.40529 0.381794L10.3434 4.93752L15.0611 5.32435C15.1869 5.33486 15.3066 5.38307 15.4045 5.46268C15.5025 5.54228 15.5741 5.64959 15.6101 5.77056C15.6461 5.89154 15.6448 6.02056 15.6063 6.14076C15.5678 6.26097 15.494 6.36676 15.3944 6.44433L11.7979 9.23187L13.0303 14.1535C13.0606 14.2742 13.0543 14.4012 13.0123 14.5183C12.9702 14.6355 12.8942 14.7374 12.7941 14.8113C12.6939 14.8851 12.574 14.9275 12.4497 14.933C12.3254 14.9385 12.2022 14.9069 12.0959 14.8422L7.81982 12.235V12.2363Z" fill="#FFCC00"/>
<path fill-rule="evenodd" clip-rule="evenodd" d="M27.9829 12.2363L23.7225 14.8383C23.6163 14.9028 23.4933 14.9343 23.3692 14.9288C23.245 14.9233 23.1253 14.8811 23.0252 14.8074C22.9251 14.7338 22.8491 14.6321 22.8069 14.5152C22.7647 14.3983 22.7582 14.2715 22.7881 14.1509L24.0231 9.23187L20.4423 6.44433C20.3424 6.36705 20.2681 6.26139 20.2292 6.14119C20.1903 6.02099 20.1886 5.89184 20.2243 5.77067C20.2601 5.64949 20.3316 5.54192 20.4295 5.46205C20.5273 5.38218 20.6471 5.33373 20.7729 5.32304L25.4594 4.93752L27.4144 0.380487C27.4628 0.267462 27.5433 0.171142 27.646 0.103496C27.7486 0.0358506 27.8689 -0.000138828 27.9918 4.0245e-07C28.1148 0.000139633 28.235 0.0364014 28.3375 0.10428C28.44 0.172158 28.5203 0.26866 28.5684 0.381794L30.5065 4.93752L35.2242 5.32435C35.35 5.33486 35.4697 5.38307 35.5676 5.46268C35.6656 5.54228 35.7372 5.64959 35.7732 5.77056C35.8092 5.89154 35.8079 6.02056 35.7694 6.14076C35.7309 6.26097 35.6571 6.36676 35.5575 6.44433L31.961 9.23187L33.1934 14.1535C33.2237 14.2742 33.2174 14.4012 33.1753 14.5183C33.1333 14.6355 33.0573 14.7374 32.9571 14.8113C32.857 14.8851 32.7371 14.9275 32.6128 14.933C32.4884 14.9385 32.3653 14.9069 32.259 14.8422L27.9829 12.235V12.2363Z" fill="#FFCC00"/>
<path fill-rule="evenodd" clip-rule="evenodd" d="M47.5846 12.2363L43.0199 14.8383C42.9061 14.9028 42.7743 14.9343 42.6413 14.9288C42.5083 14.9233 42.38 14.8811 42.2727 14.8074C42.1655 14.7338 42.0841 14.6321 42.0389 14.5152C41.9936 14.3983 41.9866 14.2715 42.0187 14.1509L43.3419 9.23187L39.5054 6.44433C39.3983 6.36705 39.3187 6.26139 39.277 6.14119C39.2354 6.02099 39.2335 5.89184 39.2718 5.77067C39.3101 5.64949 39.3867 5.54192 39.4916 5.46205C39.5965 5.38218 39.7247 5.33373 39.8596 5.32304L44.8808 4.93752L46.9755 0.380487C47.0273 0.267462 47.1136 0.171142 47.2236 0.103496C47.3336 0.0358506 47.4624 -0.000138828 47.5941 4.0245e-07C47.7259 0.000139633 47.8546 0.0364014 47.9645 0.10428C48.0743 0.172158 48.1603 0.26866 48.2119 0.381794L50.2884 4.93752L55.3431 5.32435C55.4779 5.33486 55.6061 5.38307 55.7111 5.46268C55.816 5.54228 55.8928 5.64959 55.9313 5.77056C55.9699 5.89154 55.9685 6.02056 55.9272 6.14076C55.886 6.26097 55.8069 6.36676 55.7002 6.44433L51.8468 9.23187L53.1672 14.1535C53.1997 14.2742 53.193 14.4012 53.1479 14.5183C53.1028 14.6355 53.0214 14.7374 52.9141 14.8113C52.8068 14.8851 52.6783 14.9275 52.5451 14.933C52.4119 14.9385 52.28 14.9069 52.1661 14.8422L47.5846 12.235V12.2363Z" fill="#FFCC00"/>
<path fill-rule="evenodd" clip-rule="evenodd" d="M67.1887 12.2363L62.9283 14.8383C62.8221 14.9028 62.6991 14.9343 62.575 14.9288C62.4508 14.9233 62.3311 14.8811 62.231 14.8074C62.1309 14.7338 62.0549 14.6321 62.0127 14.5152C61.9705 14.3983 61.964 14.2715 61.9939 14.1509L63.2289 9.23187L59.6481 6.44433C59.5482 6.36705 59.4739 6.26139 59.435 6.14119C59.3961 6.02099 59.3944 5.89184 59.4302 5.77067C59.4659 5.64949 59.5374 5.54192 59.6353 5.46205C59.7331 5.38218 59.8529 5.33373 59.9788 5.32304L64.6652 4.93752L66.6202 0.380487C66.6686 0.267462 66.7491 0.171142 66.8518 0.103496C66.9544 0.0358506 67.0747 -0.000138828 67.1976 4.0245e-07C67.3206 0.000139633 67.4408 0.0364014 67.5433 0.10428C67.6458 0.172158 67.7261 0.26866 67.7742 0.381794L69.7123 4.93752L74.43 5.32435C74.5558 5.33486 74.6755 5.38307 74.7734 5.46268C74.8714 5.54228 74.943 5.64959 74.979 5.77056C75.015 5.89154 75.0137 6.02056 74.9752 6.14076C74.9367 6.26097 74.8629 6.36676 74.7633 6.44433L71.1668 9.23187L72.3992 14.1535C72.4295 14.2742 72.4232 14.4012 72.3811 14.5183C72.3391 14.6355 72.2631 14.7374 72.163 14.8113C72.0628 14.8851 71.9429 14.9275 71.8186 14.933C71.6942 14.9385 71.5711 14.9069 71.4648 14.8422L67.1887 12.235V12.2363Z" fill="#FFCC00"/>
<path fill-rule="evenodd" clip-rule="evenodd" d="M87.3518 12.2363L83.0914 14.8383C82.9852 14.9028 82.8622 14.9343 82.7381 14.9288C82.6139 14.9233 82.4942 14.8811 82.3941 14.8074C82.294 14.7338 82.218 14.6321 82.1758 14.5152C82.1336 14.3983 82.1271 14.2715 82.157 14.1509L83.392 9.23187L79.8112 6.44433C79.7113 6.36705 79.637 6.26139 79.5981 6.14119C79.5592 6.02099 79.5575 5.89184 79.5932 5.77067C79.629 5.64949 79.7005 5.54192 79.7983 5.46205C79.8962 5.38218 80.016 5.33373 80.1418 5.32304L84.8282 4.93752L86.7833 0.380487C86.8317 0.267462 86.9122 0.171142 87.0149 0.103496C87.1175 0.0358506 87.2378 -0.000138828 87.3607 4.0245e-07C87.4837 0.000139633 87.6039 0.0364014 87.7064 0.10428C87.8089 0.172158 87.8892 0.26866 87.9373 0.381794L89.8754 4.93752L94.5931 5.32435C94.7189 5.33486 94.8386 5.38307 94.9365 5.46268C95.0345 5.54228 95.1061 5.64959 95.1421 5.77056C95.1781 5.89154 95.1768 6.02056 95.1383 6.14076C95.0998 6.26097 95.0259 6.36676 94.9264 6.44433L91.3299 9.23187L92.5623 14.1535C92.5926 14.2742 92.5863 14.4012 92.5442 14.5183C92.5022 14.6355 92.4262 14.7374 92.326 14.8113C92.2259 14.8851 92.106 14.9275 91.9817 14.933C91.8573 14.9385 91.7342 14.9069 91.6279 14.8422L87.3518 12.235V12.2363Z" fill="#FFCC00"/>
</svg>
