<svg width="396" height="280" fill="none" xmlns="http://www.w3.org/2000/svg"><path d="M55.66 219.549l-9.265 45.677H28.907l6.786-33.279h-11.42l-6.785 33.279H0l9.266-45.677H55.66zm38.535 24.078c0 1.915-.283 4.068-.848 6.46l-.457 2.023H70.052a5.674 5.674 0 00-.066.783c0 1.262.392 2.262 1.175 3.002 1.13 1.087 3.045 1.631 5.742 1.631 1.87 0 4.002-.217 6.395-.652 2.436-.479 4.611-1.044 6.525-1.697l-1.827 8.875a54.31 54.31 0 01-7.83 1.435c-2.74.348-5.286.522-7.635.522-2.653 0-4.916-.196-6.786-.587-2.828-.609-5.177-1.675-7.047-3.198-1.349-1.087-2.393-2.37-3.133-3.849-.913-1.784-1.37-3.829-1.37-6.134 0-5.133 1.697-9.788 5.09-13.964 4.35-5.351 10.462-8.026 18.336-8.026 5.003 0 8.94 1.087 11.81 3.262 1.915 1.479 3.263 3.285 4.046 5.416.479 1.392.718 2.958.718 4.698zm-13.899-1.239c0-1.479-.348-2.502-1.044-3.067-.652-.609-1.414-.914-2.284-.914-1 0-1.87.283-2.61.849-1.348 1-2.262 2.74-2.74 5.22l-.13.652h8.482l.13-.717.196-2.023zm60.393.848c0 6.786-1.805 12.289-5.416 16.509-3.61 4.176-8.134 6.264-13.572 6.264-1.871 0-3.502-.283-4.894-.848-2.045-.827-3.545-2.262-4.502-4.307l-3.85 18.662H92.011l9.918-48.482h15.27l-1.175 5.807h.261c1.523-2.218 3.35-3.871 5.481-4.959 2.175-1.088 4.546-1.631 7.113-1.631 2.784 0 5.111.609 6.982 1.827 3.219 2.131 4.828 5.851 4.828 11.158zm-17.748 1.892c0-1.522-.392-2.588-1.175-3.197-.522-.392-1.153-.587-1.892-.587-.87 0-1.697.304-2.48.913-.739.566-1.413 1.523-2.023 2.871-.957 2.175-1.435 4.481-1.435 6.917 0 1.392.348 2.414 1.044 3.067.522.478 1.175.718 1.958.718.87 0 1.631-.24 2.283-.718.914-.653 1.675-1.675 2.284-3.067.392-.957.718-2.088.979-3.393.305-1.305.457-2.48.457-3.524zm59.702-1.501c0 1.915-.283 4.068-.849 6.46l-.456 2.023h-22.839a5.747 5.747 0 00-.065.783c0 1.262.392 2.262 1.175 3.002 1.131 1.087 3.045 1.631 5.742 1.631 1.87 0 4.002-.217 6.395-.652 2.436-.479 4.611-1.044 6.525-1.697l-1.827 8.875a54.32 54.32 0 01-7.831 1.435c-2.74.348-5.285.522-7.634.522-2.654 0-4.916-.196-6.786-.587-2.828-.609-5.177-1.675-7.048-3.198-1.348-1.087-2.392-2.37-3.132-3.849-.913-1.784-1.37-3.829-1.37-6.134 0-5.133 1.696-9.788 5.09-13.964 4.35-5.351 10.462-8.026 18.336-8.026 5.002 0 8.939 1.087 11.81 3.262 1.914 1.479 3.263 3.285 4.046 5.416.478 1.392.718 2.958.718 4.698zm-13.899-1.239c0-1.479-.348-2.502-1.044-3.067-.653-.609-1.414-.914-2.284-.914-1 0-1.871.283-2.61.849-1.349 1-2.262 2.74-2.741 5.22l-.13.652h8.483l.13-.717.196-2.023zm60.393-11.354l-6.982 34.192h-16.443l4.959-24.404h-5.873l-4.959 24.404h-16.444l6.982-34.192h38.76zm46.482 0l-6.982 34.192h-16.444l4.959-24.404h-5.611l-1.175 5.742c-.87 4.35-1.544 7.265-2.023 8.744-.87 2.74-2.044 4.937-3.523 6.59-1.436 1.61-3.154 2.741-5.155 3.393-1.479.479-3.219.718-5.22.718-1.654 0-3.133-.087-4.438-.261-1.305-.174-2.697-.5-4.176-.979l2.088-8.809c.74.305 1.588.457 2.545.457 1.305 0 2.349-.74 3.132-2.219.783-1.522 1.632-4.502 2.545-8.939l2.936-14.225h36.542zm41.364 9.592c0 .783-.108 1.718-.326 2.806l-4.437 21.794h-15.008l.848-4.176h-.261c-1.653 1.827-3.502 3.11-5.546 3.85-2.001.739-4.351 1.109-7.048 1.109-3.306 0-5.872-.696-7.699-2.088-1.784-1.392-2.676-3.502-2.676-6.329 0-1.828.348-3.481 1.044-4.96.87-1.87 2.349-3.545 4.437-5.024 2.132-1.479 4.59-2.48 7.374-3.002 2.828-.522 6.656-.783 11.484-.783h2.415l.195-1.044.066-.718c0-1-.457-1.783-1.371-2.349-1.174-.739-3.023-1.109-5.546-1.109-1.697 0-3.763.261-6.199.783s-4.611 1.153-6.525 1.892l1.827-8.939a62.057 62.057 0 018.287-1.566c2.871-.348 5.59-.522 8.156-.522 6.352 0 10.876 1.218 13.573 3.654 1.957 1.74 2.936 3.98 2.936 6.721zm-16.77 9.722h-.848c-2.001 0-3.306.066-3.915.196-.566.087-1.262.327-2.088.718-.783.392-1.392.935-1.827 1.631-.392.696-.587 1.414-.587 2.154 0 .87.304 1.522.913 1.957.609.392 1.37.588 2.284.588 1.435 0 2.632-.414 3.589-1.24 1-.87 1.696-2.241 2.088-4.111l.391-1.893zm57.043-19.314l-2.023 9.788h-9.135l-4.96 24.404h-16.443l4.959-24.404h-9.135l2.022-9.788h34.715zM396 240.626c0 .783-.109 1.718-.326 2.806l-4.437 21.794h-15.009l.849-4.176h-.261c-1.653 1.827-3.502 3.11-5.547 3.85-2.001.739-4.35 1.109-7.047 1.109-3.306 0-5.873-.696-7.7-2.088-1.783-1.392-2.675-3.502-2.675-6.329 0-1.828.348-3.481 1.044-4.96.87-1.87 2.349-3.545 4.437-5.024 2.132-1.479 4.59-2.48 7.374-3.002 2.827-.522 6.655-.783 11.484-.783h2.414l.196-1.044.065-.718c0-1-.456-1.783-1.37-2.349-1.174-.739-3.023-1.109-5.546-1.109-1.697 0-3.763.261-6.199.783s-4.612 1.153-6.526 1.892l1.827-8.939a62.072 62.072 0 018.288-1.566c2.871-.348 5.589-.522 8.156-.522 6.351 0 10.876 1.218 13.573 3.654 1.957 1.74 2.936 3.98 2.936 6.721zm-16.77 9.722h-.848c-2.001 0-3.306.066-3.915.196-.566.087-1.262.327-2.088.718-.783.392-1.392.935-1.827 1.631-.392.696-.588 1.414-.588 2.154 0 .87.305 1.522.914 1.957.609.392 1.37.588 2.284.588 1.435 0 2.631-.414 3.589-1.24 1-.87 1.696-2.241 2.088-4.111l.391-1.893z" fill="#DCE4E8"/><path d="M201.667 145.961c-.451-10.352-1.487-21.787-3.106-34.306-1.54-11.989-3.346-23.002-5.416-33.041a141.107 141.107 0 00-7.728-25.937c-3.045-7.258-6.656-12.886-10.833-16.882a20.666 20.666 0 00-14.77-6.003 16.421 16.421 0 00-11.573 4.207l-16.304 14.986a16.447 16.447 0 0111.573-4.216 20.691 20.691 0 0114.77 5.994c4.171 3.996 7.782 9.624 10.833 16.882a140.956 140.956 0 017.683 25.937c2.07 10.045 3.876 21.058 5.416 33.041 1.619 12.525 2.657 23.96 3.115 34.306.518 8.923.171 17.875-1.038 26.731-1.156 7.469-3.262 13.28-6.32 17.432a16.364 16.364 0 01-2.067 2.302l16.304-14.977a16.784 16.784 0 002.058-2.302c3.076-4.164 5.182-9.975 6.32-17.432a138.503 138.503 0 001.083-26.722z" fill="url(#paint0_linear_196_75)"/><path d="M224.615 218.119c-11.056 5.363-24.215 8.044-39.478 8.044-15.78 0-29.924-2.76-42.43-8.279a94.273 94.273 0 01-32.41-23.427 121.634 121.634 0 01-22.145-36.183 188.508 188.508 0 01-11.808-46.61c-2.239-17.351-2.263-32.94-.072-46.764 2.19-13.824 6.605-25.56 13.243-35.208a64.091 64.091 0 019.299-10.707L82.5 34.008a63.264 63.264 0 00-9.29 10.706c-6.65 9.63-11.068 21.366-13.252 35.209-2.185 13.842-2.161 29.427.072 46.754a188.292 188.292 0 0011.817 46.574 121.401 121.401 0 0022.145 36.193 94.238 94.238 0 0032.41 23.472c12.512 5.525 26.656 8.284 42.43 8.278 15.257 0 28.416-2.681 39.478-8.044a67.835 67.835 0 0016.44-11.095l16.304-14.986a67.446 67.446 0 01-16.44 11.05z" fill="url(#paint1_linear_196_75)"/><path d="M252.701 65.289c5.687 13.776 9.638 29.234 11.853 46.375 2.263 17.556 2.263 33.382 0 47.477-2.263 14.095-6.713 26.108-13.352 36.039a65.983 65.983 0 01-26.587 22.939c-11.056 5.363-24.212 8.044-39.469 8.044-15.786 0-29.93-2.76-42.43-8.279a94.273 94.273 0 01-32.41-23.427 121.647 121.647 0 01-22.145-36.183 188.508 188.508 0 01-11.808-46.61c-2.239-17.351-2.263-32.94-.072-46.764 2.19-13.824 6.605-25.56 13.243-35.208A64.387 64.387 0 01116.04 7.646C127.089 2.55 140.399 0 155.969 0c15.768 0 29.893 2.603 42.376 7.809a92.028 92.028 0 0132.265 22.317c9.028 9.671 16.391 21.392 22.091 35.163zm-51.034 80.671c-.451-10.351-1.487-21.786-3.106-34.305-1.54-11.989-3.346-23.003-5.416-33.041a141.107 141.107 0 00-7.728-25.937c-3.045-7.258-6.656-12.883-10.833-16.873a20.64 20.64 0 00-14.77-6.013c-10.231 0-16.584 6.73-19.057 20.187-2.474 13.457-1.935 34.013 1.616 61.668 1.805 13.776 3.861 25.919 6.166 36.427a144.878 144.878 0 008.215 26.505c3.142 7.138 6.729 12.555 10.761 16.25a19.859 19.859 0 0013.785 5.525c5.561 0 9.88-2.076 12.955-6.229 3.076-4.153 5.182-9.963 6.32-17.432a138.448 138.448 0 001.092-26.732z" fill="url(#paint2_linear_196_75)"/><path d="M201.125 111.339c-1.543-12.025-3.385-23.21-5.416-33.23a143.957 143.957 0 00-7.827-26.425c-3.16-7.538-7.006-13.541-11.429-17.73a23.214 23.214 0 00-16.53-6.708c-11.574 0-18.832 7.502-21.567 22.28-2.528 13.677-1.996 34.685 1.588 62.463 1.806 13.786 3.864 26.118 6.203 36.662a147.564 147.564 0 008.377 26.975c3.268 7.448 7.096 13.198 11.375 17.098a22.45 22.45 0 0015.51 6.193c6.391 0 11.438-2.446 15.013-7.267 3.304-4.469 5.597-10.707 6.807-18.561a140.936 140.936 0 001.056-27.237c-.487-10.345-1.535-21.964-3.16-34.513zm-.46 61.389c-1.156 7.463-3.262 13.274-6.319 17.433-3.058 4.158-7.376 6.235-12.955 6.229a19.911 19.911 0 01-13.786-5.525c-4.032-3.684-7.619-9.1-10.761-16.25a144.887 144.887 0 01-8.215-26.506c-2.329-10.508-4.384-22.65-6.166-36.427-3.569-27.685-4.104-48.24-1.607-61.668 2.498-13.427 8.841-20.168 19.031-20.222a20.615 20.615 0 0114.76 5.994c4.177 3.99 7.788 9.615 10.833 16.873a141.732 141.732 0 017.683 25.946c2.064 10.039 3.87 21.052 5.417 33.041 1.613 12.513 2.648 23.948 3.105 34.306.529 8.928.188 17.887-1.02 26.749v.027z" fill="url(#paint3_linear_196_75)"/><path d="M264.626 111.664c-2.209-17.14-6.16-32.6-11.853-46.375-5.694-13.777-13.057-25.498-22.091-35.163a92.028 92.028 0 00-32.265-22.317C185.941 2.603 171.815 0 156.041 0c-15.57 0-28.88 2.549-39.93 7.646a64.306 64.306 0 00-26.523 22.082c-6.65 9.63-11.069 21.366-13.253 35.208-2.185 13.843-2.16 29.43.072 46.764a188.112 188.112 0 0011.817 46.61 121.47 121.47 0 0022.145 36.184 94.175 94.175 0 0032.401 23.427c12.524 5.525 26.668 8.284 42.43 8.278 15.245 0 28.405-2.681 39.479-8.044a65.953 65.953 0 0026.64-22.975c6.657-9.937 11.114-21.95 13.37-36.039 2.257-14.089 2.236-29.915-.063-47.477zm-2.473 47.071c-2.176 13.632-6.545 25.413-12.964 35.018a63.837 63.837 0 01-25.576 22.064c-10.661 5.173-23.562 7.791-38.359 7.791-15.347 0-29.286-2.708-41.41-8.062a92.224 92.224 0 01-31.552-22.795 119.708 119.708 0 01-21.666-35.443 186.632 186.632 0 01-11.646-45.969c-2.194-17.017-2.22-32.5-.081-46.041 2.112-13.38 6.427-24.854 12.828-34.107a62.055 62.055 0 0125.458-21.26c10.662-4.912 23.743-7.412 38.82-7.412 15.347 0 29.295 2.564 41.392 7.61a90.081 90.081 0 0131.38 21.667c8.82 9.479 16.079 21.052 21.64 34.477 5.561 13.424 9.506 28.888 11.682 45.716 2.211 17.252 2.22 32.978.054 46.746z" fill="url(#paint4_linear_196_75)"/><path d="M236.956 154.672l-13.054-11.654 8.658 12.684 13.054 11.663-8.658-12.693z" fill="#FFDF3E"/><path d="M258.542 53.67a4.517 4.517 0 00-3.142-1.805 6.248 6.248 0 00-3.9.36 9.578 9.578 0 00-3.313 2.763 23.994 23.994 0 00-3.088 5.236 76.35 76.35 0 00-2.78 7.223 72.844 72.844 0 00-2.031 7.384 19.846 19.846 0 00-.497 5.697 6.609 6.609 0 001.047 3.313l8.676 12.693c0-.054-.063-.117-.099-.18l.343.505a5.064 5.064 0 003.187 1.544l-4.514-6.618a22.38 22.38 0 01.532-4.252 72.581 72.581 0 012.032-7.384 75.812 75.812 0 012.78-7.223 24.285 24.285 0 013.088-5.245 9.64 9.64 0 013.313-2.753 6.247 6.247 0 013.9-.361 4.515 4.515 0 013.141 1.805l-8.675-12.702z" fill="url(#paint5_linear_196_75)"/><path d="M285.977 62.77a18.987 18.987 0 00-1.76-3.187l-8.658-12.639a18.57 18.57 0 011.761 3.187 25.02 25.02 0 011.859 10.833 44.796 44.796 0 01-2.392 12.64 48.197 48.197 0 01-5.805 12.042 36.335 36.335 0 01-8.414 8.91 29.528 29.528 0 01-10.562 4.993 28.756 28.756 0 01-11.935.325 26.18 26.18 0 01-11.465-4.622 20.068 20.068 0 01-4.514-4.695l8.649 12.639a20.505 20.505 0 004.513 4.704 26.029 26.029 0 0011.466 4.613c3.956.735 8.023.627 11.934-.316a29.673 29.673 0 0010.563-4.993 36.662 36.662 0 008.414-8.91 48.268 48.268 0 005.805-12.043 44.797 44.797 0 002.392-12.639 24.952 24.952 0 00-1.851-10.842z" fill="url(#paint6_linear_196_75)"/><path d="M340.107 58.238l8.658 12.693-103.151 96.434-8.657-12.693 103.15-96.434z" fill="url(#paint7_linear_196_75)"/><path d="M323.144 117.361l-.18-.244a4.99 4.99 0 00-3.25-1.625 5.724 5.724 0 00-3.675.406 10.193 10.193 0 00-3.277 2.817 25.032 25.032 0 00-3.069 5.272 73.546 73.546 0 00-2.754 7.222c-2.094 6.374-2.888 11.086-2.365 14.02.131.841.438 1.644.903 2.356l8.657 12.693a5.992 5.992 0 01-.902-2.356c-.524-2.934.271-7.655 2.365-14.02a73.598 73.598 0 012.753-7.177 25.143 25.143 0 013.07-5.281 10.166 10.166 0 013.277-2.808 5.721 5.721 0 013.674-.406 4.982 4.982 0 013.25 1.616l.181.253-8.658-12.738z" fill="url(#paint8_linear_196_75)"/><path d="M277.32 50.077a19.527 19.527 0 00-6.446-8.008 25.626 25.626 0 00-10.834-4.315 31.478 31.478 0 00-12.422.163 28.557 28.557 0 00-10.689 4.866 34.714 34.714 0 00-8.341 8.919 50.394 50.394 0 00-5.769 12.188 45.265 45.265 0 00-2.347 12.241 25.54 25.54 0 001.715 10.788 19.656 19.656 0 006.419 8.297 26.178 26.178 0 0011.465 4.622c3.957.728 8.023.617 11.935-.325a29.526 29.526 0 0010.562-4.992 36.337 36.337 0 008.414-8.91 48.198 48.198 0 005.805-12.044 44.797 44.797 0 002.392-12.639 25.01 25.01 0 00-1.859-10.851zm-20.259 19.978a75.1 75.1 0 01-2.708 7.168 25.288 25.288 0 01-3.078 5.282 9.94 9.94 0 01-3.278 2.807 5.659 5.659 0 01-3.674.407l-.28-.055h-.09l-.18-.045h-.849l-.126-.054h-.091l-.126-.054h-.09l-.109-.054-.09-.045-.108-.055-.082-.054-.099-.054-.081-.054-.099-.063-.073-.054-.09-.064-.072-.063-.081-.063a.253.253 0 00-.073-.063.512.512 0 00-.072-.072l-.063-.064-.072-.08-.091-.1-.063-.081a6.45 6.45 0 01-1.228-3.557c-.11-1.913.058-3.832.497-5.697a72.842 72.842 0 012.031-7.385 76.078 76.078 0 012.781-7.222 23.99 23.99 0 013.087-5.236 9.578 9.578 0 013.313-2.762 6.248 6.248 0 013.9-.361c2.339.415 3.611 1.706 4.018 4.18.478 2.572-.316 7.294-2.411 13.667z" fill="url(#paint9_linear_196_75)"/><path d="M327.089 46.475l-103.187 96.543 13.054 11.655 103.151-96.435-13.018-11.763z" fill="url(#paint10_linear_196_75)"/><path d="M341.823 114.355a19.682 19.682 0 00-6.419-8.288 26.172 26.172 0 00-11.465-4.622 28.756 28.756 0 00-11.935.325 29.607 29.607 0 00-10.562 4.992 36.278 36.278 0 00-8.414 8.902 48.036 48.036 0 00-5.814 12.061 45.616 45.616 0 00-2.392 12.638 25.173 25.173 0 001.859 10.834 19.632 19.632 0 006.446 7.998 25.682 25.682 0 0010.833 4.325c4.112.78 8.338.734 12.432-.136a28.358 28.358 0 0010.679-4.866 34.849 34.849 0 008.36-8.91 51.136 51.136 0 005.76-12.197 45.258 45.258 0 002.347-12.241 25.76 25.76 0 00-1.715-10.815zm-18.119 12.034a73.417 73.417 0 01-2.04 7.384 74.178 74.178 0 01-2.772 7.222 23.638 23.638 0 01-3.096 5.237 9.567 9.567 0 01-3.304 2.762 6.32 6.32 0 01-3.9.361c-2.338-.415-3.611-1.706-4.018-4.189-.523-2.934.271-7.646 2.366-14.02a73.382 73.382 0 012.753-7.222 25.036 25.036 0 013.07-5.272 10.172 10.172 0 013.277-2.817 5.721 5.721 0 013.674-.406 4.99 4.99 0 013.25 1.625 6.412 6.412 0 011.237 3.557 20.268 20.268 0 01-.497 5.778z" fill="url(#paint11_linear_196_75)"/><path d="M350.48 127.047a19.34 19.34 0 00-1.932-3.611l-8.658-12.693a19.857 19.857 0 011.932 3.611 25.768 25.768 0 011.716 10.834 45.228 45.228 0 01-2.348 12.241 51.112 51.112 0 01-5.759 12.197 34.883 34.883 0 01-8.36 8.91 28.37 28.37 0 01-10.68 4.866 31.51 31.51 0 01-12.431.135 25.662 25.662 0 01-10.833-4.324 19.963 19.963 0 01-4.686-4.83l8.658 12.63a19.776 19.776 0 004.685 4.821 25.688 25.688 0 0010.834 4.333c4.112.776 8.337.73 12.431-.135a28.515 28.515 0 0010.68-4.866 34.92 34.92 0 008.359-8.92 50.878 50.878 0 005.76-12.187 45.227 45.227 0 002.347-12.242 25.75 25.75 0 00-1.715-10.77z" fill="url(#paint12_linear_196_75)"/><path d="M255.833 49.319a11.841 11.841 0 00-1.977-.181 7.888 7.888 0 00-3.484.758 12.024 12.024 0 00-4.189 3.467 26.861 26.861 0 00-3.431 5.787 79.595 79.595 0 00-2.871 7.51 74.445 74.445 0 00-2.103 7.638 22.727 22.727 0 00-.551 6.437 8.905 8.905 0 001.761 4.92l.189.235.235.262.235.225.252.217.425.325.28.18.307.172.288.154.28.126.325.135.352.127.298.1.298.09.37.09.343.072.343.072c.596.106 1.201.16 1.806.163a7.586 7.586 0 003.503-.813 12.422 12.422 0 004.116-3.503 27.679 27.679 0 003.404-5.823 78.17 78.17 0 002.844-7.411c2.247-6.87 3.06-11.863 2.455-15.275-.605-3.413-2.663-5.652-6.103-6.257zm1.201 20.763a75.1 75.1 0 01-2.708 7.168 25.29 25.29 0 01-3.079 5.281 9.927 9.927 0 01-3.277 2.808 5.66 5.66 0 01-3.674.406l-.28-.054h-.09l-.181-.045h-.848l-.127-.054h-.09l-.126-.054h-.091l-.108-.054-.09-.045-.109-.055-.081-.054-.099-.054-.081-.054-.1-.063-.072-.055-.09-.063-.072-.063-.082-.063a.234.234 0 00-.072-.063.571.571 0 00-.072-.073l-.063-.063-.073-.081-.09-.1-.063-.08a6.45 6.45 0 01-1.228-3.558c-.11-1.912.057-3.831.497-5.696a72.844 72.844 0 012.031-7.385 76.363 76.363 0 012.78-7.222 24.035 24.035 0 013.088-5.236 9.578 9.578 0 013.313-2.762 6.248 6.248 0 013.9-.361c2.338.415 3.611 1.706 4.017 4.18.506 2.545-.288 7.267-2.383 13.64l-.027.027z" fill="url(#paint13_linear_196_75)"/><path d="M277.32 50.077a19.527 19.527 0 00-6.446-8.008 25.626 25.626 0 00-10.834-4.315 31.478 31.478 0 00-12.422.163 28.557 28.557 0 00-10.689 4.866 34.714 34.714 0 00-8.341 8.919 50.394 50.394 0 00-5.769 12.188 45.265 45.265 0 00-2.347 12.241 25.54 25.54 0 001.715 10.788 19.656 19.656 0 006.419 8.297 26.178 26.178 0 0011.465 4.622c3.957.728 8.023.617 11.935-.325a29.526 29.526 0 0010.562-4.992 36.337 36.337 0 008.414-8.91 48.198 48.198 0 005.805-12.044 44.797 44.797 0 002.392-12.639 25.01 25.01 0 00-1.859-10.851zm-.723 10.716a42.562 42.562 0 01-2.266 11.944 45.406 45.406 0 01-5.498 11.402 34.05 34.05 0 01-7.808 8.287 27.165 27.165 0 01-9.66 4.568 25.012 25.012 0 01-6.004.722 28.275 28.275 0 01-4.875-.433 23.636 23.636 0 01-10.345-4.126 17.153 17.153 0 01-5.607-7.222A23.11 23.11 0 01223 76.203a42.899 42.899 0 012.221-11.546 47.955 47.955 0 015.47-11.565 31.79 31.79 0 017.728-8.27 25.993 25.993 0 019.741-4.44 26.44 26.44 0 015.76-.615 32.55 32.55 0 015.651.515 23.211 23.211 0 019.804 3.855 16.969 16.969 0 015.606 6.96 22.426 22.426 0 011.616 9.696z" fill="url(#paint14_linear_196_75)"/><path d="M327.089 46.475l-103.187 96.543 13.054 11.655 103.151-96.435-13.018-11.763zM236.92 151.197l-9.226-8.242 99.459-93.004 9.208 8.323-99.441 92.923z" fill="url(#paint15_linear_196_75)"/><path d="M341.823 114.355a19.682 19.682 0 00-6.419-8.288 26.172 26.172 0 00-11.465-4.622 28.756 28.756 0 00-11.935.325 29.607 29.607 0 00-10.562 4.992 36.278 36.278 0 00-8.414 8.902 48.036 48.036 0 00-5.814 12.061 45.616 45.616 0 00-2.392 12.638 25.173 25.173 0 001.859 10.834 19.632 19.632 0 006.446 7.998 25.682 25.682 0 0010.833 4.325c4.112.78 8.338.734 12.432-.136a28.358 28.358 0 0010.679-4.866 34.849 34.849 0 008.36-8.91 51.136 51.136 0 005.76-12.197 45.258 45.258 0 002.347-12.241 25.76 25.76 0 00-1.715-10.815zm-.84 10.697a42.86 42.86 0 01-2.221 11.547 48.53 48.53 0 01-5.47 11.573 32.09 32.09 0 01-7.737 8.27 25.875 25.875 0 01-9.723 4.433 26.949 26.949 0 01-5.796.613 33.039 33.039 0 01-5.633-.505 23.156 23.156 0 01-9.75-3.9 16.984 16.984 0 01-5.615-6.961 22.549 22.549 0 01-1.652-9.686c.188-4.068.951-8.09 2.265-11.944a45.84 45.84 0 015.498-11.411 34.087 34.087 0 017.818-8.287 27.252 27.252 0 019.66-4.569 25.047 25.047 0 016.004-.722c1.631.003 3.259.148 4.865.434a23.676 23.676 0 0110.355 4.125 17.155 17.155 0 015.607 7.222 23.244 23.244 0 011.525 9.768z" fill="url(#paint16_linear_196_75)"/><path d="M324.995 115.555a7.4 7.4 0 00-4.83-2.573c-.596-.107-1.2-.162-1.805-.162a7.707 7.707 0 00-3.503.803 12.645 12.645 0 00-4.135 3.521 27.781 27.781 0 00-3.394 5.805 80.238 80.238 0 00-2.844 7.421c-2.257 6.879-3.06 11.871-2.456 15.275.632 3.547 2.709 5.651 6.094 6.256.65.115 1.308.176 1.968.18a7.892 7.892 0 003.485-.758 12.065 12.065 0 004.198-3.467 26.718 26.718 0 003.43-5.795 78.737 78.737 0 002.871-7.494 75.976 75.976 0 002.104-7.646c.489-2.111.675-4.282.55-6.446a9.03 9.03 0 00-1.733-4.92zm-1.291 10.833a73.363 73.363 0 01-2.04 7.385 74.178 74.178 0 01-2.772 7.222 23.608 23.608 0 01-3.096 5.236 9.57 9.57 0 01-3.304 2.763 6.32 6.32 0 01-3.9.361c-2.339-.415-3.612-1.706-4.018-4.189-.523-2.934.271-7.646 2.365-14.02a73.546 73.546 0 012.754-7.222 25.007 25.007 0 013.069-5.272 10.193 10.193 0 013.277-2.817 5.725 5.725 0 013.675-.406 4.99 4.99 0 013.25 1.625 6.4 6.4 0 011.236 3.557 20.224 20.224 0 01-.496 5.777z" fill="url(#paint17_linear_196_75)"/><defs><linearGradient id="paint0_linear_196_75" x1="114.089" y1="70.263" x2="220.183" y2="159.286" gradientUnits="userSpaceOnUse"><stop stop-color="#9EABB1"/><stop offset=".11" stop-color="#ADBAC0"/><stop offset=".27" stop-color="#BCC9CF"/><stop offset=".44" stop-color="#CBD5DA"/><stop offset=".66" stop-color="#DAE1E5"/><stop offset=".94" stop-color="#BCC9CF"/></linearGradient><linearGradient id="paint1_linear_196_75" x1="48.033" y1="74.271" x2="226.683" y2="224.168" gradientUnits="userSpaceOnUse"><stop stop-color="#BCC9CF"/><stop offset=".01" stop-color="#BFCBD1"/><stop offset=".06" stop-color="#D3DDE2"/><stop offset=".12" stop-color="#E0E7EC"/><stop offset=".17" stop-color="#E4EBEF"/><stop offset=".44" stop-color="#BCC9CF"/><stop offset=".53" stop-color="#CBD5DA"/><stop offset=".66" stop-color="#DAE1E5"/><stop offset=".73" stop-color="#C8D1D6"/><stop offset=".94" stop-color="#9EABB1"/></linearGradient><linearGradient id="paint2_linear_196_75" x1="120.796" y1="5.426" x2="220.806" y2="219.907" gradientUnits="userSpaceOnUse"><stop stop-color="#fff"/><stop offset=".37" stop-color="#E6EBEF"/><stop offset=".73" stop-color="#D5DEE3"/><stop offset="1" stop-color="#CFD9DF"/></linearGradient><linearGradient id="paint3_linear_196_75" x1="135.196" y1="36.463" x2="206.497" y2="189.375" gradientUnits="userSpaceOnUse"><stop stop-color="#CDD7DD"/><stop offset=".28" stop-color="#D1DAE0"/><stop offset=".57" stop-color="#DEE4E8"/><stop offset=".86" stop-color="#F2F5F6"/><stop offset="1" stop-color="#fff"/></linearGradient><linearGradient id="paint4_linear_196_75" x1="120.869" y1="5.426" x2="220.887" y2="219.907" gradientUnits="userSpaceOnUse"><stop offset=".18" stop-color="#fff"/><stop offset=".7" stop-color="#D8DFE3"/><stop offset="1" stop-color="#C6D1D6"/></linearGradient><linearGradient id="paint5_linear_196_75" x1="241.434" y1="92.3" x2="262.64" y2="55.575" gradientUnits="userSpaceOnUse"><stop offset=".04" stop-color="#DDB736"/><stop offset=".2" stop-color="#E5C03B"/><stop offset=".38" stop-color="#F5D146"/><stop offset=".66" stop-color="#DDB736"/><stop offset=".96" stop-color="#CC992F"/></linearGradient><linearGradient id="paint6_linear_196_75" x1="233.851" y1="104.722" x2="289.011" y2="66.101" gradientUnits="userSpaceOnUse"><stop stop-color="#FFDF3E"/><stop offset=".04" stop-color="#F9D83D"/><stop offset=".21" stop-color="#E5C038"/><stop offset=".32" stop-color="#DDB736"/><stop offset=".45" stop-color="#ECC839"/><stop offset=".59" stop-color="#FFDF3E"/><stop offset=".8" stop-color="#F5D146"/><stop offset="1" stop-color="#FFE84F"/></linearGradient><linearGradient id="paint7_linear_196_75" x1="241.958" y1="163.709" x2="343.764" y2="61.894" gradientUnits="userSpaceOnUse"><stop stop-color="#FFDF3E"/><stop offset=".2" stop-color="#F5D146"/><stop offset=".44" stop-color="#DDB736"/><stop offset=".68" stop-color="#F5D146"/><stop offset="1" stop-color="#FFE84F"/></linearGradient><linearGradient id="paint8_linear_196_75" x1="304.637" y1="154.799" x2="325.645" y2="118.408" gradientUnits="userSpaceOnUse"><stop offset=".04" stop-color="#DDB736"/><stop offset=".2" stop-color="#E5C03B"/><stop offset=".38" stop-color="#F5D146"/><stop offset=".66" stop-color="#DDB736"/><stop offset=".96" stop-color="#CC992F"/></linearGradient><linearGradient id="paint9_linear_196_75" x1="237.363" y1="41.934" x2="262.252" y2="95.306" gradientUnits="userSpaceOnUse"><stop stop-color="#FFDF3E"/><stop offset=".71" stop-color="#F5D146"/></linearGradient><linearGradient id="paint10_linear_196_75" x1="269.312" y1="73.414" x2="294.662" y2="127.77" gradientUnits="userSpaceOnUse"><stop stop-color="#FFDF3E"/><stop offset=".71" stop-color="#F5D146"/></linearGradient><linearGradient id="paint11_linear_196_75" x1="301.749" y1="105.941" x2="326.647" y2="159.322" gradientUnits="userSpaceOnUse"><stop stop-color="#FFDF3E"/><stop offset=".71" stop-color="#F5D146"/></linearGradient><linearGradient id="paint12_linear_196_75" x1="298.246" y1="168.683" x2="353.405" y2="130.063" gradientUnits="userSpaceOnUse"><stop stop-color="#FFDF3E"/><stop offset=".32" stop-color="#DDB736"/><stop offset=".56" stop-color="#FFDF3E"/><stop offset=".76" stop-color="#F5D146"/><stop offset="1" stop-color="#FFE84F"/></linearGradient><linearGradient id="paint13_linear_196_75" x1="242.599" y1="53.535" x2="256.808" y2="84.012" gradientUnits="userSpaceOnUse"><stop stop-color="#E9C246"/><stop offset="1" stop-color="#FBE740"/></linearGradient><linearGradient id="paint14_linear_196_75" x1="237.363" y1="41.934" x2="262.252" y2="95.306" gradientUnits="userSpaceOnUse"><stop stop-color="#FFF03E"/><stop offset=".71" stop-color="#EFC946"/></linearGradient><linearGradient id="paint15_linear_196_75" x1="269.312" y1="73.414" x2="294.662" y2="127.77" gradientUnits="userSpaceOnUse"><stop stop-color="#FFF03E"/><stop offset=".71" stop-color="#EFC946"/></linearGradient><linearGradient id="paint16_linear_196_75" x1="301.749" y1="105.941" x2="326.647" y2="159.322" gradientUnits="userSpaceOnUse"><stop stop-color="#FFF03E"/><stop offset=".71" stop-color="#EFC946"/></linearGradient><linearGradient id="paint17_linear_196_75" x1="307.192" y1="117.234" x2="321.411" y2="147.712" gradientUnits="userSpaceOnUse"><stop stop-color="#E9C246"/><stop offset="1" stop-color="#FBE740"/></linearGradient></defs></svg>