<svg width="396" height="280" viewBox="0 0 396 280" fill="none" xmlns="http://www.w3.org/2000/svg">
<path d="M55.6604 219.549L46.3945 265.226H28.9069L35.6931 231.947H24.2739L17.4877 265.226H0L9.26585 219.549H55.6604Z" fill="#DCE4E8"/>
<path d="M94.195 243.627C94.195 245.542 93.9123 247.695 93.3467 250.087L92.89 252.11H70.0516C70.0081 252.415 69.9863 252.676 69.9863 252.893C69.9863 254.155 70.3779 255.155 71.1609 255.895C72.2919 256.982 74.206 257.526 76.9031 257.526C78.7737 257.526 80.9053 257.309 83.2979 256.874C85.7339 256.395 87.909 255.83 89.8231 255.177L87.996 264.052C85.5164 264.704 82.9063 265.183 80.1657 265.487C77.4251 265.835 74.8803 266.009 72.5312 266.009C69.8776 266.009 67.6155 265.813 65.7449 265.422C62.9173 264.813 60.5682 263.747 58.6977 262.224C57.3491 261.137 56.3051 259.854 55.5655 258.375C54.652 256.591 54.1952 254.546 54.1952 252.241C54.1952 247.108 55.8918 242.453 59.2849 238.277C63.6351 232.926 69.7471 230.251 77.6209 230.251C82.6236 230.251 86.5605 231.338 89.4316 233.513C91.3457 234.992 92.6942 236.798 93.4772 238.929C93.9558 240.321 94.195 241.887 94.195 243.627ZM80.2962 242.388C80.2962 240.909 79.9482 239.886 79.2522 239.321C78.5997 238.712 77.8384 238.407 76.9684 238.407C75.9678 238.407 75.0978 238.69 74.3583 239.256C73.0097 240.256 72.0962 241.996 71.6177 244.476L71.4872 245.128H79.97L80.1005 244.411L80.2962 242.388Z" fill="#DCE4E8"/>
<path d="M140.689 243.236C140.689 250.022 138.884 255.525 135.273 259.745C131.663 263.921 127.139 266.009 121.701 266.009C119.83 266.009 118.199 265.726 116.807 265.161C114.762 264.334 113.262 262.899 112.305 260.854L108.455 279.516H92.0111L101.929 231.034H117.199L116.024 236.841H116.285C117.808 234.623 119.635 232.97 121.766 231.882C123.941 230.794 126.312 230.251 128.879 230.251C131.663 230.251 133.99 230.86 135.861 232.078C139.08 234.209 140.689 237.929 140.689 243.236ZM122.941 245.128C122.941 243.606 122.549 242.54 121.766 241.931C121.244 241.539 120.613 241.344 119.874 241.344C119.004 241.344 118.177 241.648 117.394 242.257C116.655 242.823 115.981 243.78 115.371 245.128C114.414 247.303 113.936 249.609 113.936 252.045C113.936 253.437 114.284 254.459 114.98 255.112C115.502 255.59 116.155 255.83 116.938 255.83C117.808 255.83 118.569 255.59 119.221 255.112C120.135 254.459 120.896 253.437 121.505 252.045C121.897 251.088 122.223 249.957 122.484 248.652C122.789 247.347 122.941 246.172 122.941 245.128Z" fill="#DCE4E8"/>
<path d="M182.643 243.627C182.643 245.542 182.36 247.695 181.794 250.087L181.338 252.11H158.499C158.456 252.415 158.434 252.676 158.434 252.893C158.434 254.155 158.826 255.155 159.609 255.895C160.74 256.982 162.654 257.526 165.351 257.526C167.221 257.526 169.353 257.309 171.746 256.874C174.182 256.395 176.357 255.83 178.271 255.177L176.444 264.052C173.964 264.704 171.354 265.183 168.613 265.487C165.873 265.835 163.328 266.009 160.979 266.009C158.325 266.009 156.063 265.813 154.193 265.422C151.365 264.813 149.016 263.747 147.145 262.224C145.797 261.137 144.753 259.854 144.013 258.375C143.1 256.591 142.643 254.546 142.643 252.241C142.643 247.108 144.339 242.453 147.733 238.277C152.083 232.926 158.195 230.251 166.069 230.251C171.071 230.251 175.008 231.338 177.879 233.513C179.793 234.992 181.142 236.798 181.925 238.929C182.403 240.321 182.643 241.887 182.643 243.627ZM168.744 242.388C168.744 240.909 168.396 239.886 167.7 239.321C167.047 238.712 166.286 238.407 165.416 238.407C164.416 238.407 163.545 238.69 162.806 239.256C161.457 240.256 160.544 241.996 160.065 244.476L159.935 245.128H168.418L168.548 244.411L168.744 242.388Z" fill="#DCE4E8"/>
<path d="M229.137 231.034L222.155 265.226H205.712L210.671 240.822H204.798L199.839 265.226H183.395L190.377 231.034H229.137Z" fill="#DCE4E8"/>
<path d="M275.619 231.034L268.637 265.226H252.193L257.152 240.822H251.541L250.366 246.564C249.496 250.914 248.822 253.829 248.343 255.308C247.473 258.048 246.299 260.245 244.82 261.898C243.384 263.508 241.666 264.639 239.665 265.291C238.186 265.77 236.446 266.009 234.445 266.009C232.791 266.009 231.312 265.922 230.007 265.748C228.702 265.574 227.31 265.248 225.831 264.769L227.919 255.96C228.659 256.265 229.507 256.417 230.464 256.417C231.769 256.417 232.813 255.677 233.596 254.198C234.379 252.676 235.228 249.696 236.141 245.259L239.077 231.034H275.619Z" fill="#DCE4E8"/>
<path d="M316.983 240.626C316.983 241.409 316.875 242.344 316.657 243.432L312.22 265.226H297.212L298.06 261.05H297.799C296.146 262.877 294.297 264.16 292.253 264.9C290.252 265.639 287.902 266.009 285.205 266.009C281.899 266.009 279.333 265.313 277.506 263.921C275.722 262.529 274.83 260.419 274.83 257.592C274.83 255.764 275.178 254.111 275.874 252.632C276.744 250.762 278.223 249.087 280.311 247.608C282.443 246.129 284.901 245.128 287.685 244.606C290.513 244.084 294.341 243.823 299.169 243.823H301.584L301.779 242.779L301.845 242.061C301.845 241.061 301.388 240.278 300.474 239.712C299.3 238.973 297.451 238.603 294.928 238.603C293.231 238.603 291.165 238.864 288.729 239.386C286.293 239.908 284.118 240.539 282.204 241.278L284.031 232.339C286.684 231.643 289.447 231.121 292.318 230.773C295.189 230.425 297.908 230.251 300.474 230.251C306.826 230.251 311.35 231.469 314.047 233.905C316.004 235.645 316.983 237.885 316.983 240.626ZM300.213 250.348H299.365C297.364 250.348 296.059 250.414 295.45 250.544C294.884 250.631 294.188 250.871 293.362 251.262C292.579 251.654 291.97 252.197 291.535 252.893C291.143 253.589 290.948 254.307 290.948 255.047C290.948 255.917 291.252 256.569 291.861 257.004C292.47 257.396 293.231 257.592 294.145 257.592C295.58 257.592 296.777 257.178 297.734 256.352C298.734 255.482 299.43 254.111 299.822 252.241L300.213 250.348Z" fill="#DCE4E8"/>
<path d="M357.256 231.034L355.233 240.822H346.098L341.138 265.226H324.695L329.654 240.822H320.519L322.541 231.034H357.256Z" fill="#DCE4E8"/>
<path d="M396 240.626C396 241.409 395.891 242.344 395.674 243.432L391.237 265.226H376.228L377.077 261.05H376.816C375.163 262.877 373.314 264.16 371.269 264.9C369.268 265.639 366.919 266.009 364.222 266.009C360.916 266.009 358.349 265.313 356.522 263.921C354.739 262.529 353.847 260.419 353.847 257.592C353.847 255.764 354.195 254.111 354.891 252.632C355.761 250.762 357.24 249.087 359.328 247.608C361.46 246.129 363.918 245.128 366.702 244.606C369.529 244.084 373.357 243.823 378.186 243.823H380.6L380.796 242.779L380.861 242.061C380.861 241.061 380.405 240.278 379.491 239.712C378.317 238.973 376.468 238.603 373.945 238.603C372.248 238.603 370.182 238.864 367.746 239.386C365.31 239.908 363.134 240.539 361.22 241.278L363.047 232.339C365.701 231.643 368.463 231.121 371.335 230.773C374.206 230.425 376.924 230.251 379.491 230.251C385.842 230.251 390.367 231.469 393.064 233.905C395.021 235.645 396 237.885 396 240.626ZM379.23 250.348H378.382C376.381 250.348 375.076 250.414 374.467 250.544C373.901 250.631 373.205 250.871 372.379 251.262C371.596 251.654 370.987 252.197 370.552 252.893C370.16 253.589 369.964 254.307 369.964 255.047C369.964 255.917 370.269 256.569 370.878 257.004C371.487 257.396 372.248 257.592 373.162 257.592C374.597 257.592 375.793 257.178 376.751 256.352C377.751 255.482 378.447 254.111 378.839 252.241L379.23 250.348Z" fill="#DCE4E8"/>
<path d="M201.667 145.961C201.216 135.609 200.18 124.174 198.561 111.655C197.021 99.6664 195.215 88.6526 193.145 78.6137C191.406 69.7405 188.818 61.055 185.417 52.677C182.372 45.4187 178.761 39.7914 174.584 35.7952C172.642 33.8659 170.337 32.3417 167.802 31.3111C165.266 30.2804 162.551 29.764 159.814 29.7917C155.557 29.6397 151.407 31.1482 148.241 33.9986L131.937 48.9847C135.103 46.1334 139.252 44.622 143.51 44.7687C146.246 44.7418 148.96 45.2578 151.495 46.2867C154.031 47.3156 156.336 48.8371 158.28 50.7632C162.451 54.7594 166.062 60.3867 169.113 67.645C172.5 76.0243 175.072 84.7098 176.796 93.5817C178.866 103.627 180.672 114.64 182.212 126.623C183.831 139.148 184.869 150.583 185.327 160.929C185.845 169.852 185.498 178.804 184.289 187.66C183.133 195.129 181.027 200.94 177.969 205.092C177.354 205.923 176.662 206.694 175.902 207.394L192.206 192.417C192.961 191.715 193.65 190.944 194.264 190.115C197.34 185.951 199.446 180.14 200.584 172.683C201.806 163.831 202.169 154.882 201.667 145.961Z" fill="url(#paint0_linear_196_75)"/>
<path d="M224.615 218.119C213.559 223.482 200.4 226.163 185.137 226.163C169.357 226.163 155.213 223.403 142.707 217.884C130.353 212.483 119.301 204.494 110.297 194.457C100.853 183.787 93.3577 171.539 88.1522 158.274C82.2426 143.305 78.2743 127.641 76.3439 111.664C74.105 94.3128 74.081 78.7249 76.2717 64.9004C78.4624 51.0759 82.877 39.3399 89.5154 29.6922C92.2093 25.7903 95.3279 22.1994 98.8139 18.9854L82.5008 34.0075C79.013 37.2172 75.8969 40.8087 73.2113 44.7144C66.5609 54.344 62.1433 66.08 59.9586 79.9226C57.7739 93.7651 57.7979 109.35 60.0308 126.677C61.9648 142.643 65.9363 158.295 71.8481 173.251C77.0479 186.522 84.5441 198.773 93.9931 209.444C102.991 219.498 114.044 227.502 126.403 232.916C138.915 238.441 153.059 241.2 168.833 241.194C184.09 241.194 197.249 238.513 208.311 233.15C214.305 230.277 219.844 226.539 224.751 222.055L241.055 207.069C236.149 211.541 230.609 215.265 224.615 218.119Z" fill="url(#paint1_linear_196_75)"/>
<path d="M252.701 65.2886C258.388 79.0649 262.339 94.5234 264.554 111.664C266.817 129.22 266.817 145.046 264.554 159.141C262.291 173.236 257.841 185.249 251.202 195.18C244.575 205.087 235.387 213.014 224.615 218.119C213.559 223.482 200.403 226.163 185.146 226.163C169.36 226.163 155.216 223.403 142.716 217.884C130.362 212.483 119.31 204.494 110.306 194.457C100.862 183.786 93.3667 171.539 88.1612 158.274C82.2516 143.305 78.2833 127.641 76.3529 111.664C74.1141 94.3128 74.09 78.7249 76.2807 64.9004C78.4714 51.0759 82.886 39.3399 89.5244 29.6922C96.1938 20.0696 105.361 12.4477 116.039 7.64649C127.089 2.54883 140.399 0 155.969 0C171.737 0 185.862 2.603 198.345 7.80899C210.579 12.8424 221.584 20.4541 230.61 30.1256C239.638 39.7973 247.001 51.5183 252.701 65.2886ZM201.667 145.96C201.216 135.609 200.18 124.174 198.561 111.655C197.021 99.6662 195.215 88.6524 193.145 78.6135C191.406 69.7403 188.818 61.0548 185.417 52.6768C182.372 45.4185 178.761 39.7943 174.584 35.804C172.644 33.8719 170.339 32.3452 167.804 31.3129C165.268 30.2807 162.552 29.7635 159.814 29.7915C149.583 29.7915 143.23 36.5202 140.757 49.9776C138.283 63.4349 138.822 83.9911 142.373 111.646C144.178 125.422 146.234 137.565 148.539 148.073C150.423 157.151 153.174 166.026 156.754 174.578C159.896 181.716 163.483 187.133 167.515 190.828C171.223 194.383 176.164 196.364 181.3 196.353C186.861 196.353 191.18 194.277 194.255 190.124C197.331 185.971 199.437 180.161 200.575 172.692C201.801 163.837 202.167 154.885 201.667 145.96Z" fill="url(#paint2_linear_196_75)"/>
<path d="M201.125 111.339C199.582 99.3145 197.74 88.1291 195.709 78.1083C193.951 69.0701 191.33 60.2214 187.882 51.6841C184.722 44.146 180.876 38.1425 176.453 33.9537C174.276 31.8007 171.695 30.0996 168.858 28.9484C166.021 27.7972 162.984 27.2186 159.923 27.246C148.349 27.246 141.091 34.7481 138.356 49.5265C135.828 63.2035 136.36 84.2111 139.944 111.989C141.75 125.775 143.808 138.107 146.147 148.651C148.07 157.89 150.876 166.923 154.524 175.626C157.792 183.074 161.62 188.824 165.899 192.724C170.08 196.706 175.635 198.924 181.409 198.917C187.8 198.917 192.847 196.471 196.422 191.65C199.726 187.181 202.019 180.943 203.229 173.089C204.46 164.066 204.814 154.944 204.285 145.852C203.798 135.507 202.75 123.888 201.125 111.339ZM200.665 172.728C199.509 180.191 197.403 186.002 194.346 190.161C191.288 194.319 186.97 196.396 181.391 196.39C176.255 196.395 171.316 194.416 167.605 190.865C163.573 187.181 159.986 181.765 156.844 174.615C153.264 166.063 150.513 157.187 148.629 148.109C146.3 137.601 144.245 125.459 142.463 111.682C138.894 83.9974 138.359 63.4413 140.856 50.014C143.354 36.5867 149.697 29.846 159.887 29.7919C162.622 29.7622 165.335 30.2768 167.869 31.306C170.403 32.3351 172.707 33.8581 174.647 35.7863C178.824 39.7765 182.435 45.4008 185.48 52.6591C188.863 61.0429 191.435 69.7311 193.163 78.6048C195.227 88.6437 197.033 99.6575 198.58 111.646C200.193 124.159 201.228 135.594 201.685 145.952C202.214 154.88 201.873 163.839 200.665 172.701V172.728Z" fill="url(#paint3_linear_196_75)"/>
<path d="M264.626 111.664C262.417 94.5234 258.466 79.0649 252.773 65.2886C247.079 51.5123 239.716 39.7913 230.682 30.1256C221.656 20.4541 210.651 12.8424 198.417 7.80899C185.941 2.603 171.815 0 156.041 0C140.471 0 127.161 2.54883 116.111 7.64649C105.423 12.4527 96.2514 20.0884 89.5875 29.7283C82.9371 39.3579 78.5195 51.094 76.3348 64.9365C74.1501 78.779 74.1741 94.3669 76.407 111.7C78.336 127.678 82.3075 143.343 88.2243 158.31C93.4264 171.577 100.922 183.825 110.369 194.494C119.368 204.532 130.417 212.521 142.77 217.921C155.294 223.446 169.438 226.205 185.2 226.199C200.445 226.199 213.605 223.518 224.679 218.155C235.475 213.05 244.683 205.109 251.319 195.18C257.976 185.243 262.433 173.23 264.689 159.141C266.946 145.052 266.925 129.226 264.626 111.664ZM262.153 158.735C259.977 172.367 255.608 184.148 249.189 193.753C242.799 203.271 233.965 210.892 223.613 215.817C212.952 220.99 200.051 223.608 185.254 223.608C169.907 223.608 155.968 220.9 143.844 215.546C131.825 210.279 121.068 202.508 112.292 192.751C103.06 182.29 95.727 170.295 90.6257 157.308C84.805 142.543 80.8915 127.095 78.9799 111.339C76.7862 94.3218 76.7591 78.8392 78.8987 65.2976C81.0112 51.9185 85.3264 40.4443 91.7271 31.1908C98.127 21.9255 106.927 14.5762 117.185 9.93051C127.847 5.01942 140.928 2.51874 156.005 2.51874C171.352 2.51874 185.3 5.08262 197.397 10.1291C209.283 15.0291 219.983 22.4168 228.777 31.7957C237.597 41.2748 244.856 52.8484 250.417 66.2726C255.978 79.6969 259.923 95.1614 262.099 111.989C264.31 129.241 264.319 144.967 262.153 158.735Z" fill="url(#paint4_linear_196_75)"/>
<path d="M236.956 154.672L223.902 143.018L232.56 155.702L245.614 167.365L236.956 154.672Z" fill="#FFDF3E"/>
<path d="M241.1 84.1748C241.874 84.9897 242.903 85.5153 244.016 85.6644C242.902 85.5175 241.872 84.9915 241.1 84.1748Z" fill="#A6A6A6"/>
<path d="M258.542 53.6702C258.171 53.1686 257.701 52.7491 257.16 52.4384C256.619 52.1276 256.02 51.9323 255.4 51.8647C254.095 51.5639 252.728 51.6905 251.5 52.2258C250.2 52.8827 249.067 53.8275 248.187 54.9883C246.94 56.5957 245.902 58.3552 245.099 60.2244C244.051 62.583 243.123 64.9935 242.319 67.4465C241.513 69.8708 240.835 72.3357 240.288 74.8312C239.848 76.6962 239.681 78.6149 239.791 80.5277C239.838 81.7058 240.2 82.8497 240.838 83.8409L249.514 96.5339C249.514 96.4797 249.451 96.4166 249.415 96.3534L249.758 96.8589C250.6 97.7402 251.731 98.2883 252.945 98.4027L248.431 91.7853C248.472 90.3542 248.65 88.9303 248.963 87.5333C249.51 85.0378 250.188 82.5728 250.995 80.1486C251.798 77.6956 252.726 75.285 253.775 72.9264C254.58 71.0555 255.618 69.2933 256.863 67.6813C257.745 66.5255 258.878 65.5843 260.176 64.9278C261.403 64.3925 262.771 64.2659 264.076 64.5667C264.696 64.6343 265.295 64.8296 265.836 65.1404C266.376 65.4511 266.847 65.8706 267.217 66.3722L258.542 53.6702Z" fill="url(#paint5_linear_196_75)"/>
<path d="M285.977 62.77C285.494 61.6537 284.904 60.5865 284.217 59.5832L275.559 46.9443C276.249 47.9462 276.839 49.0136 277.32 50.1311C278.735 53.5597 279.37 57.2601 279.179 60.9644C278.994 65.2705 278.188 69.5274 276.787 73.6032C275.421 77.8677 273.467 81.9209 270.982 85.6462C268.702 89.0713 265.857 92.0843 262.568 94.5566C259.415 96.9075 255.824 98.6049 252.006 99.549C248.094 100.491 244.028 100.602 240.071 99.874C235.935 99.2705 232.004 97.6856 228.606 95.2518C226.856 93.9433 225.331 92.3576 224.092 90.5573L232.741 103.196C233.985 104.995 235.509 106.583 237.254 107.9C240.65 110.336 244.583 111.918 248.72 112.513C252.676 113.248 256.743 113.14 260.654 112.197C264.471 111.249 268.062 109.552 271.217 107.204C274.502 104.727 277.346 101.715 279.631 98.2941C282.115 94.5688 284.069 90.5155 285.436 86.2511C286.837 82.1752 287.643 77.9184 287.828 73.6123C288.025 69.9055 287.393 66.2015 285.977 62.77Z" fill="url(#paint6_linear_196_75)"/>
<path d="M340.107 58.2378L348.765 70.9308L245.614 167.365L236.957 154.672L340.107 58.2378Z" fill="url(#paint7_linear_196_75)"/>
<path d="M323.144 117.361L322.964 117.117C322.123 116.186 320.963 115.606 319.714 115.492C318.478 115.217 317.185 115.36 316.039 115.898C314.758 116.592 313.641 117.552 312.762 118.715C311.528 120.341 310.497 122.111 309.693 123.987C308.649 126.344 307.73 128.755 306.939 131.209C304.845 137.583 304.051 142.295 304.574 145.229C304.705 146.07 305.012 146.873 305.477 147.585L314.134 160.278C313.67 159.566 313.362 158.763 313.232 157.922C312.708 154.988 313.503 150.267 315.597 143.902C316.389 141.463 317.308 139.068 318.35 136.725C319.155 134.846 320.186 133.073 321.42 131.444C322.299 130.284 323.416 129.327 324.697 128.636C325.843 128.098 327.135 127.955 328.371 128.23C329.619 128.341 330.78 128.918 331.621 129.846L331.802 130.099L323.144 117.361Z" fill="url(#paint8_linear_196_75)"/>
<path d="M277.32 50.077C275.925 46.8798 273.699 44.1147 270.874 42.0694C267.642 39.8174 263.935 38.3408 260.04 37.7542C255.93 36.9826 251.707 37.0379 247.618 37.9167C243.757 38.7803 240.117 40.4373 236.929 42.7826C233.644 45.2394 230.819 48.2593 228.588 51.702C226.128 55.4878 224.187 59.587 222.819 63.8895C221.476 67.8422 220.686 71.9618 220.472 76.1311C220.259 79.8088 220.844 83.489 222.187 86.9192C223.536 90.2152 225.754 93.0828 228.606 95.2157C232.004 97.6496 235.935 99.2345 240.071 99.8379C244.028 100.566 248.094 100.455 252.006 99.5129C255.824 98.5689 259.415 96.8715 262.568 94.5206C265.857 92.0482 268.702 89.0353 270.982 85.6102C273.467 81.8849 275.421 77.8316 276.787 73.5672C278.188 69.4913 278.994 65.2345 279.179 60.9284C279.373 57.218 278.738 53.5112 277.32 50.077ZM257.061 70.0554C256.281 72.4892 255.377 74.8816 254.353 77.2234C253.544 79.1019 252.511 80.8753 251.275 82.5047C250.401 83.6694 249.282 84.628 247.997 85.3123C246.853 85.8551 245.559 85.9981 244.323 85.7185L244.043 85.6644H243.953L243.773 85.6192H243.673H243.511H243.402H243.267H243.159H243.023H242.924L242.798 85.5651H242.707L242.581 85.5109H242.491L242.382 85.4567L242.292 85.4116L242.184 85.3574L242.102 85.3033L242.003 85.2491L241.922 85.1949L241.823 85.1317L241.75 85.0776L241.66 85.0144L241.588 84.9512L241.507 84.888C241.487 84.8624 241.462 84.8409 241.434 84.8248C241.413 84.7985 241.388 84.7743 241.362 84.7526L241.299 84.6894L241.227 84.6081L241.136 84.5088L241.073 84.4276C240.319 83.3904 239.892 82.152 239.845 80.8707C239.735 78.9578 239.903 77.0391 240.342 75.1741C240.889 72.6787 241.567 70.2137 242.373 67.7895C243.177 65.3364 244.105 62.9259 245.154 60.5673C245.957 58.6981 246.994 56.9386 248.241 55.3312C249.121 54.1704 250.254 53.2256 251.554 52.5687C252.782 52.0334 254.149 51.9068 255.454 52.2076C257.793 52.6229 259.065 53.9138 259.472 56.3874C259.95 58.9603 259.156 63.6818 257.061 70.0554Z" fill="url(#paint9_linear_196_75)"/>
<path d="M327.089 46.4751L223.902 143.018L236.956 154.673L340.107 58.2382L327.089 46.4751Z" fill="url(#paint10_linear_196_75)"/>
<path d="M341.823 114.355C340.472 111.063 338.254 108.199 335.404 106.067C332.006 103.633 328.075 102.048 323.939 101.445C319.982 100.717 315.916 100.828 312.004 101.77C308.187 102.716 304.596 104.413 301.442 106.762C298.153 109.231 295.308 112.241 293.028 115.664C290.536 119.393 288.58 123.453 287.214 127.725C285.824 131.804 285.018 136.059 284.822 140.363C284.636 144.068 285.271 147.767 286.681 151.197C288.082 154.388 290.307 157.149 293.127 159.195C296.359 161.449 300.065 162.928 303.96 163.52C308.072 164.3 312.298 164.254 316.392 163.384C320.252 162.524 323.89 160.867 327.071 158.518C330.361 156.063 333.191 153.047 335.431 149.608C337.881 145.815 339.818 141.713 341.191 137.411C342.534 133.459 343.324 129.339 343.538 125.17C343.748 121.483 343.163 117.795 341.823 114.355ZM323.704 126.389C323.153 128.884 322.472 131.349 321.664 133.773C320.866 136.227 319.941 138.638 318.892 140.995C318.09 142.867 317.049 144.627 315.796 146.232C314.919 147.392 313.789 148.336 312.492 148.994C311.263 149.524 309.897 149.651 308.592 149.355C306.254 148.94 304.981 147.649 304.574 145.166C304.051 142.232 304.845 137.52 306.94 131.146C307.73 128.692 308.649 126.282 309.693 123.924C310.498 122.048 311.528 120.278 312.763 118.652C313.641 117.489 314.758 116.529 316.04 115.835C317.186 115.297 318.478 115.154 319.714 115.429C320.963 115.543 322.123 116.123 322.964 117.054C323.723 118.089 324.154 119.328 324.201 120.611C324.313 122.551 324.146 124.496 323.704 126.389Z" fill="url(#paint11_linear_196_75)"/>
<path d="M350.48 127.047C349.966 125.779 349.318 124.568 348.548 123.436L339.89 110.743C340.657 111.877 341.304 113.087 341.822 114.354C343.165 117.8 343.75 121.495 343.538 125.188C343.324 129.357 342.534 133.476 341.19 137.429C339.818 141.731 337.881 145.832 335.431 149.626C333.19 153.065 330.36 156.081 327.071 158.536C323.889 160.885 320.251 162.542 316.391 163.402C312.298 164.272 308.072 164.318 303.96 163.537C300.065 162.946 296.358 161.467 293.127 159.213C291.303 157.88 289.719 156.247 288.441 154.383L297.099 167.013C298.374 168.876 299.959 170.506 301.784 171.834C305.015 174.09 308.722 175.573 312.618 176.167C316.73 176.943 320.955 176.897 325.049 176.032C328.908 175.168 332.545 173.511 335.729 171.166C339.018 168.707 341.848 165.688 344.088 162.246C346.54 158.457 348.477 154.359 349.848 150.059C351.192 146.106 351.981 141.987 352.195 137.817C352.399 134.146 351.814 130.474 350.48 127.047Z" fill="url(#paint12_linear_196_75)"/>
<path d="M255.833 49.3185C255.181 49.2031 254.519 49.1427 253.856 49.1379C252.652 49.1215 251.46 49.3809 250.372 49.8963C248.729 50.7171 247.296 51.9029 246.183 53.3629C244.801 55.1404 243.649 57.0846 242.752 59.1497C241.669 61.6033 240.711 64.1102 239.881 66.6608C239.045 69.1673 238.343 71.7168 237.778 74.2983C237.289 76.4067 237.103 78.5742 237.227 80.735C237.309 82.5143 237.922 84.2282 238.988 85.6551L239.177 85.8899L239.412 86.1517L239.647 86.3774L239.899 86.594L240.324 86.919L240.604 87.0996L240.911 87.2711L241.199 87.4246L241.479 87.551L241.804 87.6864L242.156 87.8128L242.454 87.9121L242.752 88.0024L243.122 88.0926L243.465 88.1649L243.808 88.2371C244.404 88.343 245.009 88.3973 245.614 88.3996C246.83 88.4135 248.031 88.1348 249.117 87.5871C250.729 86.7358 252.135 85.5399 253.233 84.0843C254.601 82.2891 255.744 80.3337 256.637 78.2614C257.71 75.8407 258.659 73.3669 259.481 70.8497C261.728 63.9795 262.541 58.9872 261.936 55.5747C261.331 52.1622 259.273 49.9234 255.833 49.3185ZM257.034 70.0823C256.254 72.5161 255.35 74.9085 254.326 77.2503C253.517 79.1288 252.483 80.9022 251.247 82.5315C250.374 83.6963 249.255 84.6548 247.97 85.3392C246.825 85.882 245.532 86.025 244.296 85.7454L244.016 85.6913H243.926L243.745 85.6461H243.646H243.483H243.375H243.24H243.131H242.996H242.897L242.77 85.5919H242.68L242.554 85.5378H242.463L242.355 85.4836L242.265 85.4385L242.156 85.3843L242.075 85.3301L241.976 85.276L241.895 85.2218L241.795 85.1586L241.723 85.1045L241.633 85.0413L241.561 84.9781L241.479 84.9149C241.46 84.8892 241.435 84.8677 241.407 84.8517C241.385 84.8254 241.361 84.8012 241.335 84.7795L241.272 84.7163L241.199 84.635L241.109 84.5357L241.046 84.4545C240.292 83.4173 239.865 82.1789 239.818 80.8975C239.708 78.9847 239.875 77.066 240.315 75.201C240.862 72.7055 241.54 70.2406 242.346 67.8163C243.15 65.3633 244.078 62.9528 245.126 60.5941C245.93 58.725 246.967 56.9655 248.214 55.3581C249.094 54.1973 250.227 53.2525 251.527 52.5956C252.755 52.0603 254.122 51.9337 255.427 52.2345C257.765 52.6497 259.038 53.9407 259.444 56.4143C259.95 58.9601 259.156 63.6816 257.061 70.0552L257.034 70.0823Z" fill="url(#paint13_linear_196_75)"/>
<path d="M277.32 50.077C275.925 46.8798 273.699 44.1147 270.874 42.0694C267.642 39.8174 263.935 38.3408 260.04 37.7542C255.93 36.9826 251.707 37.0379 247.618 37.9167C243.757 38.7803 240.117 40.4373 236.929 42.7826C233.644 45.2394 230.819 48.2593 228.588 51.702C226.128 55.4878 224.187 59.587 222.819 63.8895C221.476 67.8422 220.686 71.9618 220.472 76.1311C220.259 79.8088 220.844 83.489 222.187 86.9192C223.536 90.2152 225.754 93.0828 228.606 95.2157C232.004 97.6496 235.935 99.2345 240.071 99.8379C244.028 100.566 248.094 100.455 252.006 99.5129C255.824 98.5689 259.415 96.8715 262.568 94.5206C265.857 92.0482 268.702 89.0353 270.982 85.6102C273.467 81.8849 275.421 77.8316 276.787 73.5672C278.188 69.4913 278.994 65.2345 279.179 60.9284C279.373 57.218 278.738 53.5112 277.32 50.077ZM276.597 60.793C276.417 64.8621 275.654 68.8844 274.331 72.7367C273.04 76.7752 271.189 80.6131 268.833 84.1387C266.714 87.32 264.074 90.1217 261.025 92.4262C258.139 94.5736 254.855 96.1263 251.365 96.9942C249.4 97.4769 247.384 97.7194 245.361 97.7164C243.727 97.7132 242.096 97.5682 240.486 97.2831C236.758 96.7514 233.211 95.3369 230.141 93.1574C227.653 91.3016 225.715 88.8055 224.534 85.9352C223.329 82.8393 222.806 79.5199 223 76.2033C223.207 72.2709 223.954 68.3857 225.221 64.6568C226.52 60.575 228.359 56.6856 230.691 53.0923C232.752 49.8956 235.369 47.0947 238.419 44.8229C241.323 42.6824 244.64 41.1698 248.16 40.3813C250.052 39.9663 251.983 39.7605 253.92 39.7674C255.815 39.7738 257.706 39.946 259.571 40.2819C263.091 40.7985 266.446 42.1174 269.375 44.1368C271.832 45.9144 273.768 48.3178 274.981 51.0972C276.23 54.1698 276.782 57.4813 276.597 60.793Z" fill="url(#paint14_linear_196_75)"/>
<path d="M327.089 46.4751L223.902 143.018L236.956 154.673L340.107 58.2382L327.089 46.4751ZM236.92 151.197L227.694 142.955L327.153 49.9508L336.361 58.2744L236.92 151.197Z" fill="url(#paint15_linear_196_75)"/>
<path d="M341.823 114.355C340.472 111.063 338.254 108.199 335.404 106.067C332.006 103.633 328.075 102.048 323.939 101.445C319.982 100.717 315.916 100.828 312.004 101.77C308.187 102.716 304.596 104.413 301.442 106.762C298.153 109.231 295.308 112.241 293.028 115.664C290.536 119.393 288.58 123.453 287.214 127.725C285.824 131.804 285.018 136.059 284.822 140.363C284.636 144.068 285.271 147.767 286.681 151.197C288.082 154.388 290.307 157.149 293.127 159.195C296.359 161.449 300.065 162.928 303.96 163.52C308.072 164.3 312.298 164.254 316.392 163.384C320.252 162.524 323.89 160.867 327.071 158.518C330.361 156.063 333.191 153.047 335.431 149.608C337.881 145.815 339.818 141.713 341.191 137.411C342.534 133.459 343.324 129.339 343.538 125.17C343.748 121.483 343.163 117.795 341.823 114.355ZM340.983 125.052C340.777 128.985 340.029 132.87 338.762 136.599C337.458 140.681 335.618 144.573 333.292 148.172C331.223 151.366 328.604 154.166 325.555 156.442C322.658 158.58 319.346 160.09 315.832 160.875C313.928 161.288 311.985 161.494 310.036 161.488C308.147 161.481 306.263 161.312 304.403 160.983C300.897 160.447 297.561 159.112 294.653 157.083C292.193 155.306 290.254 152.902 289.038 150.122C287.782 147.054 287.218 143.747 287.386 140.436C287.574 136.368 288.337 132.346 289.651 128.492C290.947 124.452 292.797 120.612 295.149 117.081C297.272 113.899 299.915 111.098 302.967 108.794C305.854 106.648 309.137 105.096 312.627 104.225C314.592 103.743 316.608 103.5 318.631 103.503C320.262 103.506 321.89 103.651 323.496 103.937C327.227 104.468 330.777 105.883 333.851 108.062C336.339 109.918 338.277 112.414 339.458 115.284C340.661 118.393 341.181 121.725 340.983 125.052Z" fill="url(#paint16_linear_196_75)"/>
<path d="M324.995 115.555C323.773 114.112 322.045 113.191 320.165 112.982C319.569 112.875 318.965 112.82 318.36 112.82C317.145 112.808 315.945 113.083 314.857 113.623C313.24 114.483 311.829 115.685 310.722 117.144C309.36 118.934 308.22 120.884 307.328 122.949C306.308 125.242 305.351 127.743 304.484 130.37C302.227 137.249 301.424 142.241 302.028 145.645C302.66 149.192 304.737 151.296 308.122 151.901C308.772 152.016 309.43 152.077 310.09 152.081C311.294 152.098 312.486 151.838 313.575 151.323C315.22 150.502 316.656 149.317 317.773 147.856C319.156 146.077 320.309 144.129 321.203 142.061C322.287 139.613 323.245 137.112 324.074 134.567C324.908 132.057 325.61 129.505 326.178 126.921C326.667 124.81 326.853 122.639 326.728 120.475C326.647 118.7 326.044 116.989 324.995 115.555ZM323.704 126.388C323.153 128.884 322.472 131.349 321.664 133.773C320.866 136.227 319.941 138.638 318.892 140.995C318.09 142.867 317.049 144.627 315.796 146.231C314.919 147.391 313.789 148.336 312.492 148.994C311.263 149.524 309.897 149.651 308.592 149.355C306.253 148.94 304.98 147.649 304.574 145.166C304.051 142.232 304.845 137.52 306.939 131.146C307.73 128.692 308.649 126.281 309.693 123.924C310.497 122.048 311.528 120.277 312.762 118.652C313.641 117.489 314.758 116.529 316.039 115.835C317.186 115.297 318.478 115.154 319.714 115.429C320.963 115.543 322.123 116.123 322.964 117.054C323.723 118.088 324.154 119.328 324.2 120.611C324.313 122.55 324.146 124.496 323.704 126.388Z" fill="url(#paint17_linear_196_75)"/>
<defs>
<linearGradient id="paint0_linear_196_75" x1="114.089" y1="70.2631" x2="220.183" y2="159.286" gradientUnits="userSpaceOnUse">
<stop stop-color="#9EABB1"/>
<stop offset="0.11" stop-color="#ADBAC0"/>
<stop offset="0.27" stop-color="#BCC9CF"/>
<stop offset="0.44" stop-color="#CBD5DA"/>
<stop offset="0.66" stop-color="#DAE1E5"/>
<stop offset="0.94" stop-color="#BCC9CF"/>
</linearGradient>
<linearGradient id="paint1_linear_196_75" x1="48.0329" y1="74.2712" x2="226.683" y2="224.168" gradientUnits="userSpaceOnUse">
<stop stop-color="#BCC9CF"/>
<stop offset="0.01" stop-color="#BFCBD1"/>
<stop offset="0.06" stop-color="#D3DDE2"/>
<stop offset="0.12" stop-color="#E0E7EC"/>
<stop offset="0.17" stop-color="#E4EBEF"/>
<stop offset="0.44" stop-color="#BCC9CF"/>
<stop offset="0.53" stop-color="#CBD5DA"/>
<stop offset="0.66" stop-color="#DAE1E5"/>
<stop offset="0.73" stop-color="#C8D1D6"/>
<stop offset="0.94" stop-color="#9EABB1"/>
</linearGradient>
<linearGradient id="paint2_linear_196_75" x1="120.796" y1="5.42567" x2="220.806" y2="219.907" gradientUnits="userSpaceOnUse">
<stop stop-color="white"/>
<stop offset="0.37" stop-color="#E6EBEF"/>
<stop offset="0.73" stop-color="#D5DEE3"/>
<stop offset="1" stop-color="#CFD9DF"/>
</linearGradient>
<linearGradient id="paint3_linear_196_75" x1="135.196" y1="36.4634" x2="206.497" y2="189.375" gradientUnits="userSpaceOnUse">
<stop stop-color="#CDD7DD"/>
<stop offset="0.28" stop-color="#D1DAE0"/>
<stop offset="0.57" stop-color="#DEE4E8"/>
<stop offset="0.86" stop-color="#F2F5F6"/>
<stop offset="1" stop-color="white"/>
</linearGradient>
<linearGradient id="paint4_linear_196_75" x1="120.869" y1="5.42567" x2="220.887" y2="219.907" gradientUnits="userSpaceOnUse">
<stop offset="0.18" stop-color="white"/>
<stop offset="0.7" stop-color="#D8DFE3"/>
<stop offset="1" stop-color="#C6D1D6"/>
</linearGradient>
<linearGradient id="paint5_linear_196_75" x1="241.434" y1="92.2999" x2="262.64" y2="55.5751" gradientUnits="userSpaceOnUse">
<stop offset="0.04" stop-color="#DDB736"/>
<stop offset="0.2" stop-color="#E5C03B"/>
<stop offset="0.38" stop-color="#F5D146"/>
<stop offset="0.66" stop-color="#DDB736"/>
<stop offset="0.96" stop-color="#CC992F"/>
</linearGradient>
<linearGradient id="paint6_linear_196_75" x1="233.851" y1="104.722" x2="289.011" y2="66.1012" gradientUnits="userSpaceOnUse">
<stop stop-color="#FFDF3E"/>
<stop offset="0.04" stop-color="#F9D83D"/>
<stop offset="0.21" stop-color="#E5C038"/>
<stop offset="0.32" stop-color="#DDB736"/>
<stop offset="0.45" stop-color="#ECC839"/>
<stop offset="0.59" stop-color="#FFDF3E"/>
<stop offset="0.8" stop-color="#F5D146"/>
<stop offset="1" stop-color="#FFE84F"/>
</linearGradient>
<linearGradient id="paint7_linear_196_75" x1="241.958" y1="163.709" x2="343.764" y2="61.894" gradientUnits="userSpaceOnUse">
<stop stop-color="#FFDF3E"/>
<stop offset="0.2" stop-color="#F5D146"/>
<stop offset="0.44" stop-color="#DDB736"/>
<stop offset="0.68" stop-color="#F5D146"/>
<stop offset="1" stop-color="#FFE84F"/>
</linearGradient>
<linearGradient id="paint8_linear_196_75" x1="304.637" y1="154.799" x2="325.645" y2="118.408" gradientUnits="userSpaceOnUse">
<stop offset="0.04" stop-color="#DDB736"/>
<stop offset="0.2" stop-color="#E5C03B"/>
<stop offset="0.38" stop-color="#F5D146"/>
<stop offset="0.66" stop-color="#DDB736"/>
<stop offset="0.96" stop-color="#CC992F"/>
</linearGradient>
<linearGradient id="paint9_linear_196_75" x1="237.363" y1="41.934" x2="262.252" y2="95.306" gradientUnits="userSpaceOnUse">
<stop stop-color="#FFDF3E"/>
<stop offset="0.71" stop-color="#F5D146"/>
</linearGradient>
<linearGradient id="paint10_linear_196_75" x1="269.312" y1="73.4139" x2="294.662" y2="127.77" gradientUnits="userSpaceOnUse">
<stop stop-color="#FFDF3E"/>
<stop offset="0.71" stop-color="#F5D146"/>
</linearGradient>
<linearGradient id="paint11_linear_196_75" x1="301.749" y1="105.941" x2="326.647" y2="159.322" gradientUnits="userSpaceOnUse">
<stop stop-color="#FFDF3E"/>
<stop offset="0.71" stop-color="#F5D146"/>
</linearGradient>
<linearGradient id="paint12_linear_196_75" x1="298.246" y1="168.683" x2="353.405" y2="130.063" gradientUnits="userSpaceOnUse">
<stop stop-color="#FFDF3E"/>
<stop offset="0.32" stop-color="#DDB736"/>
<stop offset="0.56" stop-color="#FFDF3E"/>
<stop offset="0.76" stop-color="#F5D146"/>
<stop offset="1" stop-color="#FFE84F"/>
</linearGradient>
<linearGradient id="paint13_linear_196_75" x1="242.599" y1="53.5345" x2="256.808" y2="84.0121" gradientUnits="userSpaceOnUse">
<stop stop-color="#E9C246"/>
<stop offset="1" stop-color="#FBE740"/>
</linearGradient>
<linearGradient id="paint14_linear_196_75" x1="237.363" y1="41.934" x2="262.252" y2="95.306" gradientUnits="userSpaceOnUse">
<stop stop-color="#FFF03E"/>
<stop offset="0.71" stop-color="#EFC946"/>
</linearGradient>
<linearGradient id="paint15_linear_196_75" x1="269.312" y1="73.4139" x2="294.662" y2="127.77" gradientUnits="userSpaceOnUse">
<stop stop-color="#FFF03E"/>
<stop offset="0.71" stop-color="#EFC946"/>
</linearGradient>
<linearGradient id="paint16_linear_196_75" x1="301.749" y1="105.941" x2="326.647" y2="159.322" gradientUnits="userSpaceOnUse">
<stop stop-color="#FFF03E"/>
<stop offset="0.71" stop-color="#EFC946"/>
</linearGradient>
<linearGradient id="paint17_linear_196_75" x1="307.192" y1="117.234" x2="321.411" y2="147.712" gradientUnits="userSpaceOnUse">
<stop stop-color="#E9C246"/>
<stop offset="1" stop-color="#FBE740"/>
</linearGradient>
</defs>
</svg>
