<svg width="46" height="46" viewBox="0 0 46 46" fill="none" xmlns="http://www.w3.org/2000/svg">
<circle opacity="0.13" cx="23" cy="23" r="23" fill="#F0F1F2"/>
<path fill-rule="evenodd" clip-rule="evenodd" d="M33.045 12.9027C32.488 12.3053 31.5456 12.2921 30.9721 12.8736L23.0021 20.9545L15.0325 12.874C14.459 12.2925 13.5166 12.3057 12.9596 12.903C12.4345 13.4661 12.4468 14.343 12.9874 14.8911L20.9849 22.9999L12.988 31.108C12.4474 31.6562 12.4351 32.533 12.9602 33.0961C13.5172 33.6934 14.4596 33.7066 15.0331 33.1251L23.0021 25.0452L30.9715 33.1255C31.545 33.707 32.4874 33.6938 33.0445 33.0965C33.5695 32.5334 33.5572 31.6565 33.0166 31.1084L25.0194 22.9999L33.0172 14.8907C33.5578 14.3426 33.5701 13.4657 33.045 12.9027Z" fill="#868A91"/>
</svg>
