<svg width="360" height="512" viewBox="0 0 360 512" fill="none" xmlns="http://www.w3.org/2000/svg">
<path d="M180 0C80.7 0 0 81.7 0 181C0 216.398 10.2 250.602 29.7 280L180 512L330.3 280C349.8 250.602 360 216.398 360 181C360 81.7 279.3 0 180 0ZM180 271C130.5 271 90 230.5 90 181C90 131.5 130.5 90 180 90C229.5 90 270 131.5 270 181C270 230.5 229.5 271 180 271Z" fill="#07689F"/>
<path d="M360 181C360 216.398 349.8 250.602 330.3 280L180 512V271C229.5 271 270 230.5 270 181C270 131.5 229.5 90 180 90V0C279.3 0 360 81.7 360 181Z" fill="#085885"/>
</svg>
