<svg width="30" height="30" viewBox="0 0 30 30" fill="none" xmlns="http://www.w3.org/2000/svg">
<path fill-rule="evenodd" clip-rule="evenodd" d="M15 2.09302C7.87167 2.09302 2.09302 7.87167 2.09302 15C2.09302 16.9527 2.52597 18.8014 3.30011 20.4579C3.38909 20.6483 3.41869 20.861 3.38505 21.0685L2.39068 27.2016C2.35248 27.4373 2.55691 27.6408 2.79237 27.6016L8.86956 26.5887C9.08001 26.5536 9.29615 26.5837 9.48902 26.6749C11.159 27.4647 13.0264 27.907 15 27.907C22.1283 27.907 27.907 22.1283 27.907 15C27.907 7.87167 22.1283 2.09302 15 2.09302ZM0 15C0 6.71573 6.71573 0 15 0C23.2843 0 30 6.71573 30 15C30 23.2843 23.2843 30 15 30C12.8286 30 10.7625 29.538 8.89684 28.706L3.13646 29.6661C1.48824 29.9408 0.0572126 28.5161 0.324634 26.8667L1.26841 21.0456C0.452558 19.195 0 17.149 0 15Z" fill="#1B1B1B"/>
<path d="M20.5812 19.3411V18.7324C20.5812 17.9764 20.1209 17.2965 19.419 17.0157L18.768 16.7553C18.5385 16.6635 18.299 16.632 18.0675 16.6539C17.1696 16.7388 16.2344 17.3593 15.4386 16.9348C14.9997 16.7006 14.5147 16.3753 14.0696 15.9302C13.6246 15.4852 13.2993 15.0002 13.0651 14.5612C12.6406 13.7655 13.2611 12.8303 13.3459 11.9324C13.3678 11.7009 13.3363 11.4613 13.2445 11.2319L12.9841 10.5809C12.7034 9.87891 12.0235 9.41861 11.2674 9.41861H10.6588C9.97376 9.41861 9.41846 9.97392 9.41846 10.6589C9.41846 16.139 13.8609 20.5814 19.3409 20.5814C20.0259 20.5814 20.5812 20.0261 20.5812 19.3411Z" fill="#1B1B1B"/>
</svg>
