<svg width="80" height="80" viewBox="0 0 80 80" fill="none" xmlns="http://www.w3.org/2000/svg">
<rect x="0.5" y="0.5" width="79" height="79" rx="39.5" stroke="#07689F"/>
<g clip-path="url(#clip0_295_2)">
<path d="M52.9152 61H25.5051C25.3688 61 25.238 60.9458 25.1416 60.8494C25.0451 60.753 24.991 60.6222 24.991 60.4858C24.991 60.3495 25.0451 60.2187 25.1416 60.1223C25.238 60.0259 25.3688 59.9717 25.5051 59.9717H52.401V39.9102C52.401 39.7738 52.4552 39.643 52.5516 39.5466C52.648 39.4502 52.7788 39.396 52.9152 39.396C53.0515 39.396 53.1823 39.4502 53.2787 39.5466C53.3752 39.643 53.4293 39.7738 53.4293 39.9102V60.4858C53.4293 60.6222 53.3752 60.753 53.2787 60.8494C53.1823 60.9458 53.0515 61 52.9152 61ZM18.6526 54.1475C18.5162 54.1475 18.3854 54.0933 18.289 53.9969C18.1926 53.9005 18.1384 53.7697 18.1384 53.6333V18.5142C18.1384 18.3778 18.1926 18.247 18.289 18.1506C18.3854 18.0542 18.5162 18 18.6526 18H52.9152C53.0515 18 53.1823 18.0542 53.2787 18.1506C53.3752 18.247 53.4293 18.3778 53.4293 18.5142V31.8857C53.4293 32.0221 53.3752 32.1529 53.2787 32.2493C53.1823 32.3457 53.0515 32.3999 52.9152 32.3999C52.7788 32.3999 52.648 32.3457 52.5516 32.2493C52.4552 32.1529 52.401 32.0221 52.401 31.8857V19.0283H19.1667V53.6333C19.1667 53.7008 19.1535 53.7677 19.1276 53.8301C19.1018 53.8925 19.0639 53.9491 19.0162 53.9969C18.9684 54.0446 18.9117 54.0825 18.8494 54.1083C18.787 54.1342 18.7201 54.1475 18.6526 54.1475Z" fill="#07689F"/>
<path d="M25.5052 61C25.4376 61 25.3707 60.9867 25.3083 60.9609C25.2459 60.935 25.1892 60.8971 25.1414 60.8493L18.2889 53.9969C18.217 53.925 18.1681 53.8333 18.1483 53.7336C18.1285 53.6339 18.1387 53.5305 18.1776 53.4366C18.2165 53.3427 18.2824 53.2624 18.3669 53.2059C18.4514 53.1494 18.5508 53.1192 18.6525 53.1192H25.505C25.6414 53.1192 25.7722 53.1733 25.8686 53.2698C25.965 53.3662 26.0192 53.497 26.0192 53.6333V60.4858C26.0191 60.6222 25.965 60.7529 25.8686 60.8493C25.7722 60.9457 25.6415 60.9999 25.5052 61ZM19.8938 54.1475L24.9909 59.2445V54.1475H19.8938ZM44.9326 53.1192H48.2039V54.1475H44.9326V53.1192ZM39.3932 51.7694C38.9014 51.7694 38.4107 51.5398 38.1077 51.1499C37.9308 50.9222 37.8063 50.6655 37.7185 50.3985C37.6111 50.4817 37.4956 50.5539 37.3738 50.6141C36.66 50.9656 35.8772 50.8781 35.3504 50.7819C34.7718 50.6759 34.2484 50.5109 33.7824 50.2879C33.6105 50.3651 33.4337 50.431 33.2532 50.4852C32.1948 50.8011 31.1402 50.5917 30.4326 49.9251C30.3356 49.831 30.2796 49.7026 30.2765 49.5675C30.2735 49.4324 30.3237 49.3016 30.4164 49.2033C30.509 49.1049 30.6366 49.047 30.7716 49.042C30.9066 49.037 31.0382 49.0854 31.1378 49.1766C31.5185 49.5353 32.0835 49.6735 32.6868 49.5649C32.5406 49.4344 32.4036 49.2941 32.2767 49.1448C31.3712 48.0794 31.0857 46.5665 31.5663 45.38C31.9772 44.3659 32.9574 43.6425 34.0055 43.5798C34.9892 43.5208 35.9816 44.0068 36.6602 44.8791C37.0063 45.3243 37.205 45.7882 37.2509 46.2579C37.3785 47.5646 36.3574 48.5206 35.5782 49.1261C35.3581 49.2973 35.1383 49.465 34.915 49.623C35.119 49.6833 35.3261 49.7326 35.5354 49.7705C36.1527 49.8835 36.5796 49.859 36.9194 49.6917C37.1987 49.5542 37.4632 49.2335 37.5069 48.8837C37.5051 48.7985 37.5038 48.7133 37.5029 48.628C37.5013 48.4968 37.55 48.3699 37.6389 48.2734C37.7278 48.1769 37.8503 48.118 37.9812 48.1088C38.1121 48.0998 38.2415 48.1411 38.343 48.2243C38.4444 48.3075 38.5103 48.4263 38.527 48.5565C38.5417 48.6713 38.5446 48.7873 38.5366 48.9027C38.5548 49.5453 38.6209 50.1346 38.9196 50.519C39.064 50.7047 39.3162 50.7666 39.4913 50.7318C39.6674 50.6967 39.6985 50.5833 39.7102 50.5408C39.719 50.5087 39.7256 50.475 39.7326 50.4412C39.7705 50.259 39.8278 49.9836 40.0718 49.7896C40.3734 49.5498 40.7313 49.6251 40.866 49.6533C41.1841 49.7202 41.5092 49.8001 41.8235 49.8772C43.283 50.2354 44.6617 50.5737 45.7752 49.8628C45.8901 49.7916 46.0285 49.7685 46.1603 49.7985C46.2921 49.8285 46.4068 49.9093 46.4796 50.0232C46.5523 50.1372 46.5773 50.2752 46.549 50.4074C46.5208 50.5396 46.4416 50.6554 46.3286 50.7296C44.8439 51.6772 43.1091 51.2514 41.5784 50.8759C41.2863 50.8043 41.0089 50.7363 40.7341 50.6766C40.7247 50.7223 40.714 50.7677 40.7019 50.8128C40.57 51.2941 40.1924 51.6408 39.6921 51.7404C39.5936 51.7597 39.4935 51.7694 39.3932 51.7694ZM34.1622 44.6033C34.1303 44.6033 34.0985 44.6042 34.0669 44.6062C33.4063 44.6456 32.7845 45.1118 32.5195 45.766C32.184 46.594 32.4064 47.7095 33.0602 48.4786C33.2692 48.7245 33.5161 48.9391 33.7999 49.1219C34.1872 48.8953 34.5656 48.6106 34.9472 48.314C35.8802 47.589 36.287 46.9674 36.2275 46.3577C36.2008 46.0846 36.0733 45.7995 35.8484 45.5103C35.4082 44.9444 34.7699 44.6033 34.1622 44.6033ZM50.5246 46.2573C50.4589 46.2573 50.3938 46.2446 50.3328 46.22L47.6288 45.1317C47.5024 45.0808 47.4013 44.9817 47.3478 44.8563C47.2944 44.7309 47.2929 44.5893 47.3438 44.4628L54.7429 26.0785C54.7939 25.952 54.893 25.8509 55.0184 25.7974C55.1438 25.744 55.2853 25.7426 55.4118 25.7934L58.1158 26.8817C58.1784 26.9069 58.2355 26.9442 58.2837 26.9915C58.332 27.0387 58.3704 27.095 58.3969 27.1571C58.4233 27.2192 58.4373 27.286 58.438 27.3535C58.4387 27.421 58.4261 27.488 58.4008 27.5506L51.0017 45.9348C50.9635 46.03 50.8976 46.1116 50.8126 46.1691C50.7275 46.2266 50.6273 46.2573 50.5246 46.2573ZM48.4899 44.3697L50.2398 45.074L57.255 27.6438L55.505 26.9394L48.4899 44.3697Z" fill="#07689F"/>
<path d="M57.924 27.8729C57.8583 27.8729 57.7931 27.8603 57.7321 27.8357L55.028 26.7474C54.9654 26.7222 54.9083 26.6849 54.8601 26.6376C54.8118 26.5904 54.7734 26.5341 54.7469 26.4719C54.7205 26.4098 54.7065 26.3431 54.7058 26.2756C54.7052 26.208 54.7178 26.1411 54.743 26.0784L56.4557 21.8231C56.5472 21.5959 56.794 21.4506 57.0699 21.5161L59.748 22.5939C60.0553 22.7176 60.2049 23.0683 60.0814 23.3757L58.4011 27.5507C58.3627 27.6458 58.2968 27.7273 58.2118 27.7847C58.1268 27.8421 58.0266 27.8728 57.924 27.8729ZM55.889 25.9855L57.639 26.6898L58.9677 23.3884L57.2177 22.684L55.889 25.9855ZM46.9193 51.3122C46.8455 51.3122 46.7725 51.2962 46.7054 51.2655C46.6383 51.2348 46.5786 51.1899 46.5304 51.1341C46.4821 51.0782 46.4464 51.0126 46.4258 50.9417C46.4051 50.8708 46.4 50.7964 46.4107 50.7233L47.3122 44.58C47.3235 44.5031 47.3521 44.4297 47.3959 44.3653C47.4396 44.301 47.4974 44.2475 47.5649 44.2088C47.6323 44.17 47.7077 44.1471 47.7853 44.1417C47.8629 44.1363 47.9407 44.1486 48.0129 44.1777L50.7169 45.2659C50.7891 45.2949 50.8538 45.34 50.906 45.3976C50.9583 45.4553 50.9968 45.524 51.0186 45.5987C51.0404 45.6734 51.045 45.752 51.032 45.8287C51.019 45.9054 50.9887 45.9782 50.9435 46.0415L47.3381 51.0965C47.2905 51.1633 47.2277 51.2176 47.1549 51.2552C47.082 51.2927 47.0013 51.3122 46.9193 51.3122ZM48.2349 45.3755L47.7373 48.7658L49.7271 45.9761L48.2349 45.3755Z" fill="#07689F"/>
<path d="M56.2738 37.0862C56.1897 37.0862 56.1068 37.0656 56.0325 37.0261C55.9583 36.9866 55.8948 36.9295 55.8477 36.8598C55.8007 36.7901 55.7714 36.7099 55.7625 36.6262C55.7537 36.5426 55.7655 36.458 55.7969 36.38L59.8187 26.3872C59.8626 26.2781 59.8021 26.1515 59.7621 26.0857C59.6655 25.9268 59.4905 25.7875 59.2817 25.7034C59.2178 25.6791 59.1593 25.6423 59.1098 25.5952C59.0603 25.548 59.0206 25.4915 58.9932 25.4289C58.9658 25.3662 58.9512 25.2987 58.9502 25.2304C58.9491 25.162 58.9618 25.0941 58.9873 25.0307C59.0128 24.9673 59.0508 24.9096 59.0989 24.861C59.147 24.8124 59.2043 24.7738 59.2674 24.7477C59.3306 24.7215 59.3984 24.7082 59.4667 24.7085C59.5351 24.7088 59.6027 24.7227 59.6656 24.7495C60.082 24.9171 60.4284 25.202 60.641 25.5517C60.879 25.9434 60.9269 26.3879 60.7726 26.7712L56.7509 36.764C56.7126 36.8591 56.6466 36.9407 56.5616 36.9981C56.4766 37.0555 56.3764 37.0862 56.2738 37.0862ZM23.0525 23.2029H30.3597V24.2312H23.0525V23.2029ZM23.0525 28.3098H47.8082V29.3381H23.0525V28.3098ZM23.0525 31.7143H47.8082V32.7426H23.0525V31.7143ZM23.0525 35.119H47.8082V36.1473H23.0525V35.119Z" fill="#07689F"/>
</g>
<defs>
<clipPath id="clip0_295_2">
<rect width="43" height="43" fill="white" transform="translate(18 18)"/>
</clipPath>
</defs>
</svg>
