<svg width="80" height="80" viewBox="0 0 80 80" fill="none" xmlns="http://www.w3.org/2000/svg">
<rect x="0.5" y="0.5" width="79" height="79" rx="39.5" stroke="#07689F"/>
<path d="M44.0863 49.0718C45.659 49.0718 47.1964 48.6054 48.5041 47.7317C49.8118 46.8579 50.831 45.616 51.4328 44.1629C52.0346 42.7099 52.1921 41.1111 51.8853 39.5686C51.5784 38.026 50.821 36.6092 49.7089 35.4971C48.5968 34.385 47.1799 33.6277 45.6374 33.3209C44.0949 33.0142 42.496 33.1717 41.043 33.7736C39.59 34.3755 38.3481 35.3947 37.4744 36.7025C36.6007 38.0102 36.1344 39.5476 36.1345 41.1203C36.1369 43.2285 36.9755 45.2496 38.4662 46.7403C39.957 48.2309 41.9781 49.0694 44.0863 49.0718ZM44.0863 34.512C45.3932 34.512 46.6708 34.8996 47.7575 35.6257C48.8442 36.3518 49.6911 37.3838 50.1913 38.5912C50.6914 39.7987 50.8223 41.1273 50.5674 42.4092C50.3124 43.691 49.6831 44.8684 48.759 45.7926C47.8348 46.7168 46.6574 47.3461 45.3756 47.6011C44.0938 47.8561 42.7651 47.7253 41.5577 47.2252C40.3502 46.7251 39.3181 45.8782 38.592 44.7915C37.8659 43.7048 37.4783 42.4273 37.4782 41.1203C37.4801 39.3683 38.1769 37.6886 39.4157 36.4497C40.6546 35.2108 42.3343 34.514 44.0863 34.512ZM21.7443 60H33.3435C33.806 59.9995 34.2493 59.8155 34.5763 59.4885C34.9033 59.1615 35.0872 58.7182 35.0878 58.2557V53.7626H54.4642C54.5794 53.7626 54.6927 53.733 54.7931 53.6766C57.5394 52.1353 59.1488 50.1588 59.5777 47.8022C60.5365 42.5329 55.5044 36.5497 51.4608 31.7422C50.8352 30.9983 50.2306 30.2791 49.6841 29.6033C52.5715 30.2262 55.3348 31.3263 57.8604 32.8582C58.0127 32.9489 58.1948 32.9757 58.3669 32.9327C58.5389 32.8897 58.687 32.7804 58.7788 32.6287C58.8706 32.477 58.8987 32.2952 58.857 32.1228C58.8153 31.9504 58.7071 31.8016 58.5561 31.7086C56.1405 30.2432 53.5164 29.153 50.7736 28.4752C56.3947 26.7356 57.4514 25.3258 57.7209 24.3745C57.7459 24.2893 57.7537 24.2001 57.744 24.1119C57.7343 24.0237 57.7072 23.9383 57.6642 23.8606C57.6213 23.783 57.5635 23.7146 57.494 23.6594C57.4245 23.6042 57.3448 23.5633 57.2594 23.5392C57.174 23.515 57.0847 23.5079 56.9966 23.5184C56.9085 23.5289 56.8234 23.5568 56.7461 23.6004C56.6688 23.644 56.6009 23.7024 56.5464 23.7724C56.4918 23.8424 56.4516 23.9225 56.4282 24.008C56.2893 24.4979 55.3237 25.7497 49.6038 27.4241L55.6275 18.0347C55.6987 17.9237 55.7357 17.7941 55.7338 17.6622C55.7319 17.5303 55.6912 17.4019 55.6168 17.2929C55.5424 17.184 55.4376 17.0994 55.3154 17.0496C55.1932 16.9999 55.0591 16.9872 54.9297 17.0132L44.0863 19.1893L33.2428 17.0132C33.1135 16.9872 32.9793 16.9999 32.8571 17.0496C32.735 17.0994 32.6301 17.184 32.5557 17.2929C32.4813 17.4019 32.4406 17.5303 32.4387 17.6622C32.4368 17.7941 32.4738 17.9237 32.5451 18.0347L39.303 28.5681C38.5793 29.5213 37.6689 30.6037 36.7115 31.742C34.9158 33.8769 32.8808 36.2967 31.2877 38.7815H21.7443C21.2818 38.782 20.8385 38.966 20.5114 39.293C20.1844 39.62 20.0005 40.0634 20 40.5258V58.2557C20.0005 58.7182 20.1845 59.1615 20.5115 59.4885C20.8385 59.8155 21.2818 59.9995 21.7443 60ZM33.744 58.2557C33.7439 58.3619 33.7017 58.4637 33.6266 58.5388C33.5515 58.6139 33.4497 58.6561 33.3435 58.6562H28.2161V53.6814H33.7444L33.744 58.2557ZM33.744 52.3377H28.2161V47.3629H33.7444L33.744 52.3377ZM34.5317 18.6424L43.9548 20.5333C44.042 20.5507 44.1319 20.5507 44.2191 20.5333L53.6422 18.6424L47.6855 27.9251H40.487L34.5317 18.6424ZM37.7399 32.6069C38.7455 31.4114 39.6992 30.2771 40.4575 29.2688H47.7151C48.4734 30.2771 49.4272 31.4114 50.4325 32.6068C54.2948 37.1988 59.1014 42.9136 58.2557 47.5613C57.9045 49.4911 56.6056 51.0809 54.2865 52.4184H35.0877V40.5258C35.0872 40.0634 34.9032 39.62 34.5762 39.293C34.2492 38.966 33.8059 38.782 33.3434 38.7815H32.8987C34.3664 36.6192 36.1481 34.4995 37.7399 32.6069ZM21.3437 40.5258C21.3439 40.4196 21.3861 40.3178 21.4612 40.2427C21.5363 40.1677 21.6381 40.1254 21.7443 40.1253H33.3435C33.4497 40.1254 33.5515 40.1676 33.6266 40.2427C33.7017 40.3178 33.7439 40.4196 33.744 40.5258V46.0191H21.3437V40.5258ZM21.3437 47.3629H26.8723V52.3377H21.3437V47.3629ZM21.3437 53.6814H26.8723V58.6562H21.7443C21.6381 58.6561 21.5363 58.6139 21.4612 58.5388C21.3861 58.4637 21.3439 58.3619 21.3437 58.2557V53.6814ZM32.0567 41.3279H23.0311C22.8529 41.3279 22.682 41.3987 22.556 41.5247C22.43 41.6507 22.3592 41.8216 22.3592 41.9998V44.1446C22.3592 44.3228 22.43 44.4937 22.556 44.6197C22.682 44.7457 22.8529 44.8165 23.0311 44.8165H32.0567C32.2349 44.8165 32.4058 44.7457 32.5318 44.6197C32.6578 44.4937 32.7286 44.3228 32.7286 44.1446V41.9998C32.7286 41.8216 32.6578 41.6507 32.5318 41.5247C32.4058 41.3987 32.2349 41.3279 32.0567 41.3279ZM31.3848 43.4727H23.703V42.6717H31.3848V43.4727ZM26.0307 49.8502C26.0307 50.0284 25.96 50.1993 25.834 50.3253C25.708 50.4513 25.5371 50.5221 25.3589 50.5221H24.7794V51.1016C24.7794 51.2798 24.7086 51.4507 24.5826 51.5767C24.4566 51.7027 24.2857 51.7735 24.1075 51.7735C23.9293 51.7735 23.7584 51.7027 23.6324 51.5767C23.5064 51.4507 23.4356 51.2798 23.4356 51.1016V50.5221H22.8569C22.6787 50.5221 22.5078 50.4513 22.3818 50.3253C22.2558 50.1993 22.185 50.0284 22.185 49.8502C22.185 49.6721 22.2558 49.5012 22.3818 49.3752C22.5078 49.2492 22.6787 49.1784 22.8569 49.1784H23.436V48.5993C23.436 48.4211 23.5068 48.2502 23.6328 48.1242C23.7588 47.9982 23.9296 47.9274 24.1078 47.9274C24.286 47.9274 24.4569 47.9982 24.5829 48.1242C24.7089 48.2502 24.7797 48.4211 24.7797 48.5993V49.1784H25.3592C25.5373 49.1785 25.7081 49.2493 25.8341 49.3753C25.96 49.5013 26.0307 49.6721 26.0307 49.8502ZM29.057 49.8502C29.057 49.6721 29.1278 49.5012 29.2538 49.3752C29.3798 49.2492 29.5507 49.1784 29.7289 49.1784H32.2305C32.4087 49.1784 32.5796 49.2492 32.7056 49.3752C32.8316 49.5012 32.9024 49.6721 32.9024 49.8502C32.9024 50.0284 32.8316 50.1993 32.7056 50.3253C32.5796 50.4513 32.4087 50.5221 32.2305 50.5221H29.7289C29.5507 50.5221 29.3798 50.4513 29.2538 50.3253C29.1278 50.1993 29.057 50.0284 29.057 49.8502ZM22.7482 56.5784L23.1577 56.1689L22.7482 55.7594C22.6222 55.6334 22.5514 55.4625 22.5514 55.2843C22.5514 55.1061 22.6222 54.9352 22.7482 54.8092C22.8742 54.6832 23.0451 54.6124 23.2233 54.6124C23.4015 54.6124 23.5724 54.6832 23.6984 54.8092L24.1078 55.2187L24.5173 54.8092C24.6434 54.6832 24.8142 54.6124 24.9924 54.6124C25.1706 54.6124 25.3415 54.6832 25.4675 54.8092C25.5935 54.9352 25.6643 55.1061 25.6643 55.2843C25.6643 55.4625 25.5935 55.6334 25.4675 55.7594L25.0583 56.1689L25.4678 56.5784C25.5308 56.6406 25.5809 56.7147 25.6151 56.7964C25.6494 56.8781 25.6672 56.9657 25.6675 57.0543C25.6677 57.1429 25.6505 57.2307 25.6167 57.3125C25.5829 57.3944 25.5333 57.4688 25.4706 57.5314C25.408 57.5941 25.3336 57.6437 25.2517 57.6775C25.1698 57.7112 25.0821 57.7285 24.9935 57.7282C24.9049 57.7279 24.8173 57.7101 24.7356 57.6759C24.6539 57.6416 24.5798 57.5915 24.5176 57.5285L24.1078 57.1193L23.6984 57.5288C23.5722 57.6536 23.4017 57.7233 23.2242 57.7228C23.0467 57.7222 22.8766 57.6515 22.7511 57.526C22.6256 57.4005 22.5549 57.2305 22.5543 57.053C22.5538 56.8755 22.6235 56.7047 22.7482 56.5784ZM29.057 57.0887C29.057 56.9105 29.1278 56.7396 29.2538 56.6136C29.3798 56.4876 29.5507 56.4168 29.7289 56.4168H32.2305C32.4087 56.4168 32.5796 56.4876 32.7056 56.6136C32.8316 56.7396 32.9024 56.9105 32.9024 57.0887C32.9024 57.2669 32.8316 57.4378 32.7056 57.5638C32.5796 57.6898 32.4087 57.7606 32.2305 57.7606H29.7289C29.5507 57.7606 29.3798 57.6898 29.2538 57.5638C29.1278 57.4378 29.057 57.2669 29.057 57.0887ZM29.057 55.2494C29.057 55.0712 29.1278 54.9003 29.2538 54.7743C29.3798 54.6483 29.5507 54.5776 29.7289 54.5776H32.2305C32.4087 54.5776 32.5796 54.6483 32.7056 54.7743C32.8316 54.9003 32.9024 55.0712 32.9024 55.2494C32.9024 55.4276 32.8316 55.5985 32.7056 55.7245C32.5796 55.8505 32.4087 55.9213 32.2305 55.9213H29.7289C29.6406 55.9213 29.5532 55.9039 29.4717 55.8701C29.3902 55.8363 29.3161 55.7868 29.2537 55.7244C29.1913 55.6619 29.1418 55.5878 29.1081 55.5063C29.0743 55.4247 29.057 55.3377 29.057 55.2494Z" fill="#07689F"/>
<path d="M41.5939 45.8715V43.739H40.2715V43.015H41.607V42.0936H40.2715V41.3696H41.607V36.6572H44.3042C46.386 36.6572 47.6429 37.6576 47.6429 39.4083C47.6429 41.2248 46.3598 42.1594 44.3042 42.1594H42.733V43.015H46.2289L46.2158 43.739H42.733V45.8715H41.5939ZM42.733 41.3696H44.278C45.548 41.3696 46.4514 40.672 46.4514 39.4083C46.4514 38.1446 45.548 37.5128 44.2518 37.5128H42.733V41.3696Z" fill="#07689F"/>
</svg>
