<svg width="80" height="80" viewBox="0 0 80 80" fill="none" xmlns="http://www.w3.org/2000/svg">
<rect x="0.5" y="0.5" width="79" height="79" rx="39.5" stroke="#07689F"/>
<g clip-path="url(#clip0_295_6)">
<path d="M43.2698 22.8744C43.168 22.8153 43.0524 22.784 42.9347 22.7837C42.817 22.7833 42.7013 22.8139 42.5991 22.8724L25.7715 32.4992H18.6719C18.4937 32.4992 18.3228 32.57 18.1968 32.696C18.0708 32.822 18 32.9929 18 33.1711V45.8291C18 46.0073 18.0708 46.1782 18.1968 46.3042C18.3228 46.4302 18.4937 46.501 18.6719 46.501H25.7715L42.599 56.1277C42.7012 56.1862 42.817 56.2168 42.9347 56.2164C43.0524 56.216 43.168 56.1848 43.2698 56.1257C43.3716 56.0666 43.4562 55.9819 43.5149 55.8799C43.5737 55.7779 43.6046 55.6622 43.6046 55.5445V23.4556C43.6046 23.3379 43.5736 23.2222 43.5149 23.1202C43.4561 23.0182 43.3716 22.9335 43.2698 22.8744ZM25.2783 45.1571H19.3438V33.8429H25.2783V45.1571ZM42.2608 54.3861L26.622 45.4393V33.5607L42.2608 24.614V54.3861ZM60.8032 32.9834L54.2866 39.5L60.8032 46.0166C60.9292 46.1426 61 46.3135 61 46.4917C61 46.6699 60.9292 46.8408 60.8032 46.9668C60.6772 47.0928 60.5063 47.1636 60.3281 47.1636C60.1499 47.1636 59.979 47.0928 59.853 46.9668L53.3364 40.4502L46.8198 46.9668C46.6886 47.098 46.5167 47.1636 46.3447 47.1636C46.1727 47.1636 46.0008 47.098 45.8696 46.9668C45.8072 46.9044 45.7577 46.8304 45.724 46.7489C45.6902 46.6673 45.6728 46.58 45.6728 46.4917C45.6728 46.4035 45.6902 46.3161 45.724 46.2346C45.7577 46.1531 45.8072 46.079 45.8696 46.0166L52.3862 39.5L45.8696 32.9834C45.8072 32.921 45.7577 32.847 45.724 32.7655C45.6902 32.6839 45.6728 32.5966 45.6728 32.5083C45.6728 32.4201 45.6902 32.3327 45.724 32.2512C45.7577 32.1697 45.8072 32.0956 45.8696 32.0332C45.932 31.9708 46.0061 31.9214 46.0876 31.8876C46.1691 31.8538 46.2565 31.8364 46.3447 31.8364C46.433 31.8364 46.5203 31.8538 46.6018 31.8876C46.6834 31.9214 46.7574 31.9708 46.8198 32.0332L53.3364 38.5498L59.853 32.0332C59.979 31.9072 60.1499 31.8364 60.3281 31.8364C60.5063 31.8364 60.6772 31.9072 60.8032 32.0332C60.9292 32.1592 61 32.3301 61 32.5083C61 32.6865 60.9292 32.8574 60.8032 32.9834Z" fill="#07689F"/>
</g>
<defs>
<clipPath id="clip0_295_6">
<rect width="43" height="43" fill="white" transform="translate(18 18)"/>
</clipPath>
</defs>
</svg>
