<svg width="80" height="80" viewBox="0 0 80 80" fill="none" xmlns="http://www.w3.org/2000/svg">
<rect x="0.5" y="0.5" width="79" height="79" rx="39.5" stroke="#07689F"/>
<g clip-path="url(#clip0_295_4)">
<path d="M40.2 41.7296C41.8067 41.7297 43.3774 41.2532 44.7134 40.3606C46.0493 39.4679 47.0906 38.1992 47.7055 36.7147C48.3204 35.2303 48.4812 33.5969 48.1678 32.021C47.8543 30.4451 47.0806 28.9976 45.9445 27.8615C44.8084 26.7253 43.3609 25.9516 41.785 25.6381C40.2091 25.3247 38.5757 25.4855 37.0912 26.1004C35.6068 26.7153 34.338 27.7565 33.4454 29.0925C32.5527 30.4284 32.0763 31.9991 32.0763 33.6058C32.0787 35.7596 32.9354 37.8245 34.4583 39.3475C35.9813 40.8705 38.0462 41.7272 40.2 41.7296ZM40.2 26.8259C41.541 26.8258 42.8518 27.2235 43.9668 27.9685C45.0818 28.7135 45.9508 29.7724 46.464 31.0113C46.9772 32.2502 47.1115 33.6134 46.8499 34.9286C46.5883 36.2438 45.9425 37.4519 44.9943 38.4001C44.0461 39.3484 42.838 39.9941 41.5228 40.2557C40.2076 40.5173 38.8443 40.383 37.6054 39.8699C36.3665 39.3567 35.3076 38.4876 34.5626 37.3727C33.8176 36.2577 33.42 34.9468 33.42 33.6058C33.422 31.8083 34.137 30.085 35.4081 28.8139C36.6791 27.5428 38.4025 26.8279 40.2 26.8259ZM29.9111 44.3667L23.5332 55.4136C23.4668 55.5288 23.436 55.6612 23.4448 55.7939C23.4537 55.9266 23.5017 56.0537 23.5829 56.1591C23.664 56.2645 23.7747 56.3434 23.9007 56.3859C24.0268 56.4284 24.1626 56.4325 24.291 56.3977L29.7785 54.9091L31.4001 60.5147C31.4367 60.6412 31.5098 60.7542 31.6101 60.8396C31.7104 60.9249 31.8336 60.9789 31.9644 60.9948C31.9914 60.9981 32.0185 60.9997 32.0457 60.9998C32.1636 60.9997 32.2794 60.9687 32.3815 60.9097C32.4836 60.8507 32.5684 60.7659 32.6274 60.6638L39.3523 49.0158C39.6168 49.1428 39.9065 49.2087 40.2 49.2087C40.4934 49.2087 40.7831 49.1428 41.0476 49.0158L47.7726 60.6641C47.8316 60.7662 47.9164 60.851 48.0185 60.91C48.1206 60.9689 48.2364 61 48.3543 61C48.3815 61 48.4086 60.9983 48.4356 60.9951C48.5664 60.9792 48.6896 60.9252 48.7899 60.8398C48.8902 60.7544 48.9632 60.6415 48.9999 60.5149L50.6215 54.9094L56.109 56.3977C56.2374 56.4325 56.3733 56.4285 56.4994 56.386C56.6255 56.3435 56.7361 56.2645 56.8173 56.1591C56.8985 56.0537 56.9465 55.9265 56.9553 55.7937C56.9641 55.6609 56.9333 55.5285 56.8668 55.4133L50.4945 44.3765C50.4572 44.3122 50.4095 44.2546 50.3534 44.206L50.9808 41.7251C50.9981 41.6473 51.0313 41.5738 51.0781 41.5093C51.125 41.4448 51.1846 41.3906 51.2533 41.3501L54.2164 39.4846C54.606 39.2394 54.8972 38.8653 55.0395 38.4275C55.1817 37.9897 55.166 37.5159 54.9949 37.0885L53.6943 33.8375C53.6625 33.7644 53.6461 33.6855 53.6461 33.6058C53.6461 33.5261 53.6625 33.4472 53.6943 33.3741L54.9949 30.1233C55.166 29.6959 55.1818 29.2221 55.0395 28.7842C54.8973 28.3464 54.606 27.9724 54.2164 27.7272L51.2532 25.8615C51.1845 25.821 51.1249 25.7668 51.0781 25.7024C51.0312 25.6379 50.9981 25.5644 50.9808 25.4866L50.1223 22.0922C50.0097 21.6458 49.744 21.253 49.3715 20.9824C48.999 20.7118 48.5434 20.5805 48.084 20.6113L44.5903 20.8437C44.5109 20.8513 44.4308 20.8425 44.355 20.8178C44.2792 20.7932 44.2092 20.7532 44.1494 20.7005L41.4598 18.4589C41.1061 18.1642 40.6603 18.0027 40.2 18.0027C39.7396 18.0027 39.2939 18.1642 38.9402 18.4589L36.2505 20.7005C36.1907 20.7531 36.1207 20.793 36.0448 20.8176C35.969 20.8421 35.889 20.8509 35.8096 20.8432L32.3159 20.6108C31.8565 20.5798 31.4007 20.711 31.0282 20.9817C30.6557 21.2523 30.39 21.6452 30.2776 22.0917L29.4192 25.4866C29.4018 25.5645 29.3687 25.6379 29.3219 25.7024C29.275 25.7669 29.2154 25.8211 29.1467 25.8616L26.1836 27.7272C25.794 27.9724 25.5027 28.3465 25.3605 28.7843C25.2182 29.2221 25.234 29.696 25.4051 30.1233L26.7057 33.3742C26.7375 33.4473 26.7538 33.5262 26.7538 33.6059C26.7538 33.6856 26.7375 33.7645 26.7057 33.8376L25.4051 37.0885C25.234 37.5159 25.2182 37.9897 25.3605 38.4275C25.5027 38.8653 25.794 39.2394 26.1836 39.4847L29.1466 41.35C29.2153 41.3906 29.2749 41.4448 29.3218 41.5093C29.3687 41.5738 29.4018 41.6473 29.4192 41.7251L30.0456 44.2018C29.9923 44.2492 29.9469 44.3049 29.9111 44.3667ZM32.2525 58.6259L30.8861 53.9013C30.8372 53.732 30.7236 53.5886 30.57 53.5022C30.4163 53.4158 30.2349 53.3933 30.0648 53.4394L25.5111 54.6747L30.6195 45.8268C30.816 46.0863 31.0739 46.2928 31.37 46.4278C31.6662 46.5629 31.9912 46.6222 32.316 46.6005L35.8097 46.368C35.8891 46.3606 35.9691 46.3694 36.0449 46.3941C36.1207 46.4187 36.1907 46.4585 36.2505 46.5112L38.2736 48.1972L32.2525 58.6259ZM54.8889 54.6747L50.3361 53.4397C50.1659 53.3935 49.9845 53.4161 49.8308 53.5025C49.6772 53.5889 49.5636 53.7322 49.5147 53.9016L48.1479 58.6261L42.1264 48.1972L44.1494 46.5113C44.2093 46.4586 44.2792 46.4187 44.3551 46.394C44.4309 46.3694 44.511 46.3605 44.5904 46.368L48.0841 46.6005C48.4088 46.6221 48.7339 46.5628 49.03 46.4277C49.3261 46.2927 49.584 46.0862 49.7806 45.8268L54.8889 54.6747ZM26.8996 38.3475C26.7749 38.2708 26.6815 38.1522 26.6363 38.013C26.5911 37.8738 26.5968 37.723 26.6526 37.5876L27.9533 34.3368C28.1447 33.8683 28.1447 33.3434 27.9533 32.8749L26.6526 29.6242C26.5968 29.4889 26.591 29.3381 26.6363 29.1988C26.6815 29.0596 26.7749 28.941 26.8996 28.8642L29.8625 26.9988C30.2928 26.7322 30.6013 26.3076 30.7219 25.8161L31.5804 22.4216C31.6149 22.2793 31.6989 22.154 31.8174 22.0679C31.9359 21.9819 32.0811 21.9408 32.2271 21.9521L35.7209 22.1845C36.2256 22.2217 36.7248 22.0595 37.1112 21.7327L39.8011 19.4912C39.9125 19.3963 40.0541 19.3442 40.2005 19.3442C40.3469 19.3442 40.4885 19.3963 40.5999 19.4912L43.2897 21.7327C43.6764 22.0591 44.1754 22.2213 44.6801 22.1845L48.1738 21.9521C48.3199 21.9405 48.4652 21.9814 48.5838 22.0675C48.7023 22.1536 48.7863 22.2792 48.8205 22.4216L49.679 25.8161C49.7996 26.3076 50.1081 26.7322 50.5383 26.9987L53.5014 28.8643C53.6261 28.941 53.7194 29.0596 53.7646 29.1988C53.8099 29.338 53.8041 29.4888 53.7483 29.6241L52.4476 32.8748C52.2562 33.3433 52.2562 33.8682 52.4476 34.3367L53.7483 37.5876C53.8041 37.723 53.8099 37.8738 53.7646 38.013C53.7194 38.1522 53.6261 38.2708 53.5014 38.3475L50.5382 40.213C50.1081 40.4796 49.7996 40.9041 49.679 41.3956L48.8205 44.79C48.786 44.9324 48.7021 45.0578 48.5836 45.1439C48.4651 45.2299 48.3198 45.271 48.1738 45.2597L44.6801 45.0273C44.1754 44.9904 43.6763 45.1525 43.2897 45.479L40.5998 47.7206C40.4884 47.8155 40.3468 47.8676 40.2004 47.8676C40.054 47.8676 39.9124 47.8155 39.801 47.7206L37.1112 45.479C36.7613 45.1829 36.3174 45.0211 35.859 45.0227C35.8133 45.0227 35.7672 45.0242 35.7209 45.0273L32.2271 45.2597C32.0811 45.271 31.9358 45.2299 31.8173 45.1439C31.6989 45.0578 31.6149 44.9324 31.5804 44.79L30.7219 41.3956C30.6013 40.9041 30.2928 40.4795 29.8626 40.213L26.8996 38.3475ZM38.3019 37.035L35.2407 33.9738C35.1777 33.9115 35.1276 33.8374 35.0933 33.7558C35.0591 33.6741 35.0413 33.5864 35.041 33.4979C35.0407 33.4093 35.058 33.3215 35.0918 33.2396C35.1255 33.1578 35.1752 33.0834 35.2378 33.0207C35.3004 32.9581 35.3748 32.9085 35.4567 32.8747C35.5386 32.8409 35.6263 32.8236 35.7149 32.8239C35.8035 32.8242 35.8911 32.842 35.9728 32.8762C36.0545 32.9105 36.1286 32.9606 36.1908 33.0236L38.777 35.6098L44.21 30.1767C44.337 30.0556 44.5063 29.9891 44.6817 29.9912C44.8571 29.9933 45.0247 30.064 45.1487 30.1881C45.2727 30.3121 45.3433 30.4798 45.3454 30.6552C45.3474 30.8306 45.2808 30.9998 45.1597 31.1268L39.2516 37.0348C39.1256 37.1608 38.9548 37.2316 38.7766 37.2316C38.5984 37.2316 38.4275 37.1608 38.3015 37.0348L38.3019 37.035Z" fill="#07689F"/>
</g>
<defs>
<clipPath id="clip0_295_4">
<rect width="34.4" height="43" fill="white" transform="translate(23 18)"/>
</clipPath>
</defs>
</svg>
