<svg width="80" height="80" viewBox="0 0 80 80" fill="none" xmlns="http://www.w3.org/2000/svg">
<rect x="0.5" y="0.5" width="79" height="79" rx="39.5" stroke="#07689F"/>
<g clip-path="url(#clip0_295_7)">
<path d="M30.1605 61.5823H38.4357L39.792 63.6915C39.8529 63.7861 39.9365 63.864 40.0352 63.9179C40.134 63.9718 40.2447 64 40.3572 64C40.4697 64 40.5803 63.9718 40.6791 63.9179C40.7778 63.864 40.8615 63.7861 40.9223 63.6915L42.2786 61.5823H50.5539C50.6424 61.5823 50.73 61.5648 50.8118 61.5308C50.8935 61.4968 50.9677 61.447 51.0302 61.3843C51.0926 61.3215 51.142 61.2471 51.1756 61.1652C51.2091 61.0833 51.2262 60.9955 51.2257 60.907L51.1941 54.6687C51.1937 54.5832 51.1769 54.4986 51.1448 54.4195C50.4897 52.8044 49.0887 51.6609 46.9807 51.0207C46.9739 51.0187 46.9671 51.0167 46.9603 51.0148C45.9955 50.7554 45.0347 50.4812 44.0783 50.1923C44.0469 49.813 44.0196 49.4448 43.9944 49.0823C44.9936 48.3179 45.7256 47.2572 46.0856 46.0517H46.9163C47.3989 46.0511 47.8616 45.8591 48.2028 45.5179C48.544 45.1766 48.736 44.7139 48.7365 44.2313V42.3425C48.7362 41.9787 48.6269 41.6232 48.4228 41.322C48.2187 41.0208 47.9291 40.7876 47.5913 40.6523C47.5928 40.5142 47.5946 40.3767 47.5964 40.2415C47.6166 38.7396 47.6357 37.3209 47.1248 36.0983C46.5304 34.6761 45.307 33.7813 43.3844 33.3629C41.4148 32.8835 39.3589 32.8835 37.3893 33.3629C35.4668 33.7813 34.2433 34.6761 33.649 36.0983C33.1381 37.3209 33.1573 38.7395 33.1774 40.2414C33.1791 40.3691 33.1808 40.4992 33.1822 40.6295C32.8297 40.7567 32.5249 40.9893 32.3093 41.2959C32.0937 41.6025 31.9779 41.968 31.9775 42.3428V44.2316C31.9781 44.7142 32.1701 45.1768 32.5114 45.5181C32.8527 45.8593 33.3154 46.0512 33.798 46.0517H34.6874C35.0195 47.1641 35.6692 48.1552 36.5567 48.9035C36.5231 49.4214 36.4917 49.8693 36.4626 50.2445C35.5635 50.5142 34.6605 50.7711 33.7541 51.0148C33.7472 51.0167 33.7404 51.0187 33.7337 51.0207C31.6256 51.6609 30.2246 52.8045 29.5695 54.4195C29.5374 54.4986 29.5207 54.5832 29.5202 54.6687L29.4886 60.907C29.4881 60.9955 29.5052 61.0833 29.5388 61.1652C29.5723 61.2471 29.6217 61.3215 29.6842 61.3843C29.7466 61.447 29.8208 61.4968 29.9026 61.5308C29.9843 61.5648 30.0719 61.5823 30.1605 61.5823ZM40.3572 62.0862L38.6801 59.4783L39.4642 54.3132H41.2501L42.0342 59.4783L40.3572 62.0862ZM49.851 54.8103L49.8786 60.2388H43.143L43.3019 59.9918C43.3903 59.8542 43.4256 59.6892 43.401 59.5275L42.5685 54.0433L43.9962 51.5707C44.8611 51.8287 45.7293 52.0751 46.6008 52.3098C48.2656 52.8173 49.3305 53.6363 49.851 54.8101V54.8103ZM47.3931 44.2313C47.393 44.3577 47.3428 44.4788 47.2534 44.5681C47.1641 44.6575 47.043 44.7078 46.9167 44.708H46.3218C46.3285 44.5929 46.3327 44.4772 46.3327 44.3605V41.9592C46.5109 41.9479 46.6871 41.9156 46.8577 41.863C46.8772 41.8647 46.8968 41.8659 46.9165 41.8659C47.0428 41.8661 47.164 41.9164 47.2533 42.0057C47.3426 42.0951 47.3928 42.2162 47.393 42.3425L47.3931 44.2313ZM37.6828 34.6739C37.6888 34.6727 37.6947 34.6713 37.7006 34.6698C39.4655 34.2389 41.3082 34.2389 43.0731 34.6698C43.079 34.6713 43.0849 34.6727 43.0909 34.6739C46.318 35.373 46.2907 37.4074 46.2527 40.2231C46.251 40.3534 46.2492 40.4857 46.2478 40.6191C46.1325 40.6267 46.0168 40.6122 45.9069 40.5762C45.7179 40.5136 45.5545 40.3911 45.4415 40.2272C45.4323 39.7653 45.4282 39.3071 45.4295 38.8632C45.4299 38.7228 45.3863 38.5859 45.3048 38.4715C45.2233 38.3572 45.1081 38.2713 44.9753 38.2258C44.8661 38.1885 44.7485 38.1586 44.6245 38.1264C44.0023 37.9669 43.0624 37.7259 42.3485 36.2391C42.3025 36.1432 42.2343 36.0596 42.1496 35.9952C42.065 35.9308 41.9662 35.8874 41.8615 35.8686C41.7568 35.8498 41.6491 35.8561 41.5473 35.8871C41.4455 35.918 41.3526 35.9727 41.276 36.0466C40.6021 36.6954 39.7851 37.1766 38.891 37.4514C37.9968 37.7263 37.0506 37.7871 36.1286 37.629C36.0316 37.6122 35.932 37.6169 35.837 37.6429C35.742 37.6688 35.6538 37.7153 35.5788 37.7791C35.5037 37.8429 35.4436 37.9225 35.4027 38.0121C35.3618 38.1017 35.3411 38.1992 35.3421 38.2977C35.3484 38.9384 35.3451 39.5867 35.3324 40.2272C35.2436 40.3569 35.1225 40.4612 34.9812 40.5299C34.8398 40.5987 34.683 40.6294 34.5261 40.6191C34.5248 40.4856 34.5229 40.3533 34.5213 40.2229C34.4831 37.4076 34.4557 35.3733 37.6828 34.6743V34.6739ZM33.798 44.708C33.6716 44.7078 33.5505 44.6575 33.4612 44.5681C33.3719 44.4788 33.3217 44.3577 33.3215 44.2313V42.3425C33.3217 42.2162 33.3719 42.0951 33.4612 42.0057C33.5505 41.9164 33.6716 41.8661 33.798 41.8659C33.8317 41.8657 33.8654 41.8629 33.8988 41.8575C34.0747 41.9135 34.2569 41.9477 34.4411 41.9596V44.3605C34.4411 44.4772 34.4453 44.5929 34.4521 44.708H33.798ZM35.7851 44.3605V41.6173C36.1355 41.3958 36.4185 41.0824 36.6031 40.7111C36.6465 40.6232 36.6702 40.5268 36.6723 40.4288C36.6828 39.9706 36.6884 39.5078 36.6891 39.0459C38.4374 39.1518 40.1658 38.6282 41.5612 37.5698C42.404 38.832 43.4165 39.1934 44.087 39.3754C44.0891 39.7222 44.0941 40.0749 44.1022 40.429C44.1044 40.5271 44.1281 40.6234 44.1715 40.7114C44.356 41.0827 44.6389 41.3962 44.9894 41.6177V44.3609C44.99 45.2092 44.7559 46.0411 44.3131 46.7646C43.8703 47.4881 43.236 48.0751 42.4804 48.4605C41.7247 48.8459 40.8772 49.0149 40.0315 48.9486C39.1859 48.8823 38.375 48.5834 37.6886 48.085C37.6614 48.0611 37.6322 48.0395 37.6015 48.0204C37.037 47.5917 36.5792 47.0383 36.2641 46.4034C35.9489 45.7685 35.7849 45.0693 35.7847 44.3605H35.7851ZM40.3874 50.3066C41.1828 50.3074 41.9702 50.1478 42.7024 49.8373C42.7303 50.2013 42.7612 50.5729 42.7962 50.9597V50.9614L41.6372 52.9695H39.0777L37.773 50.7095C37.7962 50.4353 37.8211 50.1099 37.8475 49.7353C38.641 50.112 39.5085 50.3072 40.3869 50.3064L40.3874 50.3066ZM30.8636 54.8103C31.3843 53.6362 32.4489 52.8175 34.1142 52.3097C34.9857 52.0752 35.854 51.8288 36.7189 51.5706L38.1466 54.0431L37.3141 59.5272C37.2895 59.6889 37.3247 59.854 37.4132 59.9915L37.5721 60.2385H30.8365L30.8636 54.8103ZM46.4007 25.3905C46.3602 25.2658 46.284 25.1557 46.1817 25.0737C46.0794 24.9917 45.9553 24.9415 45.8247 24.9292L42.356 24.6029L40.9739 21.4052C40.9218 21.2849 40.8357 21.1824 40.7261 21.1104C40.6165 21.0384 40.4883 21 40.3572 21C40.226 21 40.0978 21.0384 39.9882 21.1104C39.8786 21.1824 39.7925 21.2849 39.7405 21.4052L38.3583 24.6029L34.8898 24.9293C34.7592 24.9416 34.6352 24.9918 34.5328 25.0738C34.4305 25.1558 34.3544 25.2659 34.3138 25.3906C34.2733 25.5153 34.2702 25.6491 34.3048 25.7756C34.3394 25.9021 34.4103 26.0156 34.5087 26.1023L37.1223 28.4051L36.3614 31.8043C36.3327 31.9323 36.3421 32.0658 36.3885 32.1885C36.4348 32.3111 36.516 32.4176 36.6221 32.4946C36.7282 32.5717 36.8545 32.616 36.9854 32.6222C37.1164 32.6284 37.2463 32.5961 37.3592 32.5293L40.3572 30.7551L43.3549 32.5293C43.4677 32.5961 43.5977 32.6284 43.7286 32.6222C43.8596 32.616 43.9859 32.5717 44.092 32.4946C44.1981 32.4176 44.2793 32.3111 44.3256 32.1885C44.3719 32.0658 44.3814 31.9323 44.3527 31.8043L43.5917 28.4051L46.2054 26.1023C46.3038 26.0156 46.3747 25.9021 46.4093 25.7756C46.4439 25.6491 46.4408 25.5153 46.4003 25.3906L46.4007 25.3905ZM42.4051 27.66C42.3148 27.7395 42.2475 27.8419 42.2103 27.9564C42.173 28.071 42.1673 28.1933 42.1936 28.3108L42.702 30.5816L40.6993 29.3962C40.5957 29.3349 40.4775 29.3025 40.3572 29.3025C40.2368 29.3025 40.1186 29.3349 40.015 29.3962L38.0123 30.5814L38.5208 28.3106C38.5471 28.1931 38.5413 28.0707 38.5041 27.9562C38.4669 27.8417 38.3996 27.7393 38.3092 27.6597L36.5632 26.1214L38.88 25.903C38.9998 25.8917 39.1143 25.8484 39.2117 25.7776C39.309 25.7069 39.3856 25.6113 39.4333 25.5009L40.3572 23.3649L41.281 25.5009C41.3288 25.6114 41.4054 25.7071 41.5028 25.7778C41.6002 25.8486 41.7148 25.8919 41.8347 25.9032L44.1515 26.1215L42.4051 27.66ZM55.1707 28.3099C55.1302 28.1852 55.0541 28.0751 54.9517 27.9931C54.8494 27.9111 54.7253 27.8609 54.5947 27.8486L52.181 27.6212L51.2189 25.3957C51.1668 25.2753 51.0807 25.1729 50.9711 25.1009C50.8615 25.0289 50.7333 24.9905 50.6022 24.9905C50.4711 24.9905 50.3429 25.0289 50.2333 25.1009C50.1237 25.1729 50.0376 25.2753 49.9855 25.3957L49.0234 27.6212L46.6095 27.8486C46.479 27.8609 46.3549 27.9111 46.2525 27.9931C46.1502 28.0751 46.074 28.1852 46.0335 28.3099C45.993 28.4346 45.9899 28.5685 46.0245 28.695C46.0591 28.8214 46.13 28.935 46.2284 29.0217L48.0476 30.6244L47.5179 32.9903C47.4893 33.1182 47.4987 33.2518 47.545 33.3744C47.5914 33.4971 47.6726 33.6035 47.7787 33.6806C47.8847 33.7576 48.011 33.802 48.142 33.8081C48.273 33.8143 48.4029 33.782 48.5157 33.7152L50.6022 32.4807L52.6886 33.7152C52.8014 33.782 52.9313 33.8143 53.0623 33.8081C53.1933 33.802 53.3196 33.7576 53.4257 33.6806C53.5317 33.6035 53.6129 33.4971 53.6593 33.3744C53.7056 33.2518 53.715 33.1182 53.6864 32.9903L53.1564 30.6241L54.9756 29.0214C55.074 28.9348 55.1449 28.8212 55.1795 28.6947C55.2142 28.5682 55.2111 28.4344 55.1706 28.3097L55.1707 28.3099ZM51.9701 29.879C51.8798 29.9586 51.8125 30.061 51.7753 30.1755C51.7381 30.29 51.7323 30.4124 51.7586 30.5299L52.0358 31.7674L50.9445 31.1215C50.8409 31.0602 50.7227 31.0279 50.6023 31.0279C50.4819 31.0279 50.3637 31.0602 50.2601 31.1215L49.1686 31.7668L49.4457 30.5294C49.472 30.4119 49.4662 30.2895 49.429 30.1749C49.3918 30.0604 49.3245 29.958 49.2341 29.8784L48.2827 29.0402L49.5451 28.9216C49.6649 28.9103 49.7796 28.867 49.877 28.7962C49.9744 28.7255 50.051 28.6298 50.0988 28.5193L50.602 27.3553L51.1053 28.5193C51.1531 28.6298 51.2297 28.7254 51.3271 28.7962C51.4245 28.867 51.5391 28.9103 51.6589 28.9216L52.9212 29.0405L51.9701 29.879ZM27.2892 33.6804C27.3953 33.7574 27.5216 33.8018 27.6525 33.8079C27.7835 33.8141 27.9134 33.7818 28.0262 33.715L30.1127 32.4804L32.1991 33.715C32.3119 33.7818 32.4418 33.8141 32.5728 33.8079C32.7038 33.8017 32.8301 33.7574 32.9362 33.6803C33.0422 33.6033 33.1234 33.4968 33.1698 33.3742C33.2161 33.2515 33.2255 33.118 33.1969 32.99L32.6672 30.6241L34.4863 29.0214C34.5847 28.9348 34.6556 28.8212 34.6902 28.6947C34.7249 28.5682 34.7217 28.4344 34.6812 28.3097C34.6407 28.1849 34.5646 28.0748 34.4622 27.9928C34.3599 27.9109 34.2358 27.8606 34.1052 27.8483L31.6914 27.621L30.7293 25.3954C30.6772 25.2751 30.5911 25.1726 30.4815 25.1006C30.372 25.0286 30.2437 24.9903 30.1126 24.9903C29.9815 24.9903 29.8533 25.0286 29.7437 25.1006C29.6341 25.1726 29.548 25.2751 29.496 25.3954L28.5338 27.621L26.1201 27.8483C25.9896 27.8606 25.8655 27.9109 25.7631 27.9928C25.6608 28.0748 25.5846 28.1849 25.5441 28.3097C25.5036 28.4344 25.5005 28.5682 25.5351 28.6947C25.5697 28.8212 25.6406 28.9348 25.739 29.0214L27.5581 30.6241L27.0284 32.99C26.9998 33.118 27.0092 33.2515 27.0555 33.3742C27.1019 33.4969 27.1831 33.6033 27.2892 33.6804ZM29.0554 28.9216C29.1752 28.9103 29.2899 28.867 29.3873 28.7962C29.4846 28.7254 29.5612 28.6298 29.609 28.5193L30.1123 27.3553L30.6156 28.5193C30.6633 28.6298 30.7399 28.7255 30.8374 28.7962C30.9348 28.867 31.0494 28.9103 31.1693 28.9216L32.4317 29.0405L31.48 29.8787C31.3897 29.9583 31.3223 30.0608 31.2851 30.1753C31.2479 30.2898 31.2422 30.4122 31.2685 30.5297L31.5456 31.7671L30.4543 31.1212C30.3507 31.0599 30.2325 31.0275 30.1121 31.0275C29.9917 31.0275 29.8735 31.0599 29.7699 31.1212L28.6786 31.7671L28.9558 30.5295C28.9821 30.4121 28.9763 30.2897 28.9391 30.1752C28.9019 30.0607 28.8346 29.9583 28.7443 29.8787L27.7931 29.0405L29.0554 28.9216Z" fill="#07689F"/>
</g>
<defs>
<clipPath id="clip0_295_7">
<rect width="30.7143" height="43" fill="white" transform="translate(25 21)"/>
</clipPath>
</defs>
</svg>
