<svg width="80" height="80" viewBox="0 0 80 80" fill="none" xmlns="http://www.w3.org/2000/svg">
<rect x="0.5" y="0.5" width="79" height="79" rx="39.5" stroke="#07689F"/>
<g clip-path="url(#clip0_295_5)">
<path d="M48.8538 42.0195H40.032C41.2568 39.0776 41.2666 35.7704 40.0591 32.8213C40.0489 32.7965 40.0373 32.7722 40.0243 32.7487C39.7789 32.3073 39.4152 31.9431 38.9741 31.6971C38.533 31.4511 38.032 31.333 37.5275 31.3562C37.023 31.3794 36.5349 31.543 36.1183 31.8284C35.7016 32.1138 35.3729 32.5099 35.169 32.972C35.1377 33.0429 35.119 33.1187 35.1136 33.196L34.9061 36.1406C34.5942 37.8412 33.6759 39.3707 32.3215 40.4453C31.7963 40.6321 30.793 41.3068 28.183 43.791V43.6566C28.1826 43.2777 28.0319 42.9144 27.764 42.6465C27.496 42.3786 27.1328 42.2278 26.7539 42.2274H19.4292C19.0502 42.2278 18.6868 42.3786 18.4189 42.6467C18.1509 42.9148 18.0003 43.2782 18 43.6572V58.2756C18.0004 58.6545 18.1512 59.0178 18.4191 59.2857C18.6871 59.5537 19.0503 59.7044 19.4292 59.7048H26.7539C27.1328 59.7044 27.4961 59.5536 27.764 59.2857C28.0319 59.0178 28.1827 58.6545 28.1831 58.2756V58.1792C30.2233 58.626 31.2821 59.1551 32.5184 60.304C32.9958 60.7581 33.6316 61.0078 34.2904 61H45.644C46.1927 61.0003 46.73 60.8436 47.1925 60.5483C47.6549 60.2531 48.0233 59.8317 48.254 59.3339C48.4847 58.8361 48.5682 58.2827 48.4945 57.739C48.4208 57.1953 48.1932 56.684 47.8383 56.2656C48.7506 55.7281 49.4023 54.7521 49.4023 53.7144C49.403 53.0651 49.1829 52.4349 48.7783 51.9272C49.707 51.3888 50.376 50.3795 50.376 49.3052C50.3767 48.6938 50.1815 48.0983 49.8191 47.6059C50.4577 47.3784 50.9954 46.9326 51.3374 46.3472C51.6794 45.7618 51.8036 45.0744 51.6882 44.4064C51.5727 43.7383 51.2251 43.1325 50.7065 42.6958C50.1879 42.2591 49.5317 42.0196 48.8538 42.0195ZM26.8394 58.2756C26.8388 58.2981 26.8296 58.3195 26.8137 58.3354C26.7978 58.3513 26.7764 58.3605 26.7539 58.361H19.4292C19.4068 58.3605 19.3853 58.3513 19.3694 58.3354C19.3535 58.3195 19.3443 58.2981 19.3438 58.2756V43.6572C19.3443 43.6347 19.3535 43.6133 19.3694 43.5974C19.3853 43.5815 19.4068 43.5723 19.4292 43.5717H26.7539C26.7764 43.5723 26.7978 43.5815 26.8137 43.5974C26.8296 43.6133 26.8388 43.6347 26.8394 43.6572V58.2756ZM48.8538 46.4287H46.4287C46.2505 46.4287 46.0796 46.4995 45.9536 46.6255C45.8276 46.7515 45.7568 46.9224 45.7568 47.1006C45.7568 47.2788 45.8276 47.4497 45.9536 47.5757C46.0796 47.7017 46.2505 47.7725 46.4287 47.7725H47.4995C47.9059 47.7729 48.2955 47.9346 48.5828 48.2219C48.8701 48.5092 49.0318 48.8988 49.0322 49.3052C49.0322 50.1037 48.2414 50.9167 47.4313 50.9839C47.1393 50.8869 46.8336 50.8376 46.5259 50.8379C46.3477 50.8379 46.1768 50.9087 46.0508 51.0347C45.9248 51.1607 45.854 51.3316 45.854 51.5098C45.854 51.688 45.9248 51.8589 46.0508 51.9849C46.1768 52.1109 46.3477 52.1816 46.5259 52.1816C46.7057 52.1815 46.8841 52.2131 47.053 52.2749C47.0711 52.283 47.0895 52.2902 47.1084 52.2966C47.3893 52.4124 47.6295 52.6089 47.7987 52.8613C47.9678 53.1136 48.0583 53.4105 48.0586 53.7144C48.0586 54.4973 47.2373 55.2944 46.4023 55.3484C46.1552 55.281 45.9002 55.2469 45.644 55.2471C45.4659 55.2471 45.295 55.3179 45.169 55.4439C45.043 55.5699 44.9722 55.7408 44.9722 55.9189C44.9722 56.0971 45.043 56.268 45.169 56.394C45.295 56.52 45.4659 56.5908 45.644 56.5908C45.7929 56.5907 45.9409 56.6124 46.0835 56.655C46.0999 56.6609 46.1167 56.6663 46.1338 56.671C46.4783 56.7872 46.7702 57.022 46.9576 57.3335C47.1449 57.645 47.2154 58.0129 47.1566 58.3716C47.0977 58.7303 46.9133 59.0564 46.6363 59.2917C46.3592 59.5271 46.0075 59.6562 45.644 59.6563H34.2903C34.1322 59.6598 33.9749 59.6318 33.8278 59.574C33.6806 59.5162 33.5463 59.4297 33.4329 59.3195C31.9508 57.9426 30.6554 57.3177 28.1831 56.8054V45.6561C28.1853 45.654 28.1876 45.6524 28.1897 45.6503L28.3148 45.5287C31.7698 42.1733 32.5986 41.7585 32.7634 41.7128C32.8651 41.693 32.9609 41.6499 33.0433 41.5868C34.7246 40.2988 35.863 38.4282 36.2347 36.3431C36.2389 36.3195 36.2418 36.2958 36.2436 36.2719L36.4445 33.4191C36.5594 33.2052 36.7291 33.0256 36.9363 32.8988C37.1434 32.772 37.3805 32.7025 37.6234 32.6975C37.8662 32.6925 38.106 32.7521 38.3182 32.8702C38.5304 32.9883 38.7074 33.1607 38.8311 33.3697C39.4155 34.8139 39.6779 36.3682 39.6 37.9242C39.5221 39.4802 39.1057 41.0005 38.3799 42.3791C38.3261 42.4815 38.2997 42.5961 38.3032 42.7117C38.3067 42.8273 38.34 42.9401 38.3998 43.0391C38.4597 43.1381 38.5441 43.2199 38.6449 43.2767C38.7457 43.3335 38.8594 43.3633 38.9751 43.3633H48.8538C49.2603 43.3633 49.6501 43.5248 49.9376 43.8122C50.225 44.0996 50.3865 44.4895 50.3865 44.896C50.3865 45.3025 50.225 45.6924 49.9376 45.9798C49.6501 46.2672 49.2603 46.4287 48.8538 46.4287ZM24.4227 45.8901V45.9741C24.4227 46.1523 24.3519 46.3232 24.2259 46.4492C24.0999 46.5752 23.929 46.646 23.7508 46.646C23.5726 46.646 23.4017 46.5752 23.2757 46.4492C23.1497 46.3232 23.079 46.1523 23.079 45.9741V45.8901C23.079 45.7119 23.1497 45.541 23.2757 45.415C23.4017 45.289 23.5726 45.2182 23.7508 45.2182C23.929 45.2182 24.0999 45.289 24.2259 45.415C24.3519 45.541 24.4227 45.7119 24.4227 45.8901ZM52.7378 18H52.7294C51.2315 18.01 49.7641 18.4243 48.4821 19.1992C47.2001 19.974 46.1512 21.0807 45.4461 22.4024C44.7411 23.724 44.406 25.2115 44.4762 26.7078C44.5465 28.2041 45.0196 29.6536 45.8454 30.9034C45.867 30.936 45.8914 30.9667 45.9183 30.9951C46.8346 31.9617 47.4637 33.1643 47.7349 34.4683C47.7981 34.7821 47.947 35.0722 48.1651 35.3064C48.3832 35.5406 48.6619 35.7099 48.9703 35.7953V36.63C48.9708 36.9645 49.0672 37.2919 49.2481 37.5733C49.4289 37.8547 49.6866 38.0784 49.9907 38.2178C50.0859 38.8774 50.4156 39.4806 50.9194 39.9169C51.4231 40.3532 52.0673 40.5934 52.7337 40.5934C53.4002 40.5934 54.0443 40.3532 54.5481 39.9169C55.0519 39.4806 55.3816 38.8774 55.4768 38.2178C55.7807 38.0783 56.0383 37.8547 56.2191 37.5733C56.3999 37.292 56.4962 36.9647 56.4968 36.6303V35.7955C56.8052 35.7101 57.0839 35.5409 57.302 35.3067C57.5201 35.0724 57.669 34.7823 57.7322 34.4686C58.0034 33.1646 58.6325 31.9619 59.5488 30.9953C59.5758 30.967 59.6002 30.9363 59.6217 30.9036C60.4476 29.6539 60.9207 28.2043 60.991 26.708C61.0613 25.2117 60.7262 23.7241 60.0211 22.4025C59.316 21.0808 58.2671 19.9741 56.9851 19.1992C55.7032 18.4243 54.2357 18.01 52.7378 18ZM52.7334 27.0964C52.6518 27.0964 52.5719 27.0722 52.504 27.0269C52.4361 26.9815 52.3832 26.917 52.3519 26.8416C52.3207 26.7662 52.3125 26.6831 52.3284 26.603C52.3443 26.5229 52.3836 26.4494 52.4414 26.3916C52.4991 26.3339 52.5727 26.2946 52.6528 26.2786C52.7329 26.2627 52.8159 26.2709 52.8914 26.3021C52.9668 26.3334 53.0313 26.3863 53.0767 26.4542C53.122 26.5222 53.1462 26.602 53.1462 26.6836C53.1461 26.7931 53.1025 26.898 53.0252 26.9754C52.9478 27.0528 52.8429 27.0963 52.7334 27.0964ZM55.153 35.8607V36.6303C55.1529 36.7377 55.1102 36.8407 55.0342 36.9166C54.9583 36.9926 54.8553 37.0353 54.7479 37.0354H50.719C50.6115 37.0353 50.5086 36.9926 50.4326 36.9166C50.3566 36.8407 50.3139 36.7377 50.3137 36.6303V35.8607H55.153ZM52.7334 39.2522C52.4527 39.2521 52.1782 39.1692 51.9444 39.0138C51.7106 38.8585 51.5278 38.6376 51.419 38.3788H54.0477C53.9389 38.6376 53.7561 38.8585 53.5223 39.0138C53.2886 39.1692 53.0141 39.2521 52.7334 39.2522ZM58.5314 30.1154C57.466 31.2556 56.7345 32.6666 56.4166 34.1944C56.3991 34.2863 56.3497 34.369 56.2772 34.428C56.2046 34.4871 56.1135 34.5186 56.02 34.517H53.3885V28.3122C53.7651 28.1604 54.0775 27.8827 54.2723 27.5264C54.4672 27.1702 54.5325 26.7573 54.4571 26.3583C54.3817 25.9593 54.1703 25.5988 53.8589 25.3381C53.5475 25.0775 53.1554 24.9329 52.7493 24.929C52.3433 24.9251 51.9484 25.062 51.632 25.3166C51.3156 25.5711 51.0973 25.9275 51.0142 26.325C50.9311 26.7225 50.9884 27.1365 51.1763 27.4964C51.3642 27.8564 51.6711 28.1401 52.0447 28.2992V34.517H49.4469C49.3533 34.5186 49.2622 34.4871 49.1896 34.428C49.1171 34.369 49.0676 34.2863 49.0501 34.1944C48.7323 32.6666 48.0007 31.2556 46.9353 30.1155C46.2508 29.0701 45.8617 27.8591 45.8091 26.6107C45.7565 25.3623 46.0425 24.1229 46.6366 23.0237C47.2308 21.9244 48.1111 21.0063 49.1843 20.3664C50.2576 19.7265 51.4838 19.3887 52.7334 19.3887C53.9829 19.3887 55.2092 19.7265 56.2824 20.3664C57.3557 21.0063 58.236 21.9244 58.8301 23.0237C59.4243 24.1229 59.7102 25.3623 59.6576 26.6107C59.605 27.8591 59.2159 29.0701 58.5314 30.1155V30.1154Z" fill="#07689F"/>
</g>
<defs>
<clipPath id="clip0_295_5">
<rect width="43" height="43" fill="white" transform="translate(18 18)"/>
</clipPath>
</defs>
</svg>
